<svg xmlns="http://www.w3.org/2000/svg" xmlns:xlink="http://www.w3.org/1999/xlink" width="851.186" height="787.295" viewBox="0 0 851.186 787.295"><defs><style>.a{fill:#fff;}.b{fill:#fefefe;}.c{fill:#fefdfd;}.d{fill:#fdfdfc;}.e{fill:#fdfcfb;}.f{fill:#fcfbfa;}.g{fill:#fbfaf9;}.h{fill:#fbfaf8;}.i{fill:#faf9f7;}.j{fill:#faf8f6;}.k{fill:#f9f7f5;}.l{fill:#f9f7f4;}.m{fill:#f8f6f3;}.n{fill:#f7f5f2;}.o{fill:#f7f4f1;}.p{fill:#f6f4f0;}.q{fill:#f6f3ef;}.r{fill:#f5f2ee;}.s{fill:#f4f1ed;}.t{fill:#f4f0ec;}.u{fill:#f3f0eb;}.v{fill:#f3efea;}.w{fill:#f2eee9;}.x{fill:#f2ede8;}.y{fill:#f1ede7;}.z{fill:#f0ece6;}.aa{fill:#f0ebe5;}.ab{fill:#efeae4;}.ac{fill:#efeae3;}.ad{fill:#eee9e2;}.ae{fill:#ede8e1;}.af{fill:#ede7e0;}.ag{fill:#ece7df;}.ah{fill:#ece6de;}.ai{fill:#ebe5dd;}.aj{fill:#eae4dc;}.ak{fill:#eae3db;}.al{fill:#e9e3da;}.am{fill:#e9e2d9;}.an{fill:#e8e1d8;}.ao{fill:#e8e0d7;}.ap{fill:#e7e0d6;}.aq{fill:#e6dfd5;}.ar{fill:#e6ded4;}.as{fill:#e5ddd3;}.at{fill:#e5ddd2;}.au{fill:#e4dcd1;}.av{fill:#e3dbd0;}.aw{fill:#e3dacf;}.ax{fill:#e2dace;}.ay{fill:#e2d9cd;}.az{fill:#e1d8cc;}.ba{fill:#e1d7cb;}.bb{fill:#e0d6ca;}.bc{fill:#dfd6c9;}.bd{fill:#dfd5c8;}.be{fill:#ded4c7;}.bf{fill:#ded3c6;}.bg{fill:#ddd3c5;}.bh{fill:#dcd2c4;}.bi{fill:#dcd1c3;}.bj{fill:#dbd0c2;}.bk{fill:#dbd0c1;}.bl{fill:#dacfc0;}.bm{fill:#dacebf;}.bn{fill:#d9cdbe;}.bo{fill:#d8cdbd;}.bp{fill:#d8ccbc;}.bq{fill:#d7cbbb;}.br{fill:#d7caba;}.bs{fill:#d6c9b9;}.bt{fill:#d5c9b8;}.bu{fill:#d5c8b7;}.bv{fill:#d4c7b6;}.bw{fill:#d4c6b5;}.bx{fill:#d3c6b4;}.by{fill:#d2c5b3;}.bz{fill:#d2c4b2;}.ca{fill:#d1c3b1;}.cb{fill:#d1c3b0;}.cc{fill:#d0c2af;}.cd{fill:#d0c1ae;}.ce{fill:#cfc0ad;}.cf{fill:#cec0ac;}.cg{fill:#cebfab;}.ch{fill:#cdbeaa;}.ci{fill:#cdbda9;}.cj{fill:#ccbda8;}.ck{fill:#cbbca7;}.cl{fill:#cbbba6;}.cm{fill:#cabaa5;}.cn{fill:#cab9a4;}.co{fill:#c9b9a3;}.cp{fill:#c9b8a2;}.cq{fill:#c8b7a1;}.cr{fill:#c7b6a0;}.cs{fill:#c7b69f;}.ct{fill:#c6b59e;}.cu{fill:#c6b49d;}.cv{fill:#c5b39c;}.cw{fill:#c4b39b;}.cx{fill:#c4b29a;}.cy{fill:#c3b199;}.cz{fill:#c3b098;}.da{fill:#c2b097;}.db{fill:#c2af96;}.dc{fill:#c1ae95;}.dd{fill:#c0ad94;}.de{fill:#c0ac93;}.df{fill:#bfac92;}.dg{fill:#bfab91;}.dh{fill:#beaa90;}.di{fill:#bda98f;}.dj{fill:#bda98e;}.dk{fill:#bca88d;}.dl{fill:#bca78c;}.dm{fill:#bba68b;}.dn{fill:#baa68a;}.do{fill:#baa589;}.dp{fill:#b9a488;}.dq{fill:#b9a387;}.dr{fill:#b8a386;}.ds{fill:#b8a285;}.dt{fill:#b7a184;}.du{fill:#b6a083;}.dv{fill:#b69f82;}.dw{fill:#b59f81;}.dx{fill:#b59e80;}.dy{fill:#b49d7f;}.dz{fill:#b39c7e;}.ea{fill:#b39c7d;}.eb{fill:#b29b7c;}.ec{fill:#b29a7b;}.ed{fill:#b1997a;}.ee{fill:#b19979;}.ef{fill:#b09878;}.eg{fill:#af9777;}.eh{fill:#af9676;}.ei{fill:#ae9675;}.ej{fill:#ae9574;}.ek{fill:#ad9473;}.el{fill:url(#a);}.em{fill:url(#b);}.en{fill:url(#c);}.eo{fill:url(#d);}.ep{fill:url(#e);}.eq{fill:url(#f);}.er{fill:url(#g);}.es{fill:url(#h);}.et{fill:url(#i);}</style><linearGradient id="a" x1="13.292" y1="0.437" x2="13.292" y2="-0.558" gradientUnits="objectBoundingBox"><stop offset="0" stop-color="#fdee6f"/><stop offset="0.04" stop-color="#fdf46d"/><stop offset="0.3" stop-color="#fdff8a"/><stop offset="0.84" stop-color="#fdf56b"/><stop offset="0.88" stop-color="#fdee65"/></linearGradient><linearGradient id="b" y1="0.5" x2="1" y2="0.5" gradientUnits="objectBoundingBox"><stop offset="0" stop-color="#ad7a00"/><stop offset="1" stop-color="#fdee65"/></linearGradient><radialGradient id="c" cx="0.229" cy="1.169" r="0.819" gradientTransform="matrix(1.133, 0.148, -0.151, 0.881, 0.124, 0.095)" gradientUnits="objectBoundingBox"><stop offset="0" stop-color="#a2b2c5"/><stop offset="0.2" stop-color="#98a9bc"/><stop offset="0.54" stop-color="#7e92a2"/><stop offset="0.97" stop-color="#546c7a"/><stop offset="1" stop-color="#506976"/></radialGradient><radialGradient id="d" cx="-0.027" cy="0.714" r="0.825" gradientTransform="matrix(0.605, 0.736, -0.626, 0.643, 0.282, -0.072)" gradientUnits="objectBoundingBox"><stop offset="0.1" stop-color="#b2f18c"/><stop offset="0.13" stop-color="#a8ee7d"/><stop offset="0.2" stop-color="#8de756"/><stop offset="0.29" stop-color="#62db18"/><stop offset="0.32" stop-color="#52d600"/><stop offset="0.83" stop-color="#2c7400"/><stop offset="1" stop-color="#43b000"/></radialGradient><linearGradient id="e" x1="-120.265" y1="-35.708" x2="-121.086" y2="-35.61" gradientUnits="objectBoundingBox"><stop offset="0" stop-color="#2c7400"/><stop offset="0.32" stop-color="#52d600"/><stop offset="0.76" stop-color="#2c7400"/></linearGradient><radialGradient id="f" cx="-0.003" cy="1.414" r="0.619" gradientTransform="matrix(0.578, 0.768, -0.659, 0.609, 0.539, -0.191)" gradientUnits="objectBoundingBox"><stop offset="0.76" stop-color="#52d600"/><stop offset="1" stop-color="#2c7400"/></radialGradient><radialGradient id="g" cx="-0.414" cy="2.136" r="1.34" gradientTransform="matrix(0.58, 0.768, -0.66, 0.609, 0.737, 0.179)" gradientUnits="objectBoundingBox"><stop offset="0" stop-color="#b2f18c"/><stop offset="0.38" stop-color="#b2f18c"/><stop offset="0.48" stop-color="#a8ee7d"/><stop offset="0.66" stop-color="#8de756"/><stop offset="0.91" stop-color="#62db18"/><stop offset="1" stop-color="#52d600"/></radialGradient><radialGradient id="h" cx="-0.509" cy="1.565" r="1.501" gradientTransform="matrix(0.592, 0.736, -0.613, 0.643, 0.298, -0.024)" gradientUnits="objectBoundingBox"><stop offset="0" stop-color="#eafbe0"/><stop offset="0.96" stop-color="#b2f18c"/></radialGradient><radialGradient id="i" cx="-0.146" cy="1.257" r="0.757" gradientTransform="matrix(0.609, 0.762, -0.543, 0.49, 0.432, 0.037)" gradientUnits="objectBoundingBox"><stop offset="0" stop-color="#eafbe0"/><stop offset="0.96" stop-color="#4ecc00"/></radialGradient></defs><g transform="translate(-0.311 -0.004)"><g transform="translate(41.17 41.344)"><path class="a" d="M818.391,745.506c-93.943,2.868-268.254-1.527-461.88,4.626-115.4,3.516-231.037,10.362-347.018-3.886-6.714-20.124,19.071-603.381,30.6-637.706,115.348-3.516,209.923-.278,325.32-3.793S611.435,12.456,726.784,8.94C701.486,177.7,825.932,698.088,818.391,745.506Z" transform="translate(-8.394 -8.94)"/><path class="b" d="M39.663,107.619c115.543-3.562,210.021,0,325.126-3.238S610.616,12.646,725.964,9.13C700.715,177.89,824.383,697.4,816.842,744.678c-94.04,2.961-267.962-1.434-460.956,4.395-115.251,3.47-230.7,10.224-346.24-3.978C2.933,724.184,28.231,142.408,39.663,107.619Z" transform="translate(-7.867 -8.251)"/><path class="c" d="M39.487,106.93c115.738-3.655,210.118.786,324.931-2.683S610,12.836,725.253,9.32c-25.4,168.76,97.494,687.437,89.953,734.068-94.137,2.961-267.573-1.341-459.983,4.395-115.2,3.377-230.453,10.039-345.413-4.117C3.049,722.524,27.909,142,39.487,106.93Z" transform="translate(-7.35 -7.562)"/><path class="d" d="M39.052,106.241c115.981-3.7,210.264,1.342,324.785-2.174S609.226,13.026,724.38,9.51C699.13,178.316,821.241,696.068,813.7,742.7c-94.234,3.053-267.33-1.249-459.01,4.626-115.105,3.331-230.162,9.854-344.78-4.256C3.245,720.863,27.668,141.955,39.052,106.241Z" transform="translate(-6.915 -6.873)"/><path class="e" d="M38.536,105.506c116.175-3.7,210.361,1.9,324.591-1.573,115.105-3.516,245.194-90.718,360.3-94.233-25.006,168.76,96.326,685.725,88.786,731.8-94.332,3.146-266.989-1.156-458.037,4.626-115.008,3.285-229.87,9.715-344.1-4.349C3.363,719.2,27.347,141.729,38.536,105.506Z" transform="translate(-6.399 -6.184)"/><path class="f" d="M38.205,104.817c116.37-3.747,210.41,2.452,324.4-1.018,115.056-3.516,245-90.394,360.008-93.91C697.7,178.65,818.254,694.551,810.762,740.534c-94.478,3.146-266.746-1.064-457.307,4.626C238.5,748.4,123.829,754.69,10.086,740.534,3.664,717.5,27.259,141.5,38.205,104.817Z" transform="translate(-6.068 -5.495)"/><path class="g" d="M37.592,104.128c116.759-3.793,210.507,3.007,324.2-.463,115.105-3.516,245-90.07,359.813-93.586-24.811,168.76,94.964,684.013,87.569,729.442-94.575,3.238-266.406-.972-456.188,4.626C238.174,747.293,123.7,753.4,10.4,739.522,3.537,715.836,26.84,141.322,37.592,104.128Z" transform="translate(-5.455 -4.806)"/><path class="h" d="M37.217,103.476c116.759-3.886,210.6,3.516,324.007,0C476.134,99.96,605.786,13.73,720.7,10.26c-24.763,168.76,94.234,683.088,86.742,728.192-94.672,3.331-266.114-.879-455.215,4.626-114.716,3.146-229.043,9.252-341.861-4.626C3.989,714.212,26.66,141.132,37.217,103.476Z" transform="translate(-5.08 -4.154)"/><path class="i" d="M36.942,102.714c116.759-3.932,210.7,4.071,323.861.648C475.616,99.846,605.122,13.94,719.935,10.47,695.269,179.461,813.488,692.957,806,737.506c-94.769,3.331-265.822-.786-454.242,4.626-114.667,3.053-228.654,8.975-341.18-4.626C4.055,712.433,26.288,140.833,36.942,102.714Z" transform="translate(-4.513 -3.392)"/><path class="j" d="M36.6,102.025c117.148-3.978,210.8,4.626,323.666,1.157C475.035,99.712,604.394,14.13,719.159,10.66c-24.617,168.76,92.824,681.423,85.332,725.833-94.867,3.423-265.481-.694-453.269,4.626-114.57,2.961-228.653,8.789-340.548-4.95C4.252,710.772,26.047,140.607,36.6,102.025Z" transform="translate(-4.078 -2.703)"/><path class="k" d="M36.221,101.336c117.343-4.025,210.9,5.135,323.472,1.712,114.667-3.608,243.929-88.728,358.6-92.2-24.325,168.76,92.142,680.544,84.65,724.63-94.964,3.516-265.189-.6-452.442,4.626-114.521,2.914-228.216,8.6-339.721-5.089C4.452,709.112,26,140.38,36.221,101.336Z" transform="translate(-3.597 -2.014)"/><path class="l" d="M35.761,100.647c117.538-4.071,210.945,5.69,323.277,2.267,114.619-3.47,243.686-88.358,358.3-91.874C693.018,179.8,808.8,690.751,801.312,734.514c-95.061,3.516-264.849-.509-451.372,4.626C235.565,742.008,122.016,747.606,11,733.959,4.527,707.405,25.447,140.385,35.761,100.647Z" transform="translate(-3.04 -1.325)"/><path class="m" d="M35.4,99.958c117.732-4.117,211.042,6.245,323.082,2.822,114.57-3.516,243.492-87.9,358.062-91.55C692.223,179.99,807.28,690.062,799.788,733.5c-95.159,3.608-264.557-.416-450.4,4.626-114.278,2.822-227.632,8.281-338.261-5.32C4.706,705.745,24.993,139.974,35.4,99.958Z" transform="translate(-2.586 -0.636)"/><path class="n" d="M34.887,99.269c117.927-4.21,211.14,6.754,322.888,3.377,114.473-3.516,243.248-87.9,357.77-91.226-24.325,168.76,90.05,678,82.7,721.114-95.3,3.655-264.216-.37-449.426,4.626-114.229,2.729-227.389,8.1-337.531-5.459C4.919,704.084,24.768,139.748,34.887,99.269Z" transform="translate(-1.972 0.053)"/><path class="o" d="M34.609,98.58c118.121-4.256,211.237,7.309,322.693,3.932C471.727,99,600.551,15.126,714.781,11.61,690.5,180.37,804.15,688.823,796.658,731.522c-95.4,3.7-263.924,0-448.453,4.626-114.132,2.683-227.1,7.957-336.8-5.551C5.03,702.377,24.588,139.521,34.609,98.58Z" transform="translate(-1.597 0.742)"/><path class="p" d="M34.272,97.71c118.316-4.3,211.334,7.864,322.5,4.626C471.146,98.867,599.63,15.32,714.005,11.85c-23.936,168.575,88.64,676.1,81.148,718.478-95.5,3.793-263.633,0-447.577,4.626-114.035,2.637-226.853,7.772-336.072-5.69C5.228,700.536,24.347,139.114,34.272,97.71Z" transform="translate(-1.162 1.612)"/><path class="q" d="M33.86,97.166c118.511-4.349,211.383,8.373,322.3,5C470.637,98.693,598.829,15.47,713.107,12c-23.984,168.76,87.959,675.409,80.467,717.506-95.6,3.84-263.292,0-446.507,4.626-113.986,2.544-226.562,7.587-335.391-5.829C5.352,699.02,24.033,139.032,33.86,97.166Z" transform="translate(-0.653 2.156)"/><path class="r" d="M33.474,96.477c118.754-4.395,211.48,8.928,322.11,5.551,114.229-3.47,242.47-86.369,356.7-89.839-23.936,168.76,87.229,674.53,79.737,716.165-95.694,3.886-263,0-445.582,4.626-113.84,2.544-226.27,7.448-334.612-5.875C5.5,697.36,23.744,138.806,33.474,96.477Z" transform="translate(-0.169 2.845)"/><path class="s" d="M32.969,95.788c118.948-4.626,211.577,9.483,321.915,6.106C469.065,98.425,597.159,15.85,711.291,12.38c-23.838,168.76,86.548,673.651,79.348,715.286-95.84,3.978-262.708,0-444.658,4.626C232.189,734.744,120,739.555,12.1,726.278,5.53,695.653,23.336,138.626,32.969,95.788Z" transform="translate(0.433 3.534)"/><path class="t" d="M32.692,95.1c119.143-4.626,211.675,9.992,321.72,6.662C468.5,98.291,596.493,16.04,710.527,12.57c-23.741,168.76,85.867,672.772,78.423,713.944-95.937,4.025-262.416,0-443.685,4.626-113.694,2.359-225.686,7.078-333.153-6.153C5.837,693.993,23.156,138.4,32.692,95.1Z" transform="translate(0.808 4.223)"/><path class="u" d="M32.209,94.364c119.386-4.626,211.821,10.594,321.623,7.263,113.986-3.516,241.789-85.4,355.824-88.867C685.964,181.52,794.793,684.745,787.5,725.5c-96.035,4.071-262.076.278-442.712,4.626-113.6,2.359-225.443,6.893-332.472-6.245C5.939,692.332,22.869,138.173,32.209,94.364Z" transform="translate(1.338 4.912)"/><path class="v" d="M31.922,93.494c119.581-4.626,211.918,11.149,321.428,7.772C467.288,97.8,594.751,16.238,708.883,13c-23.6,168.528,84.456,670.783,77.012,711.307-96.132,4.163-261.784.74-441.739,4.626-113.548,2.5-225.151,6.708-331.742-6.384C6.09,690.444,22.679,137.9,31.922,93.494Z" transform="translate(1.723 5.782)"/><path class="w" d="M31.445,92.95c119.775-4.626,211.967,11.658,321.088,8.327,113.84-3.47,241.4-84.657,355.143-88.127-23.255,168.76,84.018,670.089,76.575,710.336-96.229,4.21-261.443.833-440.815,4.626-113.4,2.452-224.859,6.523-330.818-6.523C6.244,688.929,22.3,137.684,31.445,92.95Z" transform="translate(2.298 6.326)"/><path class="x" d="M31.12,92.334c119.97-4.626,212.064,12.213,321.088,8.882C466,97.746,593.413,16.882,707.35,13.32c-23.644,168.852,82.85,669.3,75.407,709.226-96.326,4.256-261.151.971-439.842,4.626-113.305,2.406-224.567,6.384-330.234-6.615C6.5,687.248,22.071,137.53,31.12,92.334Z" transform="translate(2.72 6.942)"/><path class="y" d="M30.761,91.717c120.165-4.626,212.161,12.722,320.845,9.252,113.743-3.47,240.962-84.01,354.7-87.479-23.352,168.76,82.364,668.516,74.92,707.791-96.424,4.349-260.811,1.064-438.869,4.626-113.256,2.359-224.324,6.2-329.553-6.754C6.68,685.707,21.81,137.423,30.761,91.717Z" transform="translate(3.176 7.559)"/><path class="z" d="M30.359,90.883c120.359-4.626,212.259,13.277,320.65,9.992C464.654,97.406,591.776,17.19,705.47,13.72c-23.3,168.76,81.634,667.452,74.191,706.774-96.521,4.395-260.519,1.157-437.847,4.626-113.159,2.267-224.032,6.014-328.823-6.893C6.812,683.9,21.5,137.051,30.359,90.883Z" transform="translate(3.676 8.393)"/><path class="aa" d="M30,90.194c120.554-4.626,212.356,13.878,320.455,10.547,113.6-3.47,240.573-83.27,354.17-86.832-23.157,168.76,80.953,666.8,73.51,705.571-96.618,4.626-260.227,1.249-436.923,4.626-113.062,2.267-223.788,5.875-328.093-6.939C6.991,682.241,21.245,136.825,30,90.194Z" transform="translate(4.13 9.082)"/><path class="ab" d="M29.567,89.505c120.748-4.9,212.4,14.341,320.261,11.1C463.376,97.138,590.206,17.57,703.705,14.1c-23.06,168.76,80.272,666.157,72.974,704.368-96.716,4.626-259.887,1.388-436,4.626-112.965,2.22-223.448,5.69-327.364-7.078C7.139,680.534,20.907,136.6,29.567,89.505Z" transform="translate(4.662 9.771)"/><path class="ac" d="M29.184,88.816c120.943-4.95,212.5,14.9,320.066,11.611C462.75,97,589.385,17.76,702.885,14.29c-23.011,168.76,79.542,665.093,72.1,703.165-96.862,4.626-259.595,1.434-435.025,4.626-112.867,2.128-223.2,5.505-326.634-7.217C7.535,679.105,20.67,136.372,29.184,88.816Z" transform="translate(5.142 10.46)"/><path class="ad" d="M28.9,88.091c121.138-5,212.6,15.451,319.872,12.167,113.4-3.47,239.94-82.344,353.343-85.768C679.2,183.388,780.973,678.7,773.53,716.453c-96.959,4.626-259.254,1.573-434.052,4.626-112.77,2.128-222.913,5.366-325.953-7.309C7.541,677.177,20.481,136.11,28.9,88.091Z" transform="translate(5.526 11.185)"/><path class="ae" d="M28.46,87.4c121.332-5.089,212.7,15.96,319.677,12.722C461.491,96.654,587.883,18.1,701.188,14.68c-22.817,168.76,78.18,663.335,70.737,700.76-97.056,4.626-258.962,1.712-432.982,4.857-112.721,2.036-222.67,5.181-325.174-7.448C7.638,675.47,20.141,135.93,28.46,87.4Z" transform="translate(6.061 11.874)"/><path class="af" d="M28.149,86.713c121.624-5.135,212.794,16.515,319.482,13.277,113.305-3.47,239.551-81.7,352.807-85.12-22.865,168.76,77.45,662.5,70.055,699.6-97.3,4.626-258.67,1.758-432.155,4.857-112.624,1.989-222.378,5-324.493-7.587C7.862,673.81,19.928,135.75,28.149,86.713Z" transform="translate(6.469 12.563)"/><path class="ag" d="M27.763,85.988c121.624-5.181,212.891,17.07,319.336,13.878,113.159-3.47,239.308-81.373,352.467-84.8C676.9,183.83,776.384,676.6,768.941,713.609c-97.3,4.626-258.378,1.9-431.231,4.857C225.183,720.456,115.624,723.093,14,710.787,8.06,672.113,19.639,135.441,27.763,85.988Z" transform="translate(6.952 13.288)"/><path class="ah" d="M27.393,85.335c121.916-5.227,212.94,17.579,319.142,14.387,113.111-3.47,239.065-81,352.224-84.472C676.136,184.01,774.846,676.04,767.4,712.633c-97.3,4.857-257.843,1.943-430.258,4.857-112.429,1.9-221.794,4.626-322.985-7.818C8.225,670.489,19.365,135.251,27.393,85.335Z" transform="translate(7.42 13.941)"/><path class="ai" d="M26.966,84.646C149.076,79.373,240,102.781,345.913,99.542c113.062-3.423,238.87-80.633,351.932-84.1C675.32,184.2,773.252,675.4,765.954,711.481c-97.3,4.95-257.843,2.082-429.285,4.9-112.332,1.85-221.5,4.626-322.255-7.911C8.333,668.782,19.036,135.024,26.966,84.646Z" transform="translate(7.944 14.63)"/><path class="aj" d="M26.592,83.957c122.305-5.32,213.134,18.5,318.753,15.451C458.309,95.985,584.02,19.1,696.985,15.63c-22.428,168.76,74.726,659.079,67.282,694.838-97.591,5-257.454,2.174-428.117,4.95-112.283,1.758-221.259,4.256-321.574-8.049C8.494,667.122,18.857,134.844,26.592,83.957Z" transform="translate(8.415 15.319)"/><path class="ak" d="M26.32,83.077c122.5-5.366,213.232,19.245,318.558,16.053,112.916-3.423,238.383-79.985,351.4-83.27-22.379,168.76,74,658.246,66.553,693.913-97.689,5.042-257.114,2.267-427.339,4.9-112.186,1.758-220.967,4.117-320.845-8.142C8.758,665.316,18.488,134.473,26.32,83.077Z" transform="translate(8.785 16.153)"/><path class="al" d="M25.929,82.569c122.694-5.413,213.329,19.8,318.363,16.7C457.16,95.846,582.676,19.608,695.4,16c-22.282,168.76,73.315,657.321,65.872,692.433-97.786,5.135-256.822,2.359-426.414,4.95-111.894,1.712-220.675,3.932-320.066-8.281C8.951,663.652,18.34,134.428,25.929,82.569Z" transform="translate(9.273 16.66)"/><path class="am" d="M25.521,81.808c122.938-5.459,213.426,20.355,318.218,17.163,112.77-3.47,238.14-79.106,350.813-82.761C672.367,184.97,767.185,672.7,759.742,707.44c-97.883,5.181-256.481,2.5-425.441,5-111.894,1.619-220.383,3.747-319.336-8.419C9.126,662.058,18.077,134.129,25.521,81.808Z" transform="translate(9.73 17.422)"/><path class="an" d="M25.233,81.119c123.278-5.505,213.523,20.864,317.877,17.718C455.832,95.367,580.959,19.823,693.68,16.4c-22.136,168.76,71.9,655.609,64.461,690.074-97.981,5.228-256.189,2.544-424.469,4.95-111.894,1.619-220.14,3.608-318.655-8.512C9.374,660.4,17.887,133.9,25.233,81.119Z" transform="translate(10.115 18.111)"/><path class="ao" d="M24.826,80.43c123.181-5.551,213.621,21.326,317.78,18.227C455.278,95.233,580.259,20.013,692.883,16.59c-22.038,168.76,71.223,654.776,63.78,688.871-98.078,5.32-255.849,2.683-423.5,5-111.894,1.527-219.848,3.423-317.926-8.651C9.55,658.691,17.577,133.676,24.826,80.43Z" transform="translate(10.619 18.8)"/><path class="ap" d="M24.3,79.741c123.522-5.6,213.718,21.974,317.682,18.782C454.553,95.1,579.437,20.2,692.255,16.78c-21.941,168.76,70.493,653.9,63.245,687.668-98.175,5.366-255.557,2.776-422.522,5.042-111.894,1.48-219.6,3.238-317.2-8.789C9.555,657.031,17.144,133.45,24.3,79.741Z" transform="translate(11.247 19.489)"/><path class="aq" d="M24.044,79.052C147.76,73.362,238.1,101.535,341.483,98.389c112.527-3.423,237.216-78,349.743-81.419-21.844,168.76,69.812,653.065,62.369,686.511-98.321,5.413-255.265,2.868-421.6,5-111.6,1.434-219.264,3.1-316.223-8.836C9.838,655.509,16.99,133.27,24.044,79.052Z" transform="translate(11.596 20.177)"/><path class="ar" d="M23.771,78.363c123.911-5.736,214.059,23.13,317.245,19.892,112.478-3.423,237.021-77.672,349.451-81.1C668.72,185.92,759.6,669.438,752.154,702.469c-98.418,5.505-254.924,2.961-420.625,5.042-111.554,1.388-218.924,2.914-315.736-8.975C10.1,653.663,16.863,133.043,23.771,78.363Z" transform="translate(11.966 20.866)"/><path class="as" d="M23.429,77.638c124.105-5.783,214.059,23.593,317.1,20.447,112.332-3.423,236.778-77.3,349.159-80.725-21.7,168.76,68.4,651.307,60.958,684.06-98.516,5.551-254.632,3.1-419.652,5.089-111.456,1.3-218.923,2.729-315.007-9.252C10.293,651.967,16.618,132.781,23.429,77.638Z" transform="translate(12.406 21.592)"/><path class="at" d="M23.117,76.949c124.3-5.829,214.059,24.1,316.9,21C452.3,94.528,576.6,20.973,688.888,17.55c-21.6,168.621,67.72,650.474,60.18,682.9-98.661,5.6-254.34,3.146-418.728,5.042-111.359,1.3-218.486,2.591-314.277-9.252C10.566,650.306,16.4,132.555,23.117,76.949Z" transform="translate(12.814 22.281)"/><path class="au" d="M22.741,76.26C147.235,70.385,236.8,100.917,339.45,97.771,451.685,94.348,575.79,21.163,688.025,17.74c-21.5,168.76,67.039,649.6,59.645,681.7-98.759,5.69-254.049,3.285-417.755,5.089-111.31,1.249-218.194,2.406-313.547-9.252C10.724,648.646,16.124,132.328,22.741,76.26Z" transform="translate(13.288 22.97)"/><path class="av" d="M22.426,75.571C147.115,69.6,236.484,100.783,338.941,97.637,451.078,94.214,575.086,21.353,687.272,17.93c-21.455,168.76,66.31,648.763,58.915,680.5-98.856,5.736-253.708,3.377-416.83,5.135-111.164,1.157-217.9,2.221-312.817-9.252C10.944,646.939,15.907,132.148,22.426,75.571Z" transform="translate(13.7 23.659)"/><path class="aw" d="M22.091,74.882C146.974,68.868,236.441,100.6,338.314,97.5c111.894-3.423,235.951-75.96,348.04-79.384C665,186.88,751.982,665.772,744.733,697.461c-98.953,5.783-253.416,3.47-415.857,5.089-111.116,1.156-217.61,2.036-312.088-9.576C11.144,645.279,15.669,131.922,22.091,74.882Z" transform="translate(14.133 24.347)"/><path class="ax" d="M21.769,74.229c125.078-6.06,214.448,26.276,316.223,23.13,111.894-3.423,235.756-75.637,347.8-79.06-21.163,168.806,64.8,647.1,57.406,678.184-99.051,5.875-252.978,3.562-414.884,5.135-111.019,1.064-217.318,1.85-311.358-9.715C11.407,643.654,15.445,131.732,21.769,74.229Z" transform="translate(14.552 25)"/><path class="ay" d="M21.47,73.432c125.273-6.106,214.5,26.831,315.931,23.732C449.3,93.74,572.963,21.851,684.906,18.52c-21.211,168.76,64.218,646.172,56.823,676.936-99.148,5.921-252.978,3.7-413.911,5.181C216.9,701.654,110.743,702.3,17.141,690.783,11.643,641.839,15.243,131.4,21.47,73.432Z" transform="translate(14.948 25.798)"/><path class="az" d="M21.141,72.779c125.468-6.153,214.545,27.34,315.736,24.287C448.772,93.643,572.2,22.077,684.09,18.7c-21.114,168.713,63.536,645.293,56.142,675.733-99.245,5.968-252.492,3.747-412.938,5.135-110.873.972-216.783,1.527-309.947-9.9C11.9,640.215,15.06,131.114,21.141,72.779Z" transform="translate(15.375 26.451)"/><path class="ba" d="M20.863,72.044C146.525,65.891,235.554,99.8,336.4,96.932,448.3,93.509,571.529,22.267,683.374,18.89c-21.065,168.76,62.758,644.46,55.412,674.53-99.343,6.06-252.151,3.886-412.014,5.181-110.727.925-216.491,1.342-309.169-10.039C12.106,638.554,14.879,130.98,20.863,72.044Z" transform="translate(15.75 27.14)"/><path class="bb" d="M20.577,71.355c125.857-6.384,214.788,28.5,315.347,25.4C447.818,93.375,570.853,22.457,682.6,19.08c-20.968,168.76,62.126,643.581,54.731,673.373-99.44,6.06-251.859,3.932-411.041,5.181-110.629.833-216.2,1.156-308.439-10.177C12.355,636.848,14.69,130.8,20.577,71.355Z" transform="translate(16.133 27.829)"/><path class="bc" d="M20.476,70.63c125.857-6.384,214.691,29.006,314.958,26C447.328,93.251,570.168,22.611,681.819,19.28c-20.871,168.76,61.444,642.749,54.05,672.17-99.537,6.153-251.519,4.071-410.068,5.181-110.581.833-215.956,1.018-307.758-10.27C12.643,635.151,14.492,130.537,20.476,70.63Z" transform="translate(16.526 28.554)"/><path class="bd" d="M20.067,69.977C146.557,63.639,235.05,99.538,335.123,96.484c111.6-3.423,234.443-73.6,346.094-77.024-20.822,168.76,60.715,641.87,53.515,670.783-99.635,6.245-251.227,4.163-409.1,5.227-110.483.74-215.664.833-307.028-10.409C12.867,633.527,14.278,130.347,20.067,69.977Z" transform="translate(16.935 29.206)"/><path class="be" d="M19.8,69.288C146.285,62.9,234.828,99.358,334.608,96.351c111.554-3.423,234.248-73.277,345.8-76.7-20.725,168.76,60.034,641.037,52.639,669.811-99.78,6.245-250.935,4.21-408.122,5.227-110.435.694-215.421.648-306.493-10.547C13.228,631.913,14.2,130.121,19.8,69.288Z" transform="translate(17.206 29.895)"/><path class="bf" d="M19.461,68.49C145.95,62.06,234.638,99.115,334.127,96.247,445.583,92.823,568.18,23.293,679.54,19.87c-20.628,168.76,59.3,640.158,51.909,668.609-99.878,6.338-250.594,4.349-407.2,5.227-110.289.648-215.08.509-305.52-10.64C13.525,630.051,14.061,129.786,19.461,68.49Z" transform="translate(17.541 30.693)"/><path class="bg" d="M19.111,67.91C145.99,61.433,234.386,99.09,333.583,96.083,444.991,92.66,567.442,23.453,679,20.03c-20.53,168.76,58.623,639.325,51.277,667.406-100.024,6.43-250.351,4.626-406.274,5.274-110.192.6-214.837.324-304.839-10.779C13.857,628.5,13.906,129.668,19.111,67.91Z" transform="translate(17.891 31.273)"/><path class="bh" d="M18.981,67.185c127.073-6.569,215.372,31.689,314.277,28.682C444.617,92.489,566.776,23.607,678.233,20.23c-20.433,168.76,57.942,638.4,50.6,666.157-100.121,6.43-250.011,4.626-405.3,5.274-110.143.509-214.545,0-304.109-10.871C14.116,626.8,13.873,129.452,18.981,67.185Z" transform="translate(18.264 31.999)"/><path class="bi" d="M18.838,66.5c127.268-6.615,215.469,32.383,314.082,29.237C444.182,92.356,566.439,23.8,677.652,20.42c-20.384,168.76,57.212,637.567,49.866,665-100.218,6.523-249.719,4.626-404.327,5.32-110.046.463-214.059,0-303.379-11.01C14.508,625.1,13.633,129.226,18.838,66.5Z" transform="translate(18.504 32.687)"/><path class="bj" d="M18.617,65.807C146.079,59.145,234.135,98.606,332.5,95.6c111.213-3.377,233.227-71.612,344.44-74.989-20.287,168.76,56.385,636.735,49.185,663.8-100.316,6.615-249.378,4.626-403.354,5.32-109.948.416-214.059,0-302.65-11.1C14.822,623.435,13.606,128.814,18.617,65.807Z" transform="translate(18.823 33.376)"/><path class="bk" d="M18.423,65.118C146.08,58.41,234.039,98.426,332.116,95.465,443.281,92.088,565.148,24.177,676.264,20.8c-20.19,168.76,55.85,635.856,48.65,662.641-100.413,6.615-249.086,4.626-402.381,5.32-109.9.37-213.767-.416-301.969-11.241C15.212,621.775,13.51,128.773,18.423,65.118Z" transform="translate(19.114 34.065)"/><path class="bl" d="M18.268,64.429c127.851-6.754,215.713,33.863,313.5,30.9C442.834,91.954,564.6,24.367,675.671,20.99c-20.141,168.76,55.12,635.023,47.774,661.531-100.51,6.708-248.746,4.9-401.457,5.366-109.754.278-213.426-.6-301.19-11.38C15.593,620.068,13.452,128.547,18.268,64.429Z" transform="translate(19.366 34.754)"/><path class="bm" d="M18.119,63.74c128.046-6.847,215.81,34.418,313.3,31.457,111.019-3.423,232.594-70.64,343.613-74.017-20.044,168.76,54.439,634.144,47.093,660.235-100.607,6.8-248.454,5-400.484,5.366-109.705.278-213.134-.74-300.46-11.473C15.978,618.408,13.4,128.366,18.119,63.74Z" transform="translate(19.613 35.443)"/><path class="bn" d="M17.981,63.051c128.241-6.893,215.907,34.927,313.109,31.966C442.06,91.64,563.49,24.793,674.411,21.37c-19.946,168.76,53.758,633.311,46.412,659.079-100.7,6.8-248.113,5.089-399.511,5.366-109.608,0-212.891-.925-299.731-11.611C16.376,616.747,13.36,128.14,17.981,63.051Z" transform="translate(19.848 36.132)"/><path class="bo" d="M17.819,62.326c128.435-6.939,215.956,35.482,312.915,32.383,110.873-3.238,232.2-69.761,342.932-73.138-19.9,168.713,53.028,632.386,45.682,657.83-100.8,6.893-247.821,5.181-398.538,5.413-109.316.278-212.453-1.11-299.05-11.75C16.895,615,13.344,127.877,17.819,62.326Z" transform="translate(20.107 36.857)"/><path class="bp" d="M17.718,61.637c128.63-6.985,216.053,36.037,312.769,33.077C441.262,91.336,562.449,25.322,673.224,21.76c-19.8,168.76,52.347,631.553,45,656.627-100.9,6.985-247.53,5.32-397.565,5.412C211.2,683.8,108.3,682.55,22.34,671.957,17.232,613.344,13.34,127.651,17.718,61.637Z" transform="translate(20.305 37.546)"/><path class="bq" d="M17.615,60.9c128.824-6.985,216.15,36.592,312.574,33.678C440.916,91.2,561.956,25.188,672.683,21.95,652.931,190.71,724.3,652.625,716.954,677.42c-101,6.985-247.189,5.366-396.641,5.412C211,682.833,108.3,681.4,22.772,670.9,17.664,611.684,13.334,127.425,17.615,60.9Z" transform="translate(20.506 38.235)"/><path class="br" d="M17.521,60.213C146.54,53.181,233.769,97.221,329.9,94.446,440.53,91.069,561.424,25.517,672.1,22.14c-19.46,168.76,50.936,629.842,43.785,654.268-101.191,7.078-247.14,5.459-395.862,5.459-109.219,0-211.772-1.619-296.763-12.074C18.1,609.977,13.337,127.2,17.521,60.213Z" transform="translate(20.697 38.924)"/><path class="bs" d="M17.438,59.524c129.214-7.124,216.345,37.7,312.185,34.788,110.581-3.377,231.329-68.6,341.91-71.982-19.46,168.76,50.255,629.148,42.909,653.065-101.24,7.17-246.557,5.6-394.695,5.459-109.17,0-211.48-1.758-296.131-12.167C18.557,608.317,13.351,127.2,17.438,59.524Z" transform="translate(20.878 39.613)"/><path class="bt" d="M17.357,58.835c129.408-7.17,216.442,38.211,311.99,35.3C439.879,90.8,560.482,25.9,671.014,22.52c-19.46,168.76,49.525,628.13,42.228,651.908-101.386,7.17-246.313,5.644-393.77,5.459-108.927-.139-211.091-1.943-295.4-12.12C19.06,606.656,13.368,126.792,17.357,58.835Z" transform="translate(21.056 40.302)"/><path class="bu" d="M17.289,58.146C147.135,50.929,233.78,96.912,329.085,94c110.483-3.377,230.94-67.911,341.375-71.288-19.46,168.76,48.65,627.3,41.547,650.706-101.483,7.263-246.021,5.736-392.8,5.505-109.024,0-210.945-2.128-294.671-12.444C19.527,605,13.4,126.566,17.289,58.146Z" transform="translate(21.221 40.991)"/><path class="bv" d="M17.2,57.421c129.895-7.263,216.637,39.322,311.65,36.407,110.386-3.377,230.7-67.587,341.083-70.918-19.46,168.713,48.163,626.372,40.866,649.456-101.581,7.355-245.681,5.829-391.873,5.505C210.24,677.64,108.076,675.6,25.031,665.335,20.02,603.253,13.452,126.3,17.2,57.421Z" transform="translate(21.36 41.716)"/><path class="bw" d="M17.142,56.7C147.231,49.386,233.876,96.526,328.5,93.7,438.837,90.327,559,26.441,669.339,23.11c-19.217,168.76,47.482,625.539,40.136,648.3-101.678,7.355-245.389,5.921-390.9,5.505-108.781-.278-210.361-2.452-293.212-12.675C20.352,601.556,13.541,126.04,17.142,56.7Z" transform="translate(21.515 42.442)"/><path class="bx" d="M17.079,56.043C147.363,48.687,233.911,96.428,328.437,93.56c110.289-3.377,230.308-66.94,340.548-70.27-19.119,168.76,46.8,624.522,39.455,647.1-101.775,7.448-245.048,6.014-389.927,5.551-108.732-.37-210.118-2.637-292.482-12.814C21.02,599.932,13.577,125.85,17.079,56.043Z" transform="translate(21.674 43.094)"/><path class="by" d="M17.037,55.354C147.515,47.906,234.112,96.295,328.1,93.426,438.294,90.049,558.216,26.857,668.651,23.48c-19.071,168.76,46.071,623.828,38.92,645.941-101.872,7.494-244.756,6.06-388.954,5.505-108.635-.416-209.826-2.822-291.9-12.861C21.513,598.225,13.631,125.67,17.037,55.354Z" transform="translate(21.814 43.783)"/><path class="bz" d="M17,54.483c130.673-7.494,216.978,41.635,310.871,38.628C438.016,89.734,557.791,26.866,667.885,23.72c-18.973,168.528,45.39,622.718,38,644.322-102.164,7.541-244.416,6.2-387.981,5.551-108.537-.463-209.583-3.007-291.071-13C22.012,596.383,13.693,125.263,17,54.483Z" transform="translate(21.947 44.654)"/><path class="ca" d="M16.969,54.085c130.868-7.541,217.075,42,310.677,39.137C437.74,89.891,557.321,27.346,667.366,23.83c-18.876,168.76,44.709,622.116,37.363,643.535-102.164,7.633-244.124,6.291-387.057,5.6-108.44-.555-209.194-3.192-290.293-13.138C22.515,595.013,13.758,125.326,16.969,54.085Z" transform="translate(22.077 45.052)"/><path class="cb" d="M16.94,53.287C148,45.7,234.112,95.847,327.471,92.979,437.419,89.648,556.9,27.427,666.9,24.05c-18.827,168.76,43.785,621.284,36.633,642.379-102.164,7.679-243.832,6.338-386.084,5.551-108.343-.555-208.95-3.331-289.563-13.231C23.021,593.2,13.827,124.991,16.94,53.287Z" transform="translate(22.202 45.85)"/><path class="cc" d="M16.913,52.6C148.268,44.965,234.183,95.667,327.25,92.845c109.9-3.331,229.237-65.089,339.332-68.6-18.73,168.76,43.3,620.4,35.952,641.176-102.164,7.726-243.248,6.477-385.111,5.6-108.294-.648-208.707-3.516-288.833-13.369C23.578,591.537,13.9,124.9,16.913,52.6Z" transform="translate(22.326 46.539)"/><path class="cd" d="M16.876,51.873C148.23,44.147,234.243,95.5,327.018,92.675,436.869,89.3,556.061,27.91,665.863,24.44,647.23,193.153,708.48,643.966,701.134,664.367c-102.164,7.818-243.249,6.569-384.333,5.644-108.2-.694-208.415-3.7-288.152-13.508C24.271,589.84,14.006,124.5,16.876,51.873Z" transform="translate(22.461 47.264)"/><path class="ce" d="M16.864,51.184C148.51,43.412,234.329,95.363,326.811,92.541c109.754-3.377,228.653-64.765,338.6-67.911C646.829,193.39,707.3,643.277,699.954,663.4,597.5,671.265,457.1,670.016,316.79,669.044c-108.1-.786-208.172-3.886-287.422-13.878C24.6,588.134,14.091,124.322,16.864,51.184Z" transform="translate(22.57 47.953)"/><path class="cf" d="M16.821,50.495c131.841-7.818,217.513,44.688,309.752,41.912C436.278,89.03,555.227,28.151,664.883,24.82,646.4,193.58,706.089,642.634,698.938,662.387,596.384,670.3,456.371,669.1,316.7,668.031c-108-.833-207.831-4.025-286.644-13.878C25.091,586.473,14.291,124.1,16.821,50.495Z" transform="translate(22.711 48.642)"/><path class="cg" d="M16.846,49.76C148.882,41.941,234.456,95.049,326.4,92.227,436.061,88.9,555.058,28.341,664.471,25.01c-18.438,168.76,40.477,616.935,33.179,636.365-102.7,8-242.275,6.847-381.316,5.69-107.9-.879-207.588-4.21-285.914-13.878C25.7,584.72,14.219,123.869,16.846,49.76Z" transform="translate(22.783 49.331)"/><path class="ch" d="M16.828,49.071c132.23-7.864,217.707,45.845,309.363,43.023C435.75,88.762,554.407,28.531,663.966,25.2c-18.341,168.76,39.8,616.1,32.5,635.208-102.845,8.049-241.984,6.893-380.343,5.69-107.808-.971-207.3-4.626-285.233-13.878C26.217,583.152,14.347,123.643,16.828,49.071Z" transform="translate(22.899 50.02)"/><path class="ci" d="M16.821,48.382c132.424-7.911,217.8,46.261,309.169,43.578C435.5,88.629,553.962,28.721,663.473,25.39c-18.244,168.76,38.92,615.27,31.817,634.005-102.943,8.1-241.692,6.985-379.467,5.69-107.759-.972-207.053-4.626-284.5-13.878C26.746,581.446,14.437,123.417,16.821,48.382Z" transform="translate(23.003 50.709)"/><path class="cj" d="M16.816,47.693c132.619-8,217.9,46.909,308.974,44.133C435.252,88.495,553.568,28.957,663.03,25.58c-18.146,168.76,38.385,614.391,31.087,632.8-103.04,8.188-241.351,7.078-378.4,5.736-107.662-1.064-206.761-4.626-283.774-14.2C27.276,579.785,14.53,123.19,16.816,47.693Z" transform="translate(23.105 51.398)"/><path class="ck" d="M16.813,46.967c132.814-8.049,217.951,47.417,308.78,44.688C434.957,88.325,553.175,29.111,662.54,25.78c-18.049,168.713,37.7,613.512,30.406,631.6-103.137,8.234-241.059,7.124-377.473,5.736-107.564-1.157-206.469-4.9-283-14.341C27.856,578.089,14.623,122.974,16.813,46.967Z" transform="translate(23.206 52.123)"/><path class="cl" d="M16.806,46.279c133.106-8.1,218.048,47.973,308.585,45.243C434.706,88.191,552.779,29.3,662.046,25.97c-17.952,168.76,37.022,612.633,29.725,630.4-103.235,8.327-240.719,7.263-376.5,5.736C207.8,660.947,109.094,657.015,33.1,647.67,28.287,576.613,14.762,122.748,16.806,46.279Z" transform="translate(23.31 52.812)"/><path class="cm" d="M16.789,45.59c133.057-8.142,218.194,48.528,308.488,45.752C434.5,88.011,552.422,29.491,661.64,26.16c-17.9,168.76,36.293,611.8,29.19,629.148C587.5,663.681,450.4,662.663,315.3,661.091c-107.37-1.249-205.934-5.274-281.584-14.572C28.951,574.721,14.892,122.568,16.789,45.59Z" transform="translate(23.375 53.501)"/><path class="cn" d="M16.792,44.828c133.446-8.188,218.291,49.222,308.1,46.307C434.012,87.8,551.793,29.608,660.963,26.37c-17.806,168.76,35.612,610.921,28.314,628.038-103.429,8.42-240.086,7.4-374.6,5.783-107.321-1.342-205.642-5.459-280.855-14.711C29.49,572.989,14.992,122.223,16.792,44.828Z" transform="translate(23.469 54.263)"/><path class="co" d="M16.8,44.393c133.641-8.234,218.388,49.592,308,46.862,109.073-3.331,226.707-61.2,335.683-64.765-17.514,168.9,35.125,610.32,27.828,626.881-103.526,8.512-239.794,7.494-373.581,5.783-107.029-1.342-205.4-5.6-280.125-14.8C30.03,571.536,15.094,122.25,16.8,44.393Z" transform="translate(23.562 54.698)"/><path class="cp" d="M16.8,43.523C150.638,35.2,235.288,93.669,324.706,90.94,433.73,87.609,551.219,30.061,660.389,26.73c-17.66,168.76,34.055,609.21,26.9,625.632-103.624,8.558-239.5,7.587-372.656,5.829-107.029-1.434-205.058-5.783-279.4-14.9C30.619,569.694,15.2,121.889,16.8,43.523Z" transform="translate(23.653 55.568)"/><path class="cq" d="M16.81,42.834c134.03-8.373,218.534,50.887,307.709,47.973C433.494,87.475,550.837,30.251,659.764,26.92,642.2,195.68,693.284,635.3,685.986,651.442c-103.721,8.6-239.162,7.679-371.684,5.829-107.029-1.527-204.766-5.968-278.665-15.035C31.162,568.033,15.3,121.662,16.81,42.834Z" transform="translate(23.743 56.257)"/><path class="cr" d="M16.819,42.109C151.043,33.689,235.45,93.319,324.528,90.636,433.406,87.305,550.6,30.5,659.529,27.12c-17.514,168.713,32.79,607.452,25.492,623.227-103.818,8.7-238.87,7.772-370.711,5.829-107.029-1.527-204.329-6.107-277.936-15.127C31.705,566.291,15.408,121.4,16.819,42.109Z" transform="translate(23.832 56.982)"/><path class="cs" d="M16.828,41.42c134.419-8.466,218.924,51.766,307.32,49.037,108.829-3.285,225.88-59.862,334.71-63.146-17.417,168.76,32.109,606.619,24.811,622.07-103.916,8.7-238.383,7.818-369.737,5.829C206.9,653.59,109.6,648.917,36.629,639.943,32.25,564.63,15.515,121.173,16.828,41.42Z" transform="translate(23.92 57.671)"/><path class="ct" d="M16.835,40.731C151.449,32.219,235.759,93.005,323.96,90.322,432.741,87.038,549.646,30.785,658.378,27.5,641.059,196.26,689.806,633.517,682.7,648.367c-104.013,8.79-238.383,7.911-368.765,5.875-106.786-1.712-203.988-6.476-276.525-15.4C32.841,562.97,15.668,120.947,16.835,40.731Z" transform="translate(24.01 58.36)"/><path class="cu" d="M16.847,40.042c134.808-8.6,218.924,52.83,306.931,50.147,108.683-3.331,225.491-59.168,334.175-62.5-17.271,168.76,30.7,604.907,23.449,619.9-104.159,8.882-237.946,8-367.889,5.875-106.64-1.712-203.648-6.615-275.746-15.5C33.388,561.124,15.777,120.721,16.847,40.042Z" transform="translate(24.095 59.049)"/><path class="cv" d="M16.86,39.208c135-8.651,218.924,53.385,306.736,50.887,108.635-3.331,225.3-58.844,333.883-62.175C640.306,196.68,687.5,631.995,680.247,646.428c-104.3,8.882-237.654,8.049-366.916,5.875-106.591-1.8-203.4-6.8-275.017-15.636C33.936,559.458,15.887,120.4,16.86,39.208Z" transform="translate(24.18 59.883)"/><path class="cw" d="M16.874,38.617c135.2-8.651,218.924,53.94,306.493,51.3C431.953,86.59,548.42,31.4,657.006,28.07c-17.125,168.76,29.19,603.2,22.038,617.305-104.4,8.975-237.362,8.188-365.943,5.921-106.494-1.9-203.112-6.985-274.336-15.775C34.485,557.942,16,120.268,16.874,38.617Z" transform="translate(24.263 60.427)"/><path class="cx" d="M16.888,37.929c135.392-8.7,219.167,54.5,306.493,51.858C431.87,86.456,548.24,31.591,656.729,28.26c-17.027,168.76,28.606,602.363,21.357,616.1-104.5,9.252-237.021,8.281-364.873,5.921-106.4-1.9-202.869-7.124-273.606-15.821C35.083,556.282,16.11,120.088,16.888,37.929Z" transform="translate(24.346 61.116)"/><path class="cy" d="M16.9,37.24C152.491,28.5,236.363,92.29,323.1,89.607,431.5,86.507,547.721,31.781,656.112,28.45c-16.93,168.76,27.925,601.391,20.676,614.946-104.6,9.252-236.729,8.327-364,5.921-106.348-1.989-202.577-7.309-272.876-15.96C35.634,554.575,16.223,119.861,16.9,37.24Z" transform="translate(24.428 61.805)"/><path class="cz" d="M16.92,36.514C152.7,27.725,236.281,92.027,322.926,89.437c108.343-3.285,224.421-57.5,332.764-60.787-16.833,168.713,27.2,600.605,19.946,613.7-104.694,9.252-236.389,8.42-363.072,5.968-106.2-2.082-202.285-7.541-272.1-16.1C36.185,553.017,16.336,119.6,16.92,36.514Z" transform="translate(24.509 62.53)"/><path class="da" d="M16.936,35.825C153.155,26.943,236.394,91.94,322.747,89.3,430.993,86.018,546.925,32.125,655.219,28.84c-16.735,168.76,26.514,599.726,19.46,612.494-104.791,9.252-236.1,8.512-362.1,5.968-106.154-2.082-201.993-7.679-271.417-16.191C36.736,551.218,16.5,119.373,16.936,35.825Z" transform="translate(24.591 63.219)"/><path class="db" d="M17.01,35.245c135.927-8.928,219.264,56.67,305.374,53.894C430.581,85.855,546.172,32.285,654.564,29,637.925,197.76,680.4,627.893,673.148,640.337c-104.889,9.252-235.756,8.558-361.126,5.968-106.056-2.174-201.75-7.864-270.687-16.33C37.1,549.62,16.426,119.3,17.01,35.245Z" transform="translate(24.857 63.799)"/><path class="dc" d="M17,34.447c136.219-8.975,219.6,57.178,305.423,54.588C430.575,85.751,546.215,32.5,654.364,29.22c-16.59,168.76,25.1,598.061,17.854,610.135-104.986,9.252-235.464,8.651-360.008,6.014C206.251,643.1,110.752,637.319,42.253,628.9,37.778,547.851,16.615,118.966,17,34.447Z" transform="translate(24.863 64.597)"/><path class="dd" d="M17,33.759C153.608,24.506,236.751,91.492,322.277,88.9,430.328,85.571,546.065,32.695,653.921,29.41c-16.492,168.76,24.325,597.182,17.173,608.932-105.083,9.252-235.172,8.743-359.18,6.06C206,642.043,110.7,636.168,42.687,627.794,38.406,546.19,17,118.74,17,33.759Z" transform="translate(24.867 65.286)"/><path class="de" d="M17,33.215C153.8,23.962,236.848,91.5,322.082,88.728c108-3.331,223.4-55.883,331.4-59.168-16.444,168.76,23.692,596.349,16.444,607.775-105.181,9.252-234.832,8.79-358.207,6.014-105.813-2.359-200.923-8.373-268.546-16.7C39.038,544.629,17,118.658,17,33.215Z" transform="translate(24.867 65.83)"/><path class="df" d="M17,32.381c137-9.252,219.945,58.8,304.888,56.207C429.841,85.3,545.044,33.075,653,29.79c-16.346,168.76,23.011,595.47,15.762,606.573-105.278,9.53-234.54,8.882-357.283,6.06-105.667-2.452-200.583-8.558-267.573-16.839C39.671,542.823,17,118.287,17,32.381Z" transform="translate(24.867 66.664)"/><path class="dg" d="M17,31.655C154.192,22.4,237.043,91.008,321.693,88.417,429.549,85.133,544.654,33.275,652.511,29.99c-16.249,168.713,22.33,594.591,15.081,605.324-105.375,9.622-234.2,9.021-356.31,6.106-105.618-2.544-200.339-8.743-267.038-16.931C40.352,541.126,17.389,117.932,17,31.655Z" transform="translate(24.867 67.389)"/><path class="dh" d="M17.06,31.018c137.387-9.252,220.091,59.908,304.5,57.317,107.808-3.285,222.767-54.819,330.575-58.1-16.2,168.76,21.6,593.712,14.595,604.167-105.521,9.622-233.956,9.252-355.143,6.06-105.521-2.591-200.047-8.882-266.308-17.024C40.752,539.472,17.352,117.9,17.06,31.018Z" transform="translate(25.099 68.026)"/><path class="di" d="M17.08,31.014c137.581-9.252,220.188,60.417,304.3,57.872,107.759-3.285,222.572-54.5,330.283-57.78-16.1,168.76,20.919,592.879,13.719,602.964-105.618,9.715-233.518,9.252-354.413,6.106-105.473-2.637-199.8-9.252-265.627-17.163C41.308,538.5,17.518,118.354,17.08,31.014Z" transform="translate(25.176 68.031)"/><path class="dj" d="M17.1,31.009c137.776-9.252,220.286,60.972,304.109,58.427C428.871,86.152,543.538,35.265,651.2,31.98c-16.006,168.76,20.238,592.139,13.038,601.761-105.764,9.807-233.518,9.252-353.44,6.153-105.375-2.729-199.464-9.252-264.9-17.3C41.863,537.519,17.635,118.812,17.1,31.009Z" transform="translate(25.253 68.036)"/><path class="dk" d="M17.12,31C155.09,21.752,237.5,92.531,321.083,89.987c107.564-3.285,222.086-53.848,329.7-57.132-15.957,168.76,19.46,591.168,12.308,600.6-105.862,9.807-233.032,9.252-352.516,6.107-105.229-2.776-199.22-9.252-264.119-17.394C42.418,536.543,17.752,119.27,17.12,31Z" transform="translate(25.331 68.04)"/><path class="dl" d="M17.14,31.029c138.165-9.483,220.48,62.036,303.769,59.491C428.424,87.283,542.8,37.043,650.316,33.759c-15.86,168.76,18.827,590.335,11.627,599.4-105.959,9.9-232.691,9.252-351.542,6.153-105.181-2.868-198.929-9.576-263.389-17.533C43.022,535.55,17.87,119.758,17.14,31.029Z" transform="translate(25.408 68.015)"/><path class="dm" d="M17.16,31.03C155.52,21.5,237.689,93.621,320.734,91.17c107.418-3.285,221.7-53.154,329.164-56.438-15.665,168.667,18.39,589.364,10.9,598.153-106.056,9.946-232.4,9.252-350.57,6.153-105.083-2.961-198.685-9.761-262.708-17.672C43.577,534.58,17.987,120.221,17.16,31.03Z" transform="translate(25.485 68.014)"/><path class="dn" d="M17.18,31.015c138.554-9.53,220.626,63.192,303.379,60.648,107.37-3.285,221.5-52.83,328.872-56.068-15.714,168.713,17.465,588.577,10.216,597-106.154,9.992-232.059,9.53-349.6,6.153C205.065,635.784,111.658,628.8,48.073,620.98,44.132,533.686,18.1,120.761,17.18,31.015Z" transform="translate(25.563 67.983)"/><path class="do" d="M17.2,31.017c138.749-9.576,220.724,63.7,303.185,61.2,107.321-3.285,221.259-52.506,328.58-55.513C633.4,205.42,665.749,624.22,658.695,632.5c-106.251,10.085-231.767,9.622-348.624,6.2-104.937-3.053-198.15-10.131-261.249-17.857C44.687,532.624,18.222,121.226,17.2,31.017Z" transform="translate(25.64 67.981)"/><path class="dp" d="M17.22,31.018C156.163,21.4,238.041,95.274,320.21,92.776,427.24,89.492,541.274,40.594,648.547,37.263,633.028,206.023,664.6,624.129,657.352,631.9c-106.348,10.131-231.426,9.668-347.7,6.2-104.791-3.146-197.81-10.316-260.47-18C45.34,531.653,18.339,121.689,17.22,31.018Z" transform="translate(25.717 67.98)"/><path class="dq" d="M17.24,31.02c139.138-9.669,220.918,64.765,302.8,62.313,107.029-3.285,220.869-51.812,328.045-55.1C632.658,207,663.454,624.223,656.2,631.671c-106.445,10.177-231.135,9.761-346.726,6.2-104.694-3.192-197.566-10.455-259.789-18.088C45.846,530.683,18.5,121.968,17.24,31.02Z" transform="translate(25.795 67.979)"/><path class="dr" d="M17.26,31.027c139.333-9.761,221.015,65.32,302.6,62.822C426.89,90.611,540.536,42.407,647.614,39.122c-15.325,168.76,14.595,585.154,7.443,592.139-106.543,10.27-230.794,9.854-345.753,6.245-104.645-3.285-197.274-10.64-259.06-18.227C46.4,529.673,18.622,122.623,17.26,31.027Z" transform="translate(25.872 67.972)"/><path class="ds" d="M17.28,31.028C157,21.221,238.344,96.9,319.686,94.22c107.029-3.238,220.432-50.887,327.51-54.4-15.276,168.76,13.962,584.275,6.714,591.075-106.64,10.316-230.5,9.9-344.78,6.245-104.548-3.377-197.031-10.825-258.33-18.5C46.956,528.7,18.739,123.133,17.28,31.028Z" transform="translate(25.949 67.97)"/><path class="dt" d="M17.3,31.029c139.625-9.854,221.161,66.384,302.212,63.933,107.029-3.238,220.237-50.887,327.218-54.079-15.179,168.991,13.282,583.442,6.033,589.965-106.737,10.363-230.21,9.992-343.807,6.245-104.5-3.377-196.739-10.964-257.6-18.5C47.56,527.733,18.857,123.6,17.3,31.029Z" transform="translate(26.026 67.969)"/><path class="du" d="M17.32,31.031c139.916-9.9,221.259,66.939,302.017,64.488C426.367,92.28,539.38,45.048,646.312,41.763c-15.13,168.76,12.552,582.61,5.352,588.67-107.029,10.455-229.918,10.085-342.932,6.292-104.354-3.47-196.4-11.149-256.87-18.5C48.115,526.716,18.974,124.061,17.32,31.031Z" transform="translate(26.104 67.968)"/><path class="dv" d="M17.33,31.032c140.16-9.946,221.4,67.495,301.871,65.043C426.23,92.79,539.049,45.928,645.884,42.69,630.851,211.4,657.754,624.374,650.749,630.2c-107.029,10.5-229.626,10.131-341.959,6.292C204.534,632.932,112.635,625.16,52.65,617.759,48.709,525.746,19.13,124.525,17.33,31.032Z" transform="translate(26.142 67.966)"/><path class="dw" d="M17.35,31.033c140.354-9.992,221.5,68,301.628,65.6,106.737-3.285,219.6-49.823,326.342-53.061-14.936,168.76,11.189,580.852,3.989,586.264-107.029,10.548-229.286,10.224-340.986,6.292C204.116,632.517,112.46,624.653,52.913,617.3,49.264,524.776,19.247,124.989,17.35,31.033Z" transform="translate(26.22 67.965)"/><path class="dx" d="M17.37,31.041C157.919,20.956,238.921,99.6,319,97.147c106.689-3.238,219.361-49.453,325.953-52.691-14.887,168.76,10.46,579.973,3.26,585.061-107.029,10.64-228.994,10.316-340.013,6.338-104.11-3.7-195.62-11.658-254.73-18.921C49.625,523.811,19.413,125.459,17.37,31.041Z" transform="translate(26.297 67.958)"/><path class="dy" d="M17.39,31.042C158.133,20.911,239.281,100.155,318.726,97.7c106.64-3.238,219.167-49.129,325.953-52.367-14.595,168.76,9.73,579.14,2.578,583.9C539.936,639.927,418.6,639.6,308.218,635.579c-104.013-3.793-195.328-11.843-254-19.059C50.423,522.795,19.531,125.969,17.39,31.042Z" transform="translate(26.374 67.957)"/><path class="dz" d="M17.41,31.043C158.494,20.866,239.155,100.666,318.551,98.26c106.543-3.238,218.924-48.805,325.515-52.043-14.595,168.76,9.1,578.261,1.9,582.887-107.418,10.732-228.362,10.455-338.115,6.338C203.933,631.6,112.812,623.46,54.87,616.29,50.978,521.825,19.648,126.618,17.41,31.043Z" transform="translate(26.452 67.955)"/><path class="ea" d="M17.43,31.045c141.181-10.224,221.7,70.178,300.947,67.818C424.871,95.625,537.3,50.382,643.648,47.143c-14.595,168.76,8.368,577.428,1.168,581.5C537.3,639.468,416.8,638.959,307.674,635.027c-103.818-4.117-194.6-12.167-252.492-19.291C51.533,520.855,19.765,126.9,17.43,31.045Z" transform="translate(26.529 67.954)"/><path class="eb" d="M17.45,31.046C158.826,20.776,239.39,101.779,318.2,99.373c106.445-3.238,218.534-48.111,324.98-51.4-14.595,168.76,7.687,576.6.486,580.343C536.056,639.191,415.94,638.729,307.5,634.7c-103.721-4.163-194.6-12.4-251.811-19.43C52.089,519.838,20.126,127.361,17.45,31.046Z" transform="translate(26.606 67.952)"/><path class="ec" d="M17.47,31.053C159.041,20.691,239.507,102.3,318.028,99.936,424.376,96.7,536.368,52.148,642.716,49.049c-14.595,168.713,7.006,575.67,0,579.094-107.71,10.918-227.389,10.5-335.2,6.43C203.847,630.317,113.31,621.99,56.438,615,52.692,518.874,20.048,127.831,17.47,31.053Z" transform="translate(26.683 67.945)"/><path class="ed" d="M17.49,31.039c141.765-10.362,222.086,71.843,300.363,69.391C424.153,97.145,536,52.966,642.3,49.543c-14.352,168.713,6.276,574.838-.924,577.891-107.808,11.01-227.1,10.594-334.223,6.43C203.575,629.562,113.184,621.142,56.8,614.2,53.248,517.934,19.971,128.325,17.49,31.039Z" transform="translate(26.761 67.914)"/><path class="ee" d="M17.51,31.039C159.47,20.63,239.693,103.53,317.678,101.032,423.929,97.794,535.629,53.938,641.831,50.7c-14.254,168.76,5.595,573.959-1.606,576.734-107.9,11.056-226.8,10.64-333.3,6.43C203.5,629.516,113.3,620.958,57.354,614.065,53.949,516.917,20.234,128.835,17.51,31.039Z" transform="translate(26.838 67.913)"/><path class="ef" d="M17.53,31.041C159.684,20.587,239.81,103.949,317.5,101.589c106.1-3.238,218-46.77,323.91-50.008-14.206,168.76,4.865,573.126-2.335,575.532-108,11.1-226.464,10.779-332.326,6.476C203.372,628.963,113.37,620.5,57.861,613.7,54.358,515.948,20.4,129.3,17.53,31.041Z" transform="translate(26.915 67.911)"/><path class="eg" d="M17.55,31.043c142.349-10.5,222.378,73.462,299.779,71.1,106.2-3.238,217.513-46.446,323.618-49.5-14.108,168.76,4.184,572.247-3.016,574.375-108.1,11.149-226.172,10.825-331.353,6.43-103.283-4.626-193.091-13.231-248.113-19.985C54.962,514.978,20.518,129.763,17.55,31.043Z" transform="translate(26.993 67.909)"/><path class="eh" d="M17.57,31.044C160.114,20.5,240.045,105.062,317.2,102.7c106.008-3.238,217.269-46.261,323.277-49.36-14.011,168.76,3.5,571.414-3.649,573.172-108.245,11.241-225.88,10.918-330.429,6.476-103.235-4.626-192.847-13.416-247.432-20.123C55.517,513.961,20.635,130.227,17.57,31.044Z" transform="translate(27.07 67.908)"/><path class="ei" d="M17.59,31.069c142.738-10.779,222.524,74.526,299.439,72.213,105.91-3.238,217.075-45.8,323.034-49.037C626.1,223,642.836,624.781,635.684,626.215,527.341,637.5,410.1,637.271,306.229,632.737s-192.555-13.6-246.7-20.308C56.072,513.014,20.752,130.714,17.59,31.069Z" transform="translate(27.147 67.883)"/><path class="ej" d="M17.61,31.064c142.981-10.779,222.621,75.081,299.244,72.768,105.862-3.238,216.88-45.474,322.742-48.666-13.865,168.713,2.092,569.656-4.865,570.767-108.44,11.334-225.248,11.1-328.531,6.476S113.985,618.531,60.227,612.054C56.627,512.039,20.87,131.311,17.61,31.064Z" transform="translate(27.225 67.888)"/><path class="ek" d="M633.389,625.544c-217.464,22.853-466.453-.879-572.8-13.878C57.182,511.095,20.987,131.709,17.63,31.092c143.127-10.871,222.718,75.544,299.05,73.185,105.813-3.192,216.637-45.1,322.45-48.3C625.362,224.694,640.54,624.8,633.389,625.544Z" transform="translate(27.302 67.953)"/></g><g transform="translate(-2.133 0.004)"><path class="el" d="M2.266,2.086,720.633,5.247,723.794,688.9,5.426,685.737Z" transform="translate(0 89.926) rotate(-5.16)"/><path class="em" d="M236.868,39.162a23.836,23.836,0,0,0-19.9-12.953h-1.508a21.074,21.074,0,0,0-8.562,1.758,19.63,19.63,0,0,0-5.254,3.146,59.243,59.243,0,0,0-5.692-3.747,72.811,72.811,0,0,0-31.282-9.252h-4.865a66.6,66.6,0,0,0-28.314,5.968,45.7,45.7,0,0,0-12.941,9.252,28.851,28.851,0,0,0-8.562,18.5,27.856,27.856,0,0,0,3.162,14.156c.389.786.827,1.573,1.265,2.313L74.135,78.668,72.14,83.294l49.039-6.847.341.416a67.257,67.257,0,0,0,40.428,16.746c2.189,0,4.378.278,6.519.278a57.85,57.85,0,0,0,41.06-14.85,32.377,32.377,0,0,0,5.838-8.1h3.7c11.605-.78,20.585-9.986,20.53-21.049a23.1,23.1,0,0,0-2.724-10.733Z" transform="translate(281.285 65.648)"/><path class="en" d="M77.292,65.2C87.9,54.146,108.671,33.421,108.671,33.421L93.4,22.92S76.709,50.677,71.454,61.687C70.092,64.323,75.444,67.053,77.292,65.2Z" transform="translate(277.787 83.093)"/><path class="eo" d="M105.03,104.356c26.66,13.6,58.38,8.327,75.893-11.149.584-.925,1.216-1.85,1.8-2.822,15.13-26.785,2.724-61.111-27.73-76.654C128.333.084,96.614,5.4,79.051,24.88c-.584.925-1.216,1.8-1.8,2.822C62.073,54.487,74.575,88.813,105.03,104.356Z" transform="translate(276.076 22.196)"/><path class="ep" d="M83.586,29.757c5.4-9.53,28.071-27.757,38.579-22.251s4.865,32.383-.486,41.635c-5.949,9.424-18.634,12.741-28.814,7.536S78.6,39.581,83.586,29.665Z" transform="translate(317.321 23.518)"/><path class="eq" d="M87.056,13.865c9.049-14.387,30.357-18.181,47-8.512s23.206,29.1,14.157,43.439-30.114,18.088-47,8.419S77.958,28.159,87.056,13.865Z" transform="translate(322.9 -0.004)"/><path class="er" d="M88.027,12.067C95.178.733,111.817-2.274,124.952,5.406s18.292,23.13,11.141,34.279S112.3,53.979,99.022,46.346,80.875,23.586,88.027,12.067Z" transform="translate(329.956 4.153)"/><path class="es" d="M135.322,36.724a29.009,29.009,0,0,1-31.768,1.064c-13.33-7.633-18.341-23.13-11.141-34.279.292-.463.681-.833.973-1.249a22.07,22.07,0,0,0-5.3,5.6C80.932,19.191,85.8,34.5,99.224,42.137c11.667,7.459,27.411,5.1,36.1-5.413Z" transform="translate(330.191 8.178)"/><path class="et" d="M147.6,68.715c-11.092,7.494-28.9,6.014-44.66-5.089-19.46-13.878-28.265-37.009-19.46-52,.341-.6.876-1.064,1.265-1.619a22.12,22.12,0,0,0-6.86,7.032c-8.854,14.85,0,38.119,19.46,52C116.073,82.316,138.014,81.946,147.6,68.715Z" transform="translate(290.185 36.28)"/></g></g></svg>