<svg xmlns="http://www.w3.org/2000/svg" xmlns:xlink="http://www.w3.org/1999/xlink" width="823.323" height="799.795" viewBox="0 0 823.323 799.795"><defs><style>.a{fill:#fff;}.b{fill:#fefefe;}.c{fill:#fefdfd;}.d{fill:#fdfdfc;}.e{fill:#fdfcfb;}.f{fill:#fcfbfa;}.g{fill:#fbfaf9;}.h{fill:#fbfaf8;}.i{fill:#faf9f7;}.j{fill:#faf8f6;}.k{fill:#f9f7f5;}.l{fill:#f9f7f4;}.m{fill:#f8f6f3;}.n{fill:#f7f5f2;}.o{fill:#f7f4f1;}.p{fill:#f6f4f0;}.q{fill:#f6f3ef;}.r{fill:#f5f2ee;}.s{fill:#f4f1ed;}.t{fill:#f4f0ec;}.u{fill:#f3f0eb;}.v{fill:#f3efea;}.w{fill:#f2eee9;}.x{fill:#f2ede8;}.y{fill:#f1ede7;}.z{fill:#f0ece6;}.aa{fill:#f0ebe5;}.ab{fill:#efeae4;}.ac{fill:#efeae3;}.ad{fill:#eee9e2;}.ae{fill:#ede8e1;}.af{fill:#ede7e0;}.ag{fill:#ece7df;}.ah{fill:#ece6de;}.ai{fill:#ebe5dd;}.aj{fill:#eae4dc;}.ak{fill:#eae3db;}.al{fill:#e9e3da;}.am{fill:#e9e2d9;}.an{fill:#e8e1d8;}.ao{fill:#e8e0d7;}.ap{fill:#e7e0d6;}.aq{fill:#e6dfd5;}.ar{fill:#e6ded4;}.as{fill:#e5ddd3;}.at{fill:#e5ddd2;}.au{fill:#e4dcd1;}.av{fill:#e3dbd0;}.aw{fill:#e3dacf;}.ax{fill:#e2dace;}.ay{fill:#e2d9cd;}.az{fill:#e1d8cc;}.ba{fill:#e1d7cb;}.bb{fill:#e0d6ca;}.bc{fill:#dfd6c9;}.bd{fill:#dfd5c8;}.be{fill:#ded4c7;}.bf{fill:#ded3c6;}.bg{fill:#ddd3c5;}.bh{fill:#dcd2c4;}.bi{fill:#dcd1c3;}.bj{fill:#dbd0c2;}.bk{fill:#dbd0c1;}.bl{fill:#dacfc0;}.bm{fill:#dacebf;}.bn{fill:#d9cdbe;}.bo{fill:#d8cdbd;}.bp{fill:#d8ccbc;}.bq{fill:#d7cbbb;}.br{fill:#d7caba;}.bs{fill:#d6c9b9;}.bt{fill:#d5c9b8;}.bu{fill:#d5c8b7;}.bv{fill:#d4c7b6;}.bw{fill:#d4c6b5;}.bx{fill:#d3c6b4;}.by{fill:#d2c5b3;}.bz{fill:#d2c4b2;}.ca{fill:#d1c3b1;}.cb{fill:#d1c3b0;}.cc{fill:#d0c2af;}.cd{fill:#d0c1ae;}.ce{fill:#cfc0ad;}.cf{fill:#cec0ac;}.cg{fill:#cebfab;}.ch{fill:#cdbeaa;}.ci{fill:#cdbda9;}.cj{fill:#ccbda8;}.ck{fill:#cbbca7;}.cl{fill:#cbbba6;}.cm{fill:#cabaa5;}.cn{fill:#cab9a4;}.co{fill:#c9b9a3;}.cp{fill:#c9b8a2;}.cq{fill:#c8b7a1;}.cr{fill:#c7b6a0;}.cs{fill:#c7b69f;}.ct{fill:#c6b59e;}.cu{fill:#c6b49d;}.cv{fill:#c5b39c;}.cw{fill:#c4b39b;}.cx{fill:#c4b29a;}.cy{fill:#c3b199;}.cz{fill:#c3b098;}.da{fill:#c2b097;}.db{fill:#c1af96;}.dc{fill:#c1ae95;}.dd{fill:#c0ad94;}.de{fill:#c0ac93;}.df{fill:#bfac92;}.dg{fill:#bfab91;}.dh{fill:#beaa90;}.di{fill:#bda98f;}.dj{fill:#bda98e;}.dk{fill:#bca88d;}.dl{fill:#bca78c;}.dm{fill:#bba68b;}.dn{fill:#baa68a;}.do{fill:#baa589;}.dp{fill:#b9a488;}.dq{fill:#b9a387;}.dr{fill:#b8a386;}.ds{fill:#b8a285;}.dt{fill:#b7a184;}.du{fill:#b6a083;}.dv{fill:#b69f82;}.dw{fill:#b59f81;}.dx{fill:#b59e80;}.dy{fill:#b49d7f;}.dz{fill:#b39c7e;}.ea{fill:#b39c7d;}.eb{fill:#b29b7c;}.ec{fill:#b29a7b;}.ed{fill:#b1997a;}.ee{fill:#b19979;}.ef{fill:#b09878;}.eg{fill:#af9777;}.eh{fill:#af9676;}.ei{fill:#ae9675;}.ej{fill:#ae9574;}.ek{fill:#ad9473;}.el{fill:url(#a);}.em{fill:url(#b);}.en{fill:url(#c);}.eo{fill:url(#d);}.ep{fill:url(#e);}.eq{fill:url(#f);}.er{fill:url(#g);}.es{fill:url(#h);}.et{fill:url(#i);}</style><linearGradient id="a" x1="13.561" y1="0.989" x2="13.561" y2="-0.006" gradientUnits="objectBoundingBox"><stop offset="0" stop-color="#fdee6f"/><stop offset="0.04" stop-color="#fdf46d"/><stop offset="0.3" stop-color="#fdff8a"/><stop offset="0.84" stop-color="#fdf56b"/><stop offset="0.88" stop-color="#fdee65"/></linearGradient><linearGradient id="b" y1="0.501" x2="1" y2="0.501" gradientUnits="objectBoundingBox"><stop offset="0" stop-color="#ad7a00"/><stop offset="1" stop-color="#fdee65"/></linearGradient><radialGradient id="c" cx="6.611" cy="8.968" r="0.422" gradientTransform="matrix(1.191, 0.168, -0.222, 1.075, 0.656, -1.687)" gradientUnits="objectBoundingBox"><stop offset="0" stop-color="#c5a5a2"/><stop offset="0.2" stop-color="#bc9b99"/><stop offset="0.53" stop-color="#a3817f"/><stop offset="0.95" stop-color="#7b5756"/><stop offset="1" stop-color="#765150"/></radialGradient><radialGradient id="d" cx="-0.708" cy="3.619" r="0.787" gradientTransform="matrix(0.871, 0.431, -0.411, 0.892, 1.316, 0.645)" gradientUnits="objectBoundingBox"><stop offset="0.1" stop-color="#ff9494"/><stop offset="0.13" stop-color="#ff8585"/><stop offset="0.19" stop-color="#ff5e5e"/><stop offset="0.28" stop-color="#ff2020"/><stop offset="0.32" stop-color="red"/><stop offset="0.83" stop-color="#a50000"/><stop offset="1" stop-color="#e10100"/></radialGradient><linearGradient id="e" x1="-76.435" y1="-28.638" x2="-75.608" y2="-28.418" gradientUnits="objectBoundingBox"><stop offset="0" stop-color="#a50000"/><stop offset="0.32" stop-color="red"/><stop offset="0.76" stop-color="#a50000"/></linearGradient><radialGradient id="f" cx="-0.291" cy="1.712" r="0.92" gradientTransform="matrix(0.954, 0.102, -0.096, 0.983, 0.146, 0.053)" gradientUnits="objectBoundingBox"><stop offset="0" stop-color="#fff"/><stop offset="0.75" stop-color="#e20000"/></radialGradient><radialGradient id="g" cx="-1.725" cy="6.664" r="0.499" gradientTransform="matrix(0.877, 0.431, -0.414, 0.892, 2.378, 1.363)" gradientUnits="objectBoundingBox"><stop offset="0.62" stop-color="red"/><stop offset="1" stop-color="#a50000"/></radialGradient><radialGradient id="h" cx="-3.137" cy="8.609" r="0.797" gradientTransform="matrix(0.876, 0.431, -0.414, 0.892, 2.96, 2.151)" gradientUnits="objectBoundingBox"><stop offset="0.14" stop-color="#ff9494"/><stop offset="0.38" stop-color="#ff9494"/><stop offset="0.48" stop-color="#ff8585"/><stop offset="0.65" stop-color="#ff5e5e"/><stop offset="0.89" stop-color="#ff2020"/><stop offset="1" stop-color="red"/></radialGradient><radialGradient id="i" cx="2.889" cy="11.9" r="0.957" gradientTransform="matrix(1.154, 0.431, -0.545, 0.892, 5.663, 0.074)" xlink:href="#f"/></defs><g transform="translate(0.003 0.037)"><g transform="translate(-0.003 18.769)"><path class="a" d="M822.759,784.8c-95.583,0-272.65-10.218-469.654-10.218-117.4,0-235.149,3.52-352.55-15.3-6.135-21.463,40.024-636.711,52.937-672.6,117.352,0,213.38,6.454,330.781,6.454S637.48,3.81,754.882,3.81C723.367,181.236,832.011,734.93,822.759,784.8Z" transform="translate(0.003 -3.81)"/><path class="b" d="M53.082,85.942c117.55,0,213.479,7.04,330.583,7.04S636.625,4,753.977,4c-31.465,177.426,76.684,730.191,67.185,779.718-95.682,0-272.106-10.12-468.665-10.218-117.3,0-234.852,3.374-351.808-15.352C-5.445,736.049,40.268,122.317,53.082,85.942Z" transform="translate(0.512 -3.071)"/><path class="c" d="M52.74,85.242c117.8,0,213.578,7.627,330.386,7.627S635.887,4.18,753.14,4.18c-31.317,177.475,75.794,729.311,66.542,778.5-95.781,0-272.105-10.072-467.675-10.169-117.2,0-234.555,3.178-351.263-15.5C-5.095,734.371,40.075,122.106,52.74,85.242Z" transform="translate(0.904 -2.371)"/><path class="d" d="M52.193,84.5c117.995,0,213.677,8.165,330.188,8.165S634.7,4.37,752.1,4.37C720.83,181.845,827.2,732.85,818,781.742c-95.93,0-271.71-9.778-466.735-10.072-117.1,0-234.258,2.982-350.324-15.6C-5.048,732.606,39.626,121.856,52.193,84.5Z" transform="translate(1.55 -1.632)"/><path class="e" d="M51.777,83.8c118.193,0,213.727,8.752,329.99,8.752,117.1,0,252.316-88,369.42-88C720.018,182.025,825.4,732,816.393,780.455c-96.028.245-271.363-9.778-465.746-10.072-117.005,0-234.011,2.836-349.581-15.694C-4.871,730.879,39.26,121.694,51.777,83.8Z" transform="translate(2.065 -0.932)"/><path class="f" d="M51.49,83.025c118.44-.244,213.776,9.338,329.792,9.338,117.005,0,252.069-87.613,369.124-87.613-31.119,177.475,73.716,726.525,64.316,774.634-96.078.293-271.067-9.778-464.756-10.023C233.059,769.068,116.251,772,1.126,753.569-4.564,729.075,39.072,121.4,51.49,83.025Z" transform="translate(2.45 -0.154)"/><path class="g" d="M50.95,82.4c118.737-.293,213.875,9.778,329.545,9.778C497.45,92.181,632.365,4.91,749.321,4.91c-31.02,177.475,73.073,725.547,63.92,773.314-96.226.391-270.77-9.778-463.816-9.778-116.807-.342-233.417,2.493-348.1-15.89C-4.56,727.425,38.631,121.271,50.95,82.4Z" transform="translate(3.09 0.468)"/><path class="h" d="M50.533,81.547C169.27,81.2,264.457,92.01,379.88,92.01c116.906,0,251.623-86.88,368.53-86.88-30.921,177.475,72.38,724.618,63.228,772.042-96.325.44-270.423-9.485-462.827-9.778-116.758-.391-233.12,2.3-347.355-15.987C-4.383,725.543,38.313,120.953,50.533,81.547Z" transform="translate(3.605 1.324)"/><path class="i" d="M50.3,80.886c118.737-.391,213.825,10.952,328.951,10.952C496.059,91.838,630.628,5.3,747.485,5.3c-30.872,177.475,71.688,723.591,62.535,770.771-96.424.489-270.127-9.436-461.837-9.778-116.659-.489-232.823,2.1-346.613-16.085C-4.12,723.855,37.982,120.781,50.3,80.886Z" transform="translate(4.134 1.985)"/><path class="j" d="M49.7,80.069c119.232-.44,214.073,11.636,328.9,11.636,116.758,0,251.178-86.2,367.986-86.2-30.773,177.475,70.995,722.76,61.842,769.451-96.523.538-269.78-9.289-460.848-9.778C231.023,764.645,115.057,767.138,1.762,749-4.125,722.012,37.532,120.356,49.7,80.069Z" transform="translate(4.733 2.802)"/><path class="k" d="M49.381,79.33c119.43-.489,214.172,12.223,328.7,12.223,116.56,0,250.98-85.853,367.639-85.853-30.674,177.475,70.5,721.831,61.249,768.18-96.672.587-269.533-9.192-460.106-9.778-116.461-.587-232.23,1.76-345.079-16.281C-3.754,720.3,37.408,120.2,49.381,79.33Z" transform="translate(5.055 3.54)"/><path class="l" d="M48.8,78.63c119.627-.538,214.221,12.761,328.506,12.761,116.61,0,250.733-85.511,367.342-85.511C714.074,183.355,814.307,726.831,805.2,772.789c-96.771.684-269.187-9.045-458.918-9.778-116.362-.684-231.982,1.565-344.337-16.427C-3.642,718.568,37.026,120.041,48.8,78.63Z" transform="translate(5.635 4.241)"/><path class="m" d="M48.22,77.891C168.045,77.3,262.54,91.239,376.478,91.239c117.005,0,250.584-85.169,367.293-85.169-30.525,177.475,68.966,720.022,59.863,765.638-96.87.733-268.84-8.947-457.929-9.778-116.263-.684-231.685,1.418-343.595-16.476C-3.53,716.8,36.643,119.791,48.22,77.891Z" transform="translate(6.215 4.979)"/><path class="n" d="M47.9,77.152c120.023-.636,214.37,13.934,328.06,13.934,116.511,0,250.288-84.826,366.8-84.826C712.337,183.735,811.037,725.3,802.132,770.626c-96.969.782-268.593-8.9-456.989-9.778-116.164-.782-231.389,1.222-342.853-16.623C-3.449,715.037,36.229,119.541,47.9,77.152Z" transform="translate(6.827 5.718)"/><path class="o" d="M47.585,76.3C167.806,75.612,262,90.964,375.448,90.964,491.859,90.964,625.488,6.48,741.9,6.48,711.572,183.955,809.53,724.6,800.477,769.526c-97.068.88-268.247-8.752-456-9.778-116.065-.831-231.092,1.076-342.111-16.672C-3.175,713.057,35.959,119.223,47.585,76.3Z" transform="translate(7.246 6.574)"/><path class="p" d="M47.272,75.674c120.419-.733,214.518,15.107,327.665,15.107,116.313,0,249.793-84.142,366.106-84.142-30.229,177.475,66.938,717.186,57.884,761.775-97.166.929-267.95-8.654-455.158-9.534C227.8,758,112.973,759.81,2.4,742.063-2.7,711.506,35.744,119.09,47.272,75.674Z" transform="translate(7.658 7.196)"/><path class="q" d="M46.631,74.78C167.248,74,261.2,90.621,374.048,90.621c116.263,0,249.644-83.751,366.105-83.751-30.179,177.475,66.245,716.257,57.241,760.5-97.315.978-267.653-8.556-454.07-9.485-115.917-.978-230.5.733-340.627-16.916C-2.991,709.585,35.2,118.684,46.631,74.78Z" transform="translate(8.398 8.091)"/><path class="r" d="M46.342,74.274c120.815-.831,214.667,16.232,327.219,16.232C489.775,90.506,622.959,7,739.172,7c-30.13,177.475,65.553,715.329,56.548,759.184-97.414,1.076-267.158-8.409-453.081-9.436-115.818-.978-230.2.587-339.885-17.014C-2.686,708.052,35.013,118.717,46.342,74.274Z" transform="translate(8.786 8.596)"/><path class="s" d="M45.926,73.5c121.013-.88,214.716,16.819,327.021,16.819C489.062,90.315,622.1,7.2,738.212,7.2c-29.981,177.475,64.909,714.4,55.905,757.815-97.513,1.124-267.158-8.312-452.091-9.387-115.719-1.076-229.954.391-339.142-17.112C-2.509,706.3,34.7,118.672,45.926,73.5Z" transform="translate(9.301 9.374)"/><path class="t" d="M45.46,72.758c121.26-.929,214.864,17.405,326.824,17.405C488.349,90.163,621.235,7.39,737.3,7.39c-29.684,177.524,64.316,713.52,55.213,756.69-97.612,1.125-266.663-8.263-451.1-9.387-115.62-1.125-229.657,0-338.4-17.21C-2.331,704.629,34.329,118.178,45.46,72.758Z" transform="translate(9.816 10.113)"/><path class="u" d="M45.235,72.019c121.458-.978,214.914,17.943,326.527,17.943,116.016,0,248.7-82.382,364.72-82.382C706.8,185.1,800.006,720.122,790.9,762.95c-97.76,1.222-266.367-8.116-450.211-9.289-115.521-1.174-229.36,0-337.658-17.308C-1.963,702.765,34.4,117.928,45.235,72.019Z" transform="translate(10.14 10.852)"/><path class="v" d="M44.468,71.28c121.656-1.027,215.013,18.53,326.527,18.53,115.917,0,248.457-82.04,364.424-82.04-29.684,177.524,62.832,711.613,53.877,754.1-97.76,1.271-265.971-7.627-449.024-9.241-115.422-1.027-229.063,0-336.916-17.454C-2.136,701,33.534,117.727,44.468,71.28Z" transform="translate(11.006 11.591)"/><path class="w" d="M44.149,70.385C166,69.31,259.211,89.5,370.379,89.5,486.2,89.5,618.638,8,734.456,8c-29.684,177.524,62.238,710.684,53.234,752.926-97.909,1.32-265.723-7.529-448.182-9.24-115.323-1.32-228.767-.538-336.075-17.8C-1.861,699.078,33.116,117.321,44.149,70.385Z" transform="translate(11.424 12.485)"/><path class="x" d="M43.794,69.919c122.052-1.124,215.112,19.557,325.982,19.557,115.818,0,248.061-81.355,363.83-81.355C703.922,185.644,795.152,717.875,786.2,759.628c-98.057,1.418-265.476-7.383-447.193-9.143C223.73,749.361,110.485,750,3.523,732.885-1.623,697.585,33.058,117.343,43.794,69.919Z" transform="translate(11.878 12.952)"/><path class="y" d="M43.378,69.063c122.3-1.173,215.211,20.29,325.784,20.29C484.882,89.353,616.977,8.34,732.7,8.34c-29.684,177.524,60.8,708.924,51.9,750.237-98.156,1.467-265.13-7.285-446.253-9.094-115.175-1.173-228.173-.684-334.69-17.748C-1.445,695.7,32.692,117.025,43.378,69.063Z" transform="translate(12.393 13.808)"/><path class="z" d="M42.994,68.4c122.5-1.222,215.26,20.73,325.587,20.73C484.2,89.132,615.949,8.51,731.817,8.51c-29.684,177.524,60.11,707.9,51.205,748.966-98.255,1.516-264.833-7.187-445.264-9.094-115.125-1.222-227.975-.831-334-17.8C-1.236,694.015,32.406,116.853,42.994,68.4Z" transform="translate(12.876 14.469)"/><path class="aa" d="M42.546,67.585C165.24,66.314,257.9,89,367.885,89,483.5,89,615.253,8.72,730.874,8.72,701.536,186.2,790.242,715.688,781.436,756.366c-98.4,1.614-264.536-7.04-444.274-9C222.135,746.1,109.582,746.343,3.907,729.427-1.09,692.22,32.057,116.525,42.546,67.585Z" transform="translate(13.423 15.286)"/><path class="ab" d="M42.136,66.846c122.893-1.32,215.409,22,325.141,22C482.8,88.847,614.646,8.91,729.92,8.91c-29.239,177.475,58.824,705.99,49.919,746.375-98.5,1.662-264.19-6.943-443.285-9C221.627,745.017,108.975,745.115,4.042,728.3-.955,690.455,31.747,116.324,42.136,66.846Z" transform="translate(13.932 16.025)"/><path class="ac" d="M41.72,66.146c123.091-1.369,215.508,22.588,324.943,22.588,115.422,0,246.923-79.644,362.346-79.644-29.14,177.524,58.033,705.11,49.226,745.152-98.6,1.711-263.893-6.845-442.3-8.947-114.829-1.369-227.084-1.369-331.771-18.139C-.778,688.728,31.429,116.211,41.72,66.146Z" transform="translate(14.447 16.725)"/><path class="ad" d="M41.3,65.407C164.593,63.989,256.861,88.533,366.05,88.533,481.373,88.533,612.726,9.28,728.1,9.28,699.008,186.8,785.537,713.315,776.682,753.112c-98.948,1.76-263.6-6.7-441.355-8.849C220.6,742.845,108.539,742.7,4.3,726.026-.6,686.962,31.063,115.863,41.3,65.407Z" transform="translate(14.962 17.464)"/><path class="ae" d="M40.886,64.668C164.57,63.2,256.542,88.381,365.384,88.381c115.323,0,246.478-78.911,361.8-78.911-29.041,177.524,56.746,703.252,47.891,742.561-98.948,1.809-263.3-6.6-440.316-8.849-114.631-1.467-226.491-1.711-330.287-18.334C-.622,685.2,30.744,115.613,40.886,64.668Z" transform="translate(15.479 18.202)"/><path class="af" d="M40.472,63.813c123.684-1.516,215.705,24.446,324.3,24.446C480,88.258,611,9.69,726.227,9.69c-28.893,177.524,56.1,702.323,47.247,741.29-98.948,1.858-262.953-6.5-439.376-8.8C219.566,740.664,107.9,740.273,4.554,723.747-.245,683.314,30.428,115.3,40.472,63.813Z" transform="translate(15.992 19.058)"/><path class="ag" d="M40.055,63.19c123.684-1.565,215.755,24.886,324.1,24.886,115.125,0,245.983-78.226,361.158-78.226-28.843,177.524,55.411,701.395,46.555,739.97-98.948,1.956-262.607-6.307-438.387-8.752-114.482-1.516-225.947-2.053-328.8-18.53C-.068,681.665,30.111,115.162,40.055,63.19Z" transform="translate(16.507 19.68)"/><path class="ah" d="M39.482,62.3c124.08-1.613,215.854,25.619,323.855,25.619,115.125,0,245.786-77.835,361.158-77.835C695.752,187.6,779.214,710.5,770.407,748.779c-98.948,2-262.211-6.209-437.447-8.7-114.383-1.613-225.65-2.249-328.06-18.628C-.047,679.744,29.637,114.756,39.482,62.3Z" transform="translate(17.179 20.575)"/><path class="ai" d="M39.223,61.713c124.278-1.662,215.9,26.01,323.657,26.01,115.026,0,245.588-77.493,360.614-77.493-28.6,177.524,54.025,699.488,45.219,737.378-99.244,2.1-262.211-6.062-436.457-8.6C217.972,737.341,106.9,736.559,4.938,720.229.288,678.183,29.428,114.711,39.223,61.713Z" transform="translate(17.537 21.158)"/><path class="aj" d="M38.745,60.974c124.476-1.711,216,26.6,323.459,26.6,114.928,0,245.34-77.15,360.268-77.15C693.925,187.944,775.854,708.979,767,746.527c-99.343,2.151-261.716-5.965-435.369-8.6C217.444,736.211,106.573,735.331,5.1,719.1.4,676.417,29.048,114.461,38.745,60.974Z" transform="translate(18.115 21.897)"/><path class="ak" d="M38.391,60.274C163.065,58.513,254.443,87.457,361.6,87.457c114.928,0,245.142-76.857,360.02-76.857-28.5,177.573,52.689,697.679,43.933,734.885-99.492,2.2-261.419-5.867-434.528-8.556-114.086-1.76-224.759-2.738-325.834-18.97C.643,674.69,28.793,114.25,38.391,60.274Z" transform="translate(18.567 22.597)"/><path class="al" d="M37.941,59.535C162.862,57.726,254.141,87.3,361,87.3,475.833,87.3,605.9,10.79,720.727,10.79c-28.4,177.573,52,696.75,43.24,733.369-99.591,2.3-261.073-5.72-433.538-8.458-113.79-1.858-224.462-2.933-325.092-19.067C.736,672.925,28.491,114.048,37.941,59.535Z" transform="translate(19.067 23.336)"/><path class="am" d="M37.517,58.718c125.119-1.858,216.25,28.308,322.866,28.308C475.162,87.026,605.03,11,719.809,11c-28.348,177.573,51.3,695.821,42.547,732.294-99.69,2.347-260.776-5.622-432.549-8.458-113.79-1.858-224.165-3.08-324.35-19.165C.956,671.032,28.166,113.672,37.517,58.718Z" transform="translate(19.59 24.153)"/><path class="an" d="M37.1,58.057C162.418,56.15,253.45,86.951,359.769,86.951c114.68,0,244.4-75.782,359.13-75.782-28.25,177.573,50.612,694.892,41.855,731.023-99.739,2.347-260.43-5.525-431.559-8.409C215.4,731.877,105.276,730.508,5.587,714.52,1.134,669.393,27.8,113.548,37.1,58.057Z" transform="translate(20.104 24.814)"/><path class="ao" d="M36.562,57.434c125.515-1.956,216.4,29.335,322.42,29.335,114.631,0,244.252-75.439,358.833-75.439-28.151,177.573,49.968,693.914,41.261,729.7-99.887,2.445-260.182-5.378-430.421-8.36-113.79-1.956-223.621-3.422-322.866-19.557C1.188,667.744,27.36,113.415,36.562,57.434Z" transform="translate(20.743 25.436)"/><path class="ap" d="M36.27,56.579c125.713-2,216.448,30.068,322.222,30.068,114.532,0,244-75.1,358.536-75.1C688.927,189.123,766.5,704.535,757.6,740.03c-99.986,2.494-259.836-5.28-429.63-8.312-113.79-2-223.324-3.618-322.123-19.556C1.49,665.862,27.166,113.1,36.27,56.579Z" transform="translate(21.134 26.292)"/><path class="aq" d="M35.978,55.84C161.889,53.787,252.525,86.348,358,86.348c114.433,0,243.856-74.608,358.239-74.608-28,177.524,48.583,692.056,39.876,727.16-100.085,2.542-259.49-5.182-428.64-8.263-113.79-2.1-223.028-3.813-321.579-19.556C1.792,664.145,26.974,112.847,35.978,55.84Z" transform="translate(21.524 27.031)"/><path class="ar" d="M35.562,55.1c126.109-2.1,216.6,31.193,321.579,31.193,114.433,0,243.559-74.364,357.992-74.364-27.953,177.524,47.891,691.127,39.233,725.84-100.234,2.64-259.242-4.889-427.7-8.214C213.222,727.454,104.034,725.6,6.026,710,1.969,662.526,26.657,112.6,35.562,55.1Z" transform="translate(22.04 27.77)"/><path class="as" d="M35.015,54.362C161.371,52.211,251.71,86.141,356.594,86.141c114.334,0,243.312-74.021,357.646-74.021-27.8,177.524,47.247,690.2,38.59,724.569-100.333,2.689-258.9-4.889-426.711-8.165-113.344-2.2-222.632-4.156-319.9-19.557C2.065,660.614,26.159,112.4,35.015,54.362Z" transform="translate(22.686 28.509)"/><path class="at" d="M34.333,53.662c126.554-2.2,216.744,32.366,321.579,32.366,114.235,0,243.064-73.728,357.349-73.728-27.755,177.573,46.555,689.367,37.9,723.591-100.432,2.738-258.6-4.889-425.474-8.165-113.245-2.2-222.137-4.3-319.155-19.85C1.928,658.887,25.576,112.185,34.333,53.662Z" transform="translate(23.466 29.209)"/><path class="au" d="M34.188,52.884c126.752-2.2,216.843,32.953,321.183,32.953,114.185,0,242.867-73.337,357.052-73.337-27.656,177.573,45.862,688.389,37.254,722.027-100.58,2.836-258.3-4.889-424.781-8.067-113.146-2.3-221.89-4.5-318.413-19.948C2.376,657.083,25.777,111.9,34.188,52.884Z" transform="translate(23.711 29.987)"/><path class="av" d="M33.775,52.184c126.95-2.249,216.893,33.491,320.936,33.491,114.136,0,242.669-72.995,356.8-72.995-27.606,177.573,45.169,687.412,36.561,720.755-100.679,2.885-258.005-4.6-423.792-8.018-113.047-2.347-221.593-4.889-317.671-20.094C2.557,655.356,25.265,111.734,33.775,52.184Z" transform="translate(24.223 30.687)"/><path class="aw" d="M33.362,51.329c127.148-2.3,216.992,34.224,320.738,34.224,114.037,0,242.421-72.652,356.458-72.652C683.1,190.473,755.085,699.383,746.476,732.384c-100.729,2.934-257.659-4.5-422.8-8.018-113-2.4-221.3-4.889-316.929-20.143C2.738,653.474,24.754,111.171,33.362,51.329Z" transform="translate(24.734 31.542)"/><path class="ax" d="M32.953,50.706C160.3,48.36,249.994,85.37,353.493,85.37c113.79,0,242.421-72.31,356.211-72.31-27.458,177.573,43.784,685.554,35.176,718.409-100.828,2.982-257.263-4.351-421.813-7.92-112.9-2.445-221-4.889-316.187-20.29C2.873,651.825,24.543,111.234,32.953,50.706Z" transform="translate(25.242 32.164)"/><path class="ay" d="M32.507,49.851c127.543-2.4,217.091,35.4,320.293,35.4,113.79,0,241.976-71.968,355.914-71.968C681.4,190.853,751.855,697.758,743.346,730.173,642.37,733.2,486.083,725.919,322.473,722.3c-112.8-2.493-220.7-5.231-315.445-20.388C3.021,649.991,24.2,110.867,32.507,49.851Z" transform="translate(25.787 33.02)"/><path class="az" d="M32.089,49.228c127.741-2.445,217.19,35.788,320.1,35.788,113.79,0,241.729-71.577,355.617-71.577-27.26,177.573,42.448,683.7,33.889,715.573-101.075,3.129-256.719-4.107-419.884-7.823C209.106,718.648,101.4,715.812,7.1,700.7,3.394,648.342,23.877,110.783,32.089,49.228Z" transform="translate(26.304 33.642)"/><path class="ba" d="M31.737,48.489C159.676,46,248.976,84.865,351.634,84.865c113.79,0,241.531-71.235,355.271-71.235-27.161,177.818,41.805,682.767,33.2,714.3-101.174,3.178-256.422-4.009-418.894-7.774-112.6-2.591-220.109-5.574-313.96-20.583C3.438,646.577,23.624,110.533,31.737,48.489Z" transform="translate(26.755 34.381)"/><path class="bb" d="M31.292,47.789c128.137-2.542,217.338,36.962,319.65,36.962,113.79,0,241.333-70.941,355.023-70.941C678.9,191.432,747.078,695.7,738.568,726.889c-101.322,3.227-256.126-3.96-417.954-7.774-112.5-2.64-219.861-5.72-313.218-20.681C3.587,644.85,23.277,110.321,31.292,47.789Z" transform="translate(27.299 35.081)"/><path class="bc" d="M30.827,47.051C159.212,44.459,248.264,84.6,350.329,84.6,464.118,84.6,591.414,14,705.055,14c-27.013,177.622,40.42,680.909,31.911,711.759-101.421,3.325-255.779-3.814-416.965-7.676C207.6,715.394,100.437,712.168,7.525,697.3,3.765,643.084,22.961,110.12,30.827,47.051Z" transform="translate(27.813 35.82)"/><path class="bd" d="M30.383,46.312C159.015,43.671,248.068,84.4,349.687,84.4c113.79,0,240.838-70.208,354.43-70.208C677.2,191.812,743.7,694.17,735.335,724.678c-101.52,3.374-255.482-3.716-415.975-7.627C207,714.264,100.092,710.94,7.675,696.175,3.915,641.319,22.566,109.87,30.383,46.312Z" transform="translate(28.356 36.559)"/><path class="be" d="M30,45.573C158.63,42.884,247.683,84.246,349.1,84.246,462.6,84.246,589.6,14.38,703.385,14.38,676.57,191.953,742.469,693.431,734.009,723.6c-101.669,3.422-255.186-3.618-415.035-7.627C206.52,713.183,99.806,709.712,7.784,695,4.123,639.553,22.28,109.62,30,45.573Z" transform="translate(28.84 37.298)"/><path class="bf" d="M29.583,44.95c128.978-2.738,217.684,39.113,318.858,39.113,113.443,0,240.393-69.523,353.836-69.523-26.716,177.573,38.392,678.122,29.932,707.9-101.718,3.52-254.889-3.471-414.046-7.529-112.157-2.885-218.674-6.4-310.25-21.072C4.3,637.708,21.964,109.682,29.583,44.95Z" transform="translate(29.354 37.92)"/><path class="bg" d="M29.178,44.095c129.176-2.787,217.684,39.846,318.66,39.846,113.344,0,240.195-69.181,353.539-69.181-26.666,177.573,37.7,677.193,29.239,706.626-101.817,3.569-254.542-3.373-413.056-7.529C205.5,710.972,99.183,707.305,8.052,692.687,4.441,636.071,21.658,109.169,29.178,44.095Z" transform="translate(29.859 38.776)"/><path class="bh" d="M29.01,43.161c129.126-2.836,217.684,40.286,318.215,40.286C460.471,83.448,587.173,15,700.468,15,673.9,192.573,737.474,691.264,729.014,720.355c-101.916,3.569-254.2-3.276-412.067-7.48-111.959-2.982-218.08-6.747-308.766-21.268C4.62,634.11,21.342,108.725,29.01,43.161Z" transform="translate(30.372 39.709)"/><path class="bi" d="M28.411,42.617C157.983,39.732,246.1,83.588,346.626,83.588c113.245,0,239.75-68.448,352.946-68.448C673.1,192.713,735.935,690.475,727.524,719.174c-102.064,3.667-253.949-3.129-411.127-7.382-111.86-3.031-217.684-6.943-308.023-21.414C4.713,632.539,20.891,108.669,28.411,42.617Z" transform="translate(30.972 40.254)"/><path class="bj" d="M27.956,41.878c129.77-2.933,217.932,41.558,318.017,41.558,113.146,0,239.5-68.106,352.649-68.106-26.37,177.573,35.671,674.358,27.26,702.764-102.163,3.716-253.6-3.031-410.137-7.383-111.761-3.08-217.684-7.089-307.281-21.463C4.951,630.774,20.634,108.468,27.956,41.878Z" transform="translate(31.427 40.993)"/><path class="bk" d="M27.618,41.178C157.635,38.2,245.649,83.322,345.437,83.322c113.047,0,239.255-67.812,352.352-67.812-26.32,177.622,34.978,673.478,26.567,701.541-102.262,3.765-253.306-2.933-409.148-7.334-111.662-3.129-217.239-7.285-306.737-21.61C5.306,629.047,20.494,108.257,27.618,41.178Z" transform="translate(31.764 41.693)"/><path class="bl" d="M27.046,40.439C157.261,37.408,245.126,83.17,344.618,83.17c113.047,0,239.107-67.47,352.1-67.47C670.5,193.322,731.008,688.249,722.647,715.921c-102.411,3.862-253.009-2.787-408.208-7.236C202.826,705.458,97.5,701.2,8.642,686.977,5.426,627.281,20.12,108.007,27.046,40.439Z" transform="translate(32.336 42.432)"/><path class="bm" d="M26.7,39.7c130.413-3.08,218.179,43.269,317.374,43.269,112.949,0,238.859-67.079,351.808-67.079-26.172,177.622,33.593,671.62,25.232,699.145C618.6,718.947,468.446,712.3,313.89,707.8c-111.514-3.227-216.646-7.627-305.055-21.806C5.52,625.516,19.67,107.806,26.7,39.7Z" transform="translate(32.935 43.171)"/><path class="bn" d="M26.31,38.844c130.611-3.129,218.229,44,317.176,44,112.85,0,238.612-66.737,351.263-66.737C668.677,193.732,727.7,686.8,719.487,713.789c-102.559,3.96-252.316-2.64-406.229-7.187-111.415-3.324-216.349-7.823-304.313-21.9C5.729,623.633,19.384,107.439,26.31,38.844Z" transform="translate(33.419 44.026)"/><path class="bo" d="M25.813,38.222c130.809-3.178,218.278,44.442,316.978,44.442,112.8,0,238.364-66.394,351.264-66.394-25.974,177.622,32.257,669.811,23.9,696.359-102.658,4.058-252.019-2.493-405.239-7.138-111.316-3.325-216.052-7.969-303.571-22C5.825,622.033,18.985,107.306,25.813,38.222Z" transform="translate(34.015 44.649)"/><path class="bp" d="M25.428,37.367C156.434,34.14,243.8,82.542,342.159,82.542c112.751,0,238.167-66.052,350.917-66.052-25.924,177.622,31.564,668.833,23.253,695.088-102.806,4.107-251.772-2.4-404.3-7.089-111.217-3.422-215.8-8.165-302.779-22.1C6.034,620.346,18.7,106.988,25.428,37.367Z" transform="translate(34.499 45.504)"/><path class="bq" d="M24.988,36.744c131.2-3.276,218.427,45.567,316.632,45.567,112.652,0,237.919-65.661,350.62-65.661-25.825,177.622,30.872,667.855,22.56,693.816-102.905,4.156-251.426-2.3-403.31-7.04C200.372,699.906,95.983,695.065,9.4,681.18,6.188,618.5,18.358,106.854,24.988,36.744Z" transform="translate(35.038 46.126)"/><path class="br" d="M24.641,36.005c131.4-3.325,218.525,46.153,316.335,46.153,112.6,0,237.474-65.319,350.274-65.319-25.726,177.622,30.229,666.926,21.917,692.5-103,4.253-251.079-2.151-402.32-6.991C199.828,698.825,95.636,693.838,9.5,680.05,6.386,616.736,18.111,106.6,24.641,36.005Z" transform="translate(35.483 46.865)"/><path class="bs" d="M24.2,35.305c131.6-3.373,218.575,46.74,316.088,46.74,112.553,0,237.474-65.025,350.027-65.025C664.691,194.691,720,683.066,711.592,708.294c-103.153,4.253-250.832-2.1-401.38-6.943-110.97-3.618-214.914-8.7-300.553-22.441C6.542,615.009,17.723,106.393,24.2,35.305Z" transform="translate(36.02 47.565)"/><path class="bt" d="M23.744,34.566c131.847-3.422,218.723,47.327,315.939,47.327,112.454,0,237.474-64.683,349.73-64.683-25.578,177.671,28.843,664.922,20.581,689.954-103.252,4.351-250.486-1.956-400.391-6.894-110.871-3.618-214.617-8.849-299.811-22.49C6.725,613.244,17.411,106.192,23.744,34.566Z" transform="translate(36.53 48.304)"/><path class="bu" d="M23.386,33.827c132.045-3.471,218.773,47.913,315.741,47.913,112.355,0,237.029-64.341,349.433-64.341-25.479,177.622,28.151,664.188,19.79,688.683-103.351,4.4-250.189-1.858-399.4-6.845C198.177,695.522,94.629,690.193,9.88,676.65,6.961,611.478,17.153,105.942,23.386,33.827Z" transform="translate(36.986 49.043)"/><path class="bv" d="M22.943,33.089C155.434,29.373,241.815,81.54,338.486,81.54c112.305,0,236.781-63.95,349.087-63.95C662.193,195.212,715.08,680.849,706.868,705c-103.45,4.449-249.892-1.76-398.462-6.8-110.673-3.765-214.023-9.24-298.327-22.734C7.012,609.712,16.907,105.692,22.943,33.089Z" transform="translate(37.528 49.782)"/><path class="bw" d="M22.441,32.311c132.392-3.716,218.921,49.038,315.444,49.038,112.256,0,236.583-63.559,348.839-63.559-25.331,177.622,26.815,662.281,18.6,686.091-103.549,4.547-249.546-1.613-397.472-6.747-110.574-3.814-213.776-9.387-297.584-22.783C7.2,607.957,16.306,105.452,22.441,32.311Z" transform="translate(38.129 50.56)"/><path class="bx" d="M22.158,31.494C154.8,27.778,241.179,81.119,337.5,81.119,449.413,81.119,573.592,18,685.8,18c-25.232,177.475,26.122,661.206,17.811,684.478-103.895,4.6-249.249-1.516-396.483-6.7C196.652,691.918,93.648,686,10.285,672.85,7.514,606.113,16.172,105.124,22.158,31.494Z" transform="translate(38.511 51.377)"/><path class="by" d="M21.7,30.988c132.837-3.716,219.07,50.065,314.9,50.065,112.107,0,236.138-62.923,348.246-62.923-25.182,177.622,25.43,660.424,17.217,683.549-103.895,4.645-248.9-1.467-395.443-6.649C196.193,691.07,93.387,685.252,10.469,672,7.649,604.581,15.812,105.108,21.7,30.988Z" transform="translate(39.069 51.882)"/><path class="bz" d="M21.293,30.133c133.035-3.716,219.119,50.749,314.653,50.749,112.058,0,235.94-62.532,348-62.532-25.083,177.622,24.737,659.495,16.574,682.229-103.895,4.889-248.655-1.32-394.5-6.6C195.687,689.97,93.277,684.2,10.606,670.853,7.836,602.7,15.5,104.643,21.293,30.133Z" transform="translate(39.574 52.738)"/><path class="ca" d="M20.887,29.394C154.12,25.629,240.1,80.73,335.342,80.73c111.959,0,235.693-62.19,347.652-62.19C658.01,196.162,707.088,677.106,698.924,699.5c-103.895,4.889-248.309-1.222-393.514-6.551-110.227-4.058-212.737-10.121-294.666-23.223C8.024,600.933,15.2,104.54,20.887,29.394Z" transform="translate(40.079 53.477)"/><path class="cb" d="M20.5,28.694C154.075,24.88,239.763,80.616,334.753,80.616c111.91,0,235.445-61.9,347.355-61.9-24.737,177.671,23.4,657.686,15.238,679.589-103.895,4.889-247.962-1.124-392.524-6.551C194.643,687.651,92.48,681.539,10.9,668.436,8.177,599.206,14.905,104.329,20.5,28.694Z" transform="translate(40.569 54.177)"/><path class="cc" d="M20.082,27.955C153.76,24.239,239.449,80.464,334.141,80.464c111.811,0,235.2-61.554,347.058-61.554-24.737,177.671,22.708,656.757,14.595,678.416-104.241,4.889-247.715-.978-391.585-6.454-110.079-4.156-212.094-10.414-293.181-23.419C8.406,597.441,14.541,104.079,20.082,27.955Z" transform="translate(41.082 54.916)"/><path class="cd" d="M19.7,27.216C153.571,23.5,239.111,80.263,333.507,80.263c111.761,0,235-61.163,346.811-61.163-24.737,177.671,22.016,655.779,13.9,677.144-104.34,4.889-247.369-.929-390.595-6.4-109.98-4.254-211.8-10.609-292.439-23.566C8.564,595.528,14.253,103.877,19.7,27.216Z" transform="translate(41.567 55.655)"/><path class="ce" d="M19.453,26.36c134.074-3.96,219.515,53.78,313.614,53.78,111.712,0,234.8-60.821,346.316-60.821-24.737,177.671,21.373,654.85,13.259,675.873-104.39,4.889-247.072-.831-389.606-6.4-109.881-4.254-211.5-10.756-291.9-23.615C8.915,593.842,14.11,103.511,19.453,26.36Z" transform="translate(41.908 56.51)"/><path class="cf" d="M18.839,25.738c134.272-4.009,219.564,54.22,313.416,54.22,111.613,0,234.555-60.479,346.316-60.479-24.737,177.671,20.68,653.921,12.616,674.7-104.538,4.889-246.775-.684-388.666-6.307-109.782-4.351-211.2-10.952-290.955-23.761C8.9,592.193,13.6,103.377,18.839,25.738Z" transform="translate(42.621 57.133)"/><path class="cg" d="M18.508,24.882c134.47-4.058,219.663,54.954,313.169,54.954C443.24,79.836,566.034,19.7,677.6,19.7c-24.49,177.671,20.037,652.992,11.923,673.282-104.637,5.134-246.429-.587-387.676-6.307-109.683-4.4-210.907-11.1-290.213-23.81C9.158,590.31,13.363,103.06,18.508,24.882Z" transform="translate(43.051 57.988)"/><path class="ch" d="M18.124,24.26c134.668-4.107,219.713,55.394,312.971,55.394,111.464,0,234.11-59.794,345.623-59.794-24.44,177.671,19.344,652.063,11.231,672.011-104.736,5.182-246.132-.538-386.687-6.258-109.584-4.449-210.61-11.294-289.471-23.957C9.367,588.661,13.028,102.926,18.124,24.26Z" transform="translate(43.535 58.611)"/><path class="ci" d="M17.813,23.521c134.865-4.156,219.762,55.932,312.773,55.932,111.415,0,233.862-59.4,345.277-59.4-24.292,177.671,18.7,651.134,10.587,670.691-104.835,5.28-245.785-.391-385.9-6.16C191.07,680.034,90.243,673.091,11.827,660.526,9.65,586.945,12.817,102.921,17.813,23.521Z" transform="translate(43.944 59.349)"/><path class="cj" d="M17.313,22.821c135.063-4.2,219.861,56.518,312.526,56.518,111.365,0,233.714-59.11,345.03-59.11C650.626,197.9,692.877,670.484,684.763,689.7c-104.983,5.329-245.538-.293-384.757-6.16-109.386-4.4-209.967-11.636-287.937-23.957C9.892,585.169,12.415,102.514,17.313,22.821Z" transform="translate(44.544 60.049)"/><path class="ck" d="M16.993,22C152.254,17.751,237.052,79.11,329.32,79.11c111.266,0,233.467-58.67,344.733-58.67-24.143,177.671,17.316,649.276,9.252,668.2-105.082,5.378-245.192-.244-383.768-6.111C190.2,677.637,89.768,670.694,12.293,658.08,10.017,583.326,12.194,102.186,16.993,22Z" transform="translate(44.963 60.866)"/><path class="cl" d="M16.556,21.538c135.509-4.3,220.059,57.692,312.179,57.692,111.217,0,233.219-58.67,344.436-58.67-24.094,178.16,16.623,648.592,8.658,667.073-105.181,5.476-244.895,0-382.778-6.014-109.238-4.889-209.472-12.027-286.5-24.446C10.224,581.881,11.906,102.208,16.556,21.538Z" transform="translate(45.449 61.333)"/><path class="cm" d="M16.261,20.932c135.805-4.351,219.911,58.23,311.981,58.23,111.118,0,232.972-58.034,344.09-58.034C648.387,198.8,688.312,668.547,680.3,686.734c-105.33,5.476-244.6,0-381.838-6.014C189.32,675.831,89.284,668.547,12.7,656.275,10.473,580.249,11.66,102.092,16.261,20.932Z" transform="translate(45.843 61.938)"/><path class="cn" d="M15.95,20.935c135.9-4.4,220.208,58.67,311.685,58.67,110.97.147,232.823-57.5,343.892-57.5C647.63,199.779,686.813,668.6,678.8,686.443c-105.379,5.525-244.252,0-380.948-5.965-108.842-4.889-208.878-12.369-285.018-24.446C10.755,579.469,11.448,102.632,15.95,20.935Z" transform="translate(46.253 61.936)"/><path class="co" d="M15.588,20.937c136.1-4.449,220.257,59.4,311.685,59.4C438.292,80.34,559.8,22.99,670.819,22.99c-23.8,177.671,14.595,645.365,6.58,663.015-105.478,5.622-243.955,0-379.859-5.916C188.7,675.2,88.958,667.573,13.263,655.643,10.987,578.2,11.185,103.123,15.588,20.937Z" transform="translate(46.713 61.934)"/><path class="cp" d="M15.321,20.939c136.3-4.5,220.356,59.843,311.338,59.843,110.92,0,232.526-57.007,343.249-57.007-23.747,177.671,13.9,644.632,5.937,661.744-105.627,5.671-243.658.293-378.919-5.867C188.083,674.762,88.641,666.94,13.392,654.913,11.314,577.175,11.017,103.614,15.321,20.939Z" transform="translate(47.079 61.932)"/><path class="cq" d="M15.052,20.941c136.5-4.547,220.405,60.527,311.091,60.527,110.871,0,232.131-56.616,343-56.616-23.648,177.671,13.21,643.7,5.244,660.424-105.725,5.769-243.361.44-377.93-5.769C187.616,674.618,88.422,666.6,13.667,654.621,11.638,576.151,10.847,104.154,15.052,20.941Z" transform="translate(47.447 61.93)"/><path class="cr" d="M14.82,20.943c136.7-4.6,220.455,61.114,310.893,61.114,110.772,0,231.883-56.274,342.655-56.274-23.549,177.671,12.566,642.725,4.6,659.152-105.824,5.818-243.015.489-376.94-5.769-108.842-4.889-207.79-13.054-282-24.935C12,575.126,10.664,104.645,14.82,20.943Z" transform="translate(47.779 61.928)"/><path class="cs" d="M14.611,20.964c136.894-4.889,220.554,61.7,310.7,61.7,110.722,0,231.636-55.981,342.358-55.981-23.5,177.72,11.874,641.845,3.908,657.93-105.923,5.867-242.669.587-376-5.72-108.595-5.134-207.443-13.25-281.308-25.081C12.385,574.12,10.554,105.253,14.611,20.964Z" transform="translate(48.086 61.907)"/><path class="ct" d="M14.417,20.947c137.092-4.694,220.6,62.288,310.5,62.288C435.537,83.235,556.3,27.6,666.975,27.6c-23.4,177.72,11.181,640.916,3.265,656.61-106.072,5.965-242.421.733-375.011-5.671-108.5-5.183-207.147-13.4-280.566-25.13C12.784,573.126,10.459,105.627,14.417,20.947Z" transform="translate(48.38 61.923)"/><path class="cu" d="M14.249,20.961c137.29-4.889,220.7,62.874,310.25,62.874,110.574,0,231.191-55.3,341.814-55.3-23.352,177.72,10.488,639.987,2.573,655.143-106.171,6.014-242.075.782-374.021-5.622-108.4-5.28-206.85-13.592-279.823-25.277C13.21,572.112,10.39,106.178,14.249,20.961Z" transform="translate(48.646 61.91)"/><path class="cv" d="M14.05,20.959C151.587,16.07,234.8,84.518,324.1,84.518c110.524,0,230.993-54.9,341.369-54.9-23.2,177.72,9.895,639.058,1.929,654.068-106.22,6.014-241.729.88-373.032-5.574-108.2-5.476-206.454-13.934-278.982-25.277C13.6,571.084,10.439,106.665,14.05,20.959Z" transform="translate(48.944 61.912)"/><path class="cw" d="M13.989,20.958c137.735-4.889,220.851,64,309.854,64,110.425,0,230.745-54.563,341.369-54.563-23.154,177.72,9.153,638.129,1.286,652.748-106.369,6.111-241.481,1.027-372.092-5.525-108.2-5.378-206.256-13.885-278.339-25.472C14.137,570.056,10.278,107.153,13.989,20.958Z" transform="translate(49.105 61.913)"/><path class="cx" d="M13.957,20.956c137.933-4.889,220.9,64.732,309.607,64.732,110.376,0,230.548-54.22,340.923-54.22-23.055,177.72,8.46,637.2.594,651.476-106.467,6.16-241.135,1.076-371.053-5.476-108.1-5.476-205.959-14.081-277.6-25.57C14.649,569.027,10.147,107.689,13.957,20.956Z" transform="translate(49.235 61.915)"/><path class="cy" d="M13.793,20.954c138.131-4.889,221,65.172,309.409,65.172,110.326,0,230.3-53.78,340.627-53.78-23.005,177.671,7.767,636.222,0,650.254-106.566,6.209-240.838,1.173-370.113-5.427C185.665,671.6,88,662.9,16.662,651.457,15.079,568,10.28,108.177,13.793,20.954Z" transform="translate(49.498 61.916)"/><path class="cz" d="M13.7,20.953c138.526-4.889,221.049,65.71,309.211,65.71,110.228,0,230.053-53.487,340.28-53.487-22.857,177.671,7.124,635.293-.445,648.983-106.715,6.307-240.541,1.271-369.173-5.378-107.952-5.574-205.415-14.423-276.113-25.766C15.585,566.971,10.291,108.664,13.7,20.953Z" transform="translate(49.685 61.918)"/><path class="da" d="M13.634,20.952c138.526-4.889,221.1,66.3,308.963,66.3,110.178,0,229.855-53.194,340.033-53.194-22.807,177.72,6.432,634.413-1.385,647.663-106.814,6.356-240.244,1.369-368.183-5.329-107.853-5.671-205.118-14.667-275.371-25.863C16.108,565.943,10.319,109.2,13.634,20.952Z" transform="translate(49.855 61.919)"/><path class="db" d="M13.586,20.95c138.526-4.889,221.2,66.883,308.766,66.883,110.079,0,229.608-52.852,339.736-52.852-22.708,177.72,5.739,633.484-2.078,646.392-106.913,6.4-239.9,1.467-367.194-5.329-107.754-5.72-204.821-14.667-274.629-25.961C16.653,564.817,10.321,109.688,13.586,20.95Z" transform="translate(50.002 61.921)"/><path class="dc" d="M13.53,20.949c138.922-4.889,221.247,67.47,308.568,67.47,110.03,0,229.41-52.509,339.439-52.509-22.659,177.72,4.947,632.556-2.721,645.072-107.061,6.5-239.6,1.565-366.106-5.232-107.655-5.769-204.524-14.961-273.887-26.059C17.191,563.935,10.364,110.126,13.53,20.949Z" transform="translate(50.157 61.922)"/><path class="dd" d="M13.456,20.965c139.12-5.134,221.395,68.057,308.419,68.057,109.931,0,229.162-52.216,339.093-52.216-22.51,177.72,4.4,631.627-3.364,643.8-107.16,6.551-239.3,1.662-365.265-5.182C184.784,669.557,88.112,660.268,19.2,649.218,17.761,562.925,10.439,110.73,13.456,20.965Z" transform="translate(50.28 61.906)"/><path class="de" d="M13.417,20.968c139.368-5.182,221.444,68.448,308.172,68.448,109.881,0,228.964-51.776,338.845-51.776-22.461,177.72,3.711,630.7-4.057,642.529-107.21,6.6-238.958,1.711-364.275-5.182-107.457-5.916-203.931-15.3-272.4-26.255C18.314,561.9,10.5,111.221,13.417,20.968Z" transform="translate(50.419 61.903)"/><path class="df" d="M13.389,20.97c139.565-5.231,221.543,69.181,307.974,69.181,109.832,0,228.717-51.434,338.549-51.434-22.411,177.72,3.018,629.72-4.947,641.209-107.309,6.7-238.612,1.858-363.286-4.889-107.358-6.014-203.683-15.5-271.66-26.4C18.733,560.876,10.569,111.712,13.389,20.97Z" transform="translate(50.545 61.901)"/><path class="dg" d="M13.366,20.972c139.763-5.28,221.593,69.621,307.776,69.621,109.733,0,228.47-51.091,338.252-51.091C637.081,217.222,661.719,668.293,654,679.44c-107.457,6.7-238.365,1.956-362.346-4.889C184.4,668.537,88.269,658.906,20.737,648.1,19.451,559.95,10.6,112.2,13.366,20.972Z" transform="translate(50.667 61.899)"/><path class="dh" d="M13.435,20.974C153.4,15.645,235.078,91.328,320.964,91.328c109.683,0,228.321-50.749,337.955-50.749C636.705,218.3,660.6,668.441,652.883,679.2c-107.556,6.8-238.018,2.053-361.158-4.889-107.21-6.111-202.842-15.841-270.176-26.6C19.867,558.827,10.566,112.743,13.435,20.974Z" transform="translate(50.895 61.897)"/><path class="di" d="M13.367,20.976C153.526,15.6,235.108,91.868,320.7,91.868c109.535,0,227.975-50.162,337.559-50.162-22.115,177.769.989,626.982-6.728,637.4-107.655,6.845-237.721,2.151-360.367-4.889C184.051,668,88.319,658.176,21.728,647.518,20.491,557.8,10.7,113.234,13.367,20.976Z" transform="translate(50.963 61.895)"/><path class="dj" d="M13.305,20.978C153.662,15.551,235.1,92.457,320.438,92.457c109.535,0,227.827-50.065,337.361-50.065-22.065,177.769.3,626.053-7.372,636.125-107.8,6.894-237.474,2.2-359.427-4.889C183.99,667.516,88.505,657.4,22.309,646.787,21.122,556.827,10.831,113.725,13.305,20.978Z" transform="translate(51.025 61.893)"/><path class="dk" d="M13.251,20.98C153.806,15.5,235.141,93.046,319.988,93.046c109.436,0,227.579-49.722,337.064-49.722-21.966,177.769-.4,625.124-8.064,634.8-107.9,6.991-237.128,2.347-358.437-4.889-106.913-6.356-202.2-16.379-267.95-26.89C21.761,555.8,10.975,114.265,13.251,20.98Z" transform="translate(51.079 61.89)"/><path class="dl" d="M13.212,20.982c140.951-5.525,222.137,72.652,306.737,72.652,109.386,0,227.579-49.38,336.817-49.38-21.917,177.769-1.088,624.146-8.757,633.533-108,7.04-236.781,2.4-357.448-4.889-106.814-6.4-201.9-16.574-267.158-27.037C22.414,554.778,11.084,114.756,13.212,20.982Z" transform="translate(51.118 61.888)"/><path class="dm" d="M13.282,20.984C154.233,15.411,235.32,94.321,320.019,94.321c109.337,0,227.134-48.891,336.421-48.891-21.768,177.769-1.732,623.217-9.4,632.262-108.051,7.089-236.435,2.493-356.458-4.889-106.715-6.454-201.655-16.721-266.466-27.086C22.88,553.753,11.056,115.051,13.282,20.984Z" transform="translate(51.345 61.886)"/><path class="dn" d="M13.276,20.987c141.149-5.622,222.236,73.777,306.341,73.777,109.238,0,226.936-48.891,336.421-48.891-21.719,177.72-2.424,622.288-9.895,630.7-108.2,7.187-236.188,2.64-355.518-4.889C184.01,665.13,89.268,654.765,24.9,644.448,23.468,552.729,11.149,115.738,13.276,20.987Z" transform="translate(51.449 61.884)"/><path class="do" d="M13.273,20.989C154.62,15.317,235.41,95.5,319.516,95.5c109.189,0,226.738-48.3,335.927-48.3-21.62,177.72-3.117,621.359-10.736,629.671-108.3,7.236-235.841,2.689-354.529-4.889-106.517-6.6-201.061-17.063-264.981-27.281C24.059,551.7,11.245,116.278,13.273,20.989Z" transform="translate(51.551 61.882)"/><path class="dp" d="M13.272,20.991c141.594-5.72,222.038,74.95,305.847,74.95,109.139,0,226.491-47.962,335.63-47.962-21.57,177.72-3.81,620.43-11.428,628.4-108.4,7.285-235.5,2.738-353.539-4.645-106.418-6.7-200.764-17.259-264.239-27.428C24.651,550.679,11.343,116.769,13.272,20.991Z" transform="translate(51.651 61.88)"/><path class="dq" d="M13.28,20.993C155.071,15.224,235.615,96.53,318.928,96.53c108.842,0,226.243-47.62,335.283-47.62-21.471,177.72-4.453,619.5-12.022,627.08-108.545,7.334-235.248,2.885-352.6-4.547-106.369-6.8-200.468-17.454-263.5-27.526C25.252,549.655,11.4,117.26,13.28,20.993Z" transform="translate(51.743 61.878)"/><path class="dr" d="M13.282,21c141.99-5.818,222.632,76.075,305.4,76.075,108.842,0,226.045-47.278,335.036-47.278C632.347,227.561,648.772,668.414,641,675.6c-108.842,7.383-234.9,2.982-351.61-4.547-106.27-6.8-200.171-17.552-262.755-27.575C25.848,548.679,11.5,117.8,13.282,21Z" transform="translate(51.84 61.875)"/><path class="ds" d="M13.286,21c142.187-5.867,222.632,76.662,305.2,76.662,108.842,0,225.8-46.936,334.739-46.936-21.323,177.769-5.838,617.644-13.407,624.586-108.842,7.432-234.6,3.031-350.62-4.5C183.031,663.918,89.327,652.869,27.238,643.09,26.4,547.654,11.6,118.291,13.286,21Z" transform="translate(51.934 61.873)"/><path class="dt" d="M13.291,21C155.676,15.084,235.923,98.248,318.3,98.248c108.842,0,225.6-46.593,334.442-46.593-21.224,177.769-6.531,616.715-14.051,623.266-108.842,7.529-234.308,3.178-349.68-4.449C182.936,663.529,89.381,652.577,27.737,642.7,27.144,546.63,11.708,118.782,13.291,21Z" transform="translate(52.029 61.871)"/><path class="du" d="M13.284,21c142.633-5.965,222.632,77.835,304.857,77.835,108.842,0,225.353-46.251,334.1-46.251-21.125,177.769-7.174,616.03-14.842,622-108.842,7.578-233.961,3.227-348.691-4.4-105.973-7.04-199.33-18.09-260.529-27.917C27.631,545.605,11.849,119.322,13.284,21Z" transform="translate(52.085 61.869)"/><path class="dv" d="M13.276,21c142.831-6.014,222.632,78.226,304.61,78.226,108.842,0,225.155-45.86,333.849-45.86-21.026,177.769-7.866,614.857-15.386,620.919-108.842,7.627-233.664,3.276-347.7-4.351C182.773,662.8,89.614,651.653,28.86,641.924,28.217,544.581,12.138,119.96,13.276,21Z" transform="translate(52.192 61.866)"/><path class="dw" d="M13.3,21.006c143.029-6.063,222.632,78.959,304.412,78.959,108.842,0,224.908-45.518,333.552-45.518-20.779,177.964-8.559,613.928-15.831,619.4-109.139,7.725-233.318,3.422-346.662-4.3-105.824-7.187-198.785-18.432-259.094-28.112C28.837,543.556,12.065,120.3,13.3,21.006Z" transform="translate(52.265 61.865)"/><path class="dx" d="M13.328,21.009c143.226-6.111,222.879,79.4,304.214,79.4,108.545,0,224.66-45.176,333.255-45.176-20.878,177.769-9.252,613-16.722,618.133-109.288,7.774-233.021,3.471-345.723-4.254C182.627,661.827,89.864,650.484,30,640.9,29.457,542.532,11.992,120.8,13.328,21.009Z" transform="translate(52.338 61.862)"/><path class="dy" d="M13.328,21.01c143.474-6.16,222.929,80.133,303.967,80.133,108.5,0,224.462-44.736,332.81-44.736-20.779,177.769-9.895,612.07-17.365,616.861-109.386,7.823-232.527,3.569-344.733-4.253C182.38,661.682,89.815,650.241,30.4,640.708,30.05,541.507,12.24,121.335,13.328,21.01Z" transform="translate(52.437 61.86)"/><path class="dz" d="M13.341,21.013c143.474-6.209,222.978,80.72,303.769,80.72,108.446,0,224.264-44.54,332.661-44.54-20.68,177.818-10.587,611.141-18.058,615.59-109.485,7.92-232.527,3.667-343.743-4.156C182.442,661.2,90.075,649.657,31.151,640.221,30.657,540.434,12.351,121.826,13.341,21.013Z" transform="translate(52.523 61.858)"/><path class="ea" d="M13.354,21.015c143.82-6.258,223.077,81.257,303.571,81.257,108.347,0,224.017-44,332.365-44-20.631,177.818-11.28,610.212-18.7,614.319-109.634,7.92-232.081,3.52-342.8-4.107C182.356,660.757,90.137,649.317,31.709,639.93,31.511,539.507,12.464,122.318,13.354,21.015Z" transform="translate(52.609 61.856)"/><path class="eb" d="M13.371,21.017C157.389,14.71,236.5,102.861,316.744,102.861c108.248,0,223.77-44,332.068-44-20.581,177.818-11.973,609.283-19.394,613.048-109.733,7.969-231.784,3.618-341.814-4.107-105.33-7.725-197.351-19.556-255.334-28.6C31.874,538.482,12.53,122.857,13.371,21.017Z" transform="translate(52.69 61.854)"/><path class="ec" d="M13.386,21.019C157.6,14.663,236.612,103.45,316.512,103.45c108.249,0,223.572-43.464,331.82-43.464C627.85,237.8,635.667,668.34,628.246,671.713c-109.832,8.067-231.438,3.765-340.825-4.009-105.28-7.823-197.054-19.557-254.592-28.748C32.434,537.458,12.644,123.349,13.386,21.019Z" transform="translate(52.774 61.852)"/><path class="ed" d="M13.4,21.021c144.414-6.4,223.275,83.115,302.928,83.115,108.15,0,223.324-43.122,331.474-43.122C627.42,238.783,634.5,668.439,627.124,671.471c-109.98,8.116-231.141,3.862-339.884-3.96-105.181-7.871-196.757-19.557-253.85-28.846C33.043,536.433,12.759,123.839,13.4,21.021Z" transform="translate(52.858 61.85)"/><path class="ee" d="M13.418,21.023c144.612-6.454,223.374,83.555,302.73,83.555,108.051,0,223.077-42.731,331.177-42.731-20.284,177.769-14,606.5-21.373,609.137-110.03,8.214-230.844,4.009-338.9-3.911-105.082-7.92-196.51-19.85-253.108-28.846C33.653,535.555,12.874,124.38,13.418,21.023Z" transform="translate(52.94 61.847)"/><path class="ef" d="M13.435,21.025c144.81-6.5,223.423,84.289,302.482,84.289,108.051,0,222.929-42.389,330.93-42.389-20.235,177.769-14.842,605.568-22.065,607.866-110.129,8.263-230.5,4.107-337.906-3.862C181.893,658.91,90.713,646.883,34.561,637.887,34.264,534.384,12.99,124.87,13.435,21.025Z" transform="translate(53.022 61.846)"/><path class="eg" d="M13.454,21.028c145.007-6.551,223.522,84.729,302.284,84.729,107.952,0,222.632-42.047,330.633-42.047C626.236,241.479,630.985,668.3,623.614,670.3c-110.227,8.311-230.2,4.156-336.916-3.862C181.813,658.423,90.831,646.25,35.074,637.107,34.876,533.36,13.058,125.362,13.454,21.028Z" transform="translate(53.102 61.843)"/><path class="eh" d="M13.472,21.03c145.255-6.6,223.572,85.315,302.087,85.315,107.853,0,222.632-41.7,330.287-41.7C626.056,242.41,629.816,668.3,622.494,669.915c-110.376,8.409-229.9,4.3-335.976-3.765C181.733,658.034,90.9,645.763,35.637,636.816,35.488,532.384,13.176,125.853,13.472,21.03Z" transform="translate(53.183 61.841)"/><path class="ei" d="M13.491,21.032c145.453-6.649,223.621,85.853,301.79,85.853,107.8,0,222.186-41.362,329.99-41.362C625.481,243.341,628.549,668.3,621.226,669.575c-110.475,8.458-229.558,4.4-334.987-3.716S90.917,645.276,36.1,636.525C36.1,531.359,13.293,126.393,13.491,21.032Z" transform="translate(53.263 61.839)"/><path class="ej" d="M13.51,21.034c145.651-6.7,223.72,86.44,301.79,86.44,107.754,0,221.989-41.02,329.742-41.02-19.789,177.818-17.415,601.852-24.737,602.781-110.574,8.507-229.261,4.5-334-3.716s-195.025-20.73-249.4-29.335C36.713,530.335,13.411,126.884,13.51,21.034Z" transform="translate(53.343 61.837)"/><path class="ek" d="M619.039,668.846C397.2,686.007,144.982,652.907,37.327,635.7c0-106.387-23.8-508.469-23.8-614.661,145.8-6.747,223.77,87.027,301.443,87.027,107.655,0,221.741-40.678,329.446-40.678C624.63,245.2,626.312,668.308,619.039,668.846Z" transform="translate(53.422 61.834)"/></g><g transform="translate(2.98 -0.036)"><rect class="el" width="730.826" height="722.222" transform="translate(0 23.597)"/><path class="em" d="M220.52,48.079C219.926,36.639,213.3,26.665,204,24.514a15.01,15.01,0,0,0-3.562-.44A16.69,16.69,0,0,0,189.9,27.985,57.408,57.408,0,0,0,172.085,13.66l-50.711.44a35.845,35.845,0,0,0-16.425,25.668,37.258,37.258,0,0,0,0,9.387,47.384,47.384,0,0,0,1.831,8.165l.594,1.662L69.922,68.125l-.792,5.867L112.42,69.1l.247.489A57.708,57.708,0,0,0,147.3,92.913a54.738,54.738,0,0,0,12.368,1.467,41.223,41.223,0,0,0,37.2-20.339h.594a15.611,15.611,0,0,0,3.661.44c8.806,0,16.673-7.529,18.948-18.579a16.457,16.457,0,0,0,.4-2.249,30.254,30.254,0,0,0,.049-5.574Z" transform="translate(269.913 53.304)"/><path class="en" d="M71.861,51.09,94.471,27.574,84.922,19.36,68.2,48.353Z" transform="translate(266.242 75.472)"/><path class="eo" d="M71.49,30.169C88.311,1.274,126.7-8.015,157.327,9.39s41.855,54.9,25.083,83.751S127.2,131.325,96.573,113.919,54.718,59.014,71.49,30.169Z" transform="translate(248.506 2.571)"/><path class="ep" d="M76.17,18.385a22.21,22.21,0,0,1,40.878,3.741,21.7,21.7,0,0,1-7.46,23.354,22.329,22.329,0,0,1-24.711,1.849A21.238,21.238,0,0,1,76.17,18.385Z" transform="translate(287.412 25.453)"/><path class="eq" d="M88.383,60.789C72.848,44.557,70.177,21.676,80.714,5.64c-.346.293-.792.489-1.138.831-16.524,15.6-15.634,42.975,2.276,61.554s45.516,21.17,62.04,5.769a34.77,34.77,0,0,0,5.442-6.356C132.662,81.764,105.748,79.026,88.383,60.789Z" transform="translate(264.563 22.113)"/><path class="er" d="M77.883,17.009A35.59,35.59,0,0,1,99.835,1a35.986,35.986,0,0,1,26.977,4.034,35.039,35.039,0,0,1,14.3,47.767,35.864,35.864,0,0,1-48.93,11.832,34.99,34.99,0,0,1-14.3-47.62Z" transform="translate(287.579 0.036)"/><path class="es" d="M79.179,14.187A28.641,28.641,0,0,1,118.264,4.7a28.04,28.04,0,0,1,11.428,38.184,28.692,28.692,0,0,1-39.084,9.436A28.135,28.135,0,0,1,76.877,35.6a27.769,27.769,0,0,1,2.3-21.414Z" transform="translate(295.881 2.614)"/><path class="et" d="M97.978,49.171A27.992,27.992,0,0,1,86.55,10.987,26.392,26.392,0,0,1,97.582.72a27.155,27.155,0,0,0-18.4,12.81A28.04,28.04,0,0,0,90.607,51.714a29.594,29.594,0,0,0,28.1.782,30.29,30.29,0,0,1-20.73-3.325Z" transform="translate(295.981 2.978)"/></g></g></svg>