<svg xmlns="http://www.w3.org/2000/svg" xmlns:xlink="http://www.w3.org/1999/xlink" width="543" height="505" viewBox="0 0 543 505">
  <defs>
    <style>
      .cls-1 {
        fill: #f2ea02;
      }

      .cls-2 {
        fill: #f7f7f7;
      }

      .cls-3 {
        fill: #fcd2b1;
      }

      .cls-4 {
        fill: #f2f2f2;
      }

      .cls-5 {
        fill: #b6e7ff;
      }

      .cls-6 {
        fill: #fff;
      }

      .cls-7 {
        fill: #0b4870;
      }

      .cls-8 {
        fill: #ffe3ca;
      }

      .cls-9 {
        clip-path: url(#clip-path);
      }

      .cls-10 {
        fill: #2a94f4;
      }

      .cls-11 {
        fill: #41aaf7;
      }

      .cls-12 {
        fill: #ffbe55;
      }

      .cls-13 {
        fill: none;
        stroke: #fff;
        stroke-miterlimit: 10;
      }

      .cls-14 {
        fill: #cce9ff;
      }

      .cls-15 {
        fill: #85ddff;
      }

      .cls-16 {
        filter: url(#Ellipse_22);
      }
    </style>
    <filter id="Ellipse_22" x="0" y="0" width="543" height="505" filterUnits="userSpaceOnUse">
      <feOffset dx="2" dy="2" input="SourceAlpha"/>
      <feGaussianBlur stdDeviation="2.5" result="blur"/>
      <feFlood flood-opacity="0.161"/>
      <feComposite operator="in" in2="blur"/>
      <feComposite in="SourceGraphic"/>
    </filter>
    <clipPath id="clip-path">
      <path id="Path_266" data-name="Path 266" d="M251.059,575.847H114.8a12.845,12.845,0,0,1-12.957-12.729V284.739A12.845,12.845,0,0,1,114.8,272.01H251.059a12.845,12.845,0,0,1,12.957,12.729V563.113A12.848,12.848,0,0,1,251.059,575.847Z" transform="translate(-101.84 -272.01)"/>
    </clipPath>
  </defs>
  <g id="Group_173" data-name="Group 173" transform="translate(-195.5 -2887.5)">
    <g class="cls-16" transform="matrix(1, 0, 0, 1, 195.5, 2887.5)">
      <ellipse id="Ellipse_22-2" data-name="Ellipse 22" class="cls-1" cx="264" cy="245" rx="264" ry="245" transform="translate(5.5 5.5)"/>
    </g>
    <g id="live-chat" transform="translate(214.383 2850)">
      <g id="Group_130" data-name="Group 130" transform="translate(105.405 130.591)">
        <path id="Path_256" data-name="Path 256" class="cls-2" d="M424.789,190.29a84.023,84.023,0,0,1,34.241,7.563,64.793,64.793,0,0,1,19.964,13.91c11.014,11.624,15.365,28.637,7.847,41.406-6.275,10.657-20.082,18.3-20.244,30.563-.194,14.292,18.266,23.817,34.354,26.773s34.137,3.52,46.217,13.706c10.4,8.766,13.169,22.809,9.713,34.562s-12.2,21.54-21.943,29.9c-24.405,20.954-55.727,34.731-87.831,45.6-67.835,22.951-141.413,34.145-215.523,32.778-18.505-.342-39.17-2.3-52.145-14.562-13.084-12.357-13.5-31.939-4.943-46.093s24.32-23.666,40.778-30.594,34.114-11.771,50.134-19.392c12.094-5.752,24.5-16.751,19.363-28.544-3.65-8.375-14.371-12.419-23.809-15.823-13.332-4.811-26.61-10.413-37.507-18.877s-19.264-20.2-20.1-32.653c-.777-11.624,5.092-22.711,13.757-31.033s19.96-14.19,31.53-19.2C294.351,190.494,392.979,189.921,424.789,190.29Z" transform="translate(-168.726 -190.226)"/>
      </g>
      <path id="Path_257" data-name="Path 257" class="cls-3" d="M641.134,445.714c-6.926-8.806-17.525-36.431-11-47.243,3.262,8.806,8.15,19.218,8.15,19.218-2.851-16.813,10.188-31.628,16.3-34.029,9.375,6.8,15.487,24.42,15.487,24.42s-11.819,41.237-15.894,41.237S641.134,445.714,641.134,445.714Z" transform="translate(-315.153 -167.214)"/>
      <path id="Path_258" data-name="Path 258" class="cls-4" d="M494.223,973.891H57.728a4.253,4.253,0,0,1-4.278-4.2V953.6a4.253,4.253,0,0,1,4.278-4.2h436.49a4.253,4.253,0,0,1,4.278,4.2v16.085A4.246,4.246,0,0,1,494.223,973.891Z" transform="translate(-0.124 -481.855)"/>
      <g id="Group_131" data-name="Group 131" transform="translate(65.126 156.389)">
        <path id="Path_259" data-name="Path 259" class="cls-5" d="M240.613,572.568H100.822A21.067,21.067,0,0,1,79.57,551.69V269.228a21.067,21.067,0,0,1,21.252-20.878H240.613a21.067,21.067,0,0,1,21.252,20.878V551.685A21.068,21.068,0,0,1,240.613,572.568Z" transform="translate(-79.57 -248.35)"/>
        <path id="Path_260" data-name="Path 260" class="cls-6" d="M251.059,575.847H114.8a12.845,12.845,0,0,1-12.957-12.729V284.739A12.845,12.845,0,0,1,114.8,272.01H251.059a12.845,12.845,0,0,1,12.957,12.729V563.113A12.848,12.848,0,0,1,251.059,575.847Z" transform="translate(-91.779 -261.509)"/>
        <path id="Path_261" data-name="Path 261" class="cls-5" d="M166.53,269.22l8.484,10.608a17.451,17.451,0,0,0,13.617,6.68h58.89a17.465,17.465,0,0,0,13.617-6.68l8.484-10.608Z" transform="translate(-127.243 -259.957)"/>
      </g>
      <g id="Group_132" data-name="Group 132" transform="translate(53.223 207.398)">
        <path id="Path_262" data-name="Path 262" class="cls-7" d="M214.3,406.2c3.235-10.643-1.513-22.583-9.849-30.088s-19.666-11.1-30.9-12.343c-8.841-.981-17.963-.617-26.362,2.255s-16.043,8.424-20.294,16.1c-4.667,8.429-4.911,18.433-5.607,28s-2.232,19.747-8.719,26.915c-5.2,5.748-12.8,8.668-19.689,12.312A90.146,90.146,0,0,0,66.2,470.82c-5.9,7-10.775,15.1-12.42,24.034s.3,18.806,6.56,25.494c5.787,6.183,14.385,8.97,22.747,10.728,8.534,1.793,17.556,2.752,25.887.2,9.239-2.827,16.707-9.725,22.151-17.581s9.131-16.728,13.129-25.383c5.132-11.1,10.983-22.148,19.829-30.7,9.37-9.059,21.523-14.762,31.928-22.663s19.549-19.485,18.609-32.37" transform="translate(-53.223 -363.275)"/>
      </g>
      <path id="Path_263" data-name="Path 263" class="cls-7" d="M327.42,455.538c-2.444-22.019-4.075-25.623-23.637-36.031-15.392-8.189-102.848,2.61-51.833,72.768C294.9,482.057,327.42,455.538,327.42,455.538Z" transform="translate(-100.28 -185.849)"/>
      <path id="Path_299" data-name="Path 299" class="cls-8" d="M5.6-.246c3.363.024,6.124,4.812,6.168,10.693s-2.648,10.629-6.011,10.6S-.371,16.24-.415,10.358,2.233-.271,5.6-.246Z" transform="translate(137.416 284.947) rotate(-27.741)"/>
      <g id="Group_134" data-name="Group 134" transform="translate(75.188 166.891)">
        <g id="Group_133" data-name="Group 133" class="cls-9">
          <path id="Path_264" data-name="Path 264" class="cls-10" d="M258.784,798.321c-.813,5.206-4.888,8.406-9.374,12.01-2.932,2.352-70.559,1.656-117.057.892-24.64-.4-43.344-.83-43.344-.83s-.009-.022-.023-.062c-.461-1.5-9.311-30.976-1.766-66.461,2.313-10.888,8.489-20.066,16.879-27.687,19.68-17.891,51.548-27.274,74.4-30.363,0,0,75.8,5.206,80.282,11.211S259.6,793.119,258.784,798.321Z" transform="translate(-92.162 -502.153)"/>
          <path id="Path_265" data-name="Path 265" class="cls-11" d="M144.687,849.192c-6.095-.177-53.216-.754-55.691-.794-.461-1.5-9.311-30.976-1.766-66.461,2.313-10.887,8.489-20.066,16.879-27.687C146.318,760.313,151.107,846.885,144.687,849.192Z" transform="translate(-92.167 -540.211)"/>
        </g>
      </g>
      <path id="Path_267" data-name="Path 267" class="cls-3" d="M313.513,607.412c-2.038,9.609-5.706,26.422,0,35.632a45.036,45.036,0,0,1-13.45,19.618L269.5,644.646s21.189-33.23,13.45-46.439C285.394,591.8,313.513,607.412,313.513,607.412Z" transform="translate(-118.567 -285.678)"/>
      <path id="Path_268" data-name="Path 268" class="cls-8" d="M339.949,483.511c0,24.762-12.487,45.64-33.418,45.64s-46.05-20.474-46.05-45.241,20.637-45.241,41.569-45.241S339.949,458.749,339.949,483.511Z" transform="translate(-113.622 -197.809)"/>
      <g id="Group_135" data-name="Group 135" transform="translate(139.123 233.836)">
        <path id="Path_269" data-name="Path 269" class="cls-7" d="M334.275,471.823a60.537,60.537,0,0,0-21.582-40.35c-5.941-4.9-13.242-8.775-20.994-8.628-8.783.169-16.553,5.384-23.493,10.674-6.4,4.878-16.255,6.893-19.96,13.968s-7.513,33.834-2.444,40.035c12.474-3.853,29.158-29.134,31.345-41.8C277.138,445.725,312.368,474.3,334.275,471.823Z" transform="translate(-243.357 -422.841)"/>
      </g>
      <ellipse id="Ellipse_24" data-name="Ellipse 24" class="cls-12" cx="5.909" cy="5.805" rx="5.909" ry="5.805" transform="translate(143.601 298.517)"/>
      <path id="Path_270" data-name="Path 270" class="cls-10" d="M442.127,597.1c28.9-4.283,65.983-45.92,83.914-87.157,6.926,2,20.782,5.606,20.782,5.606S529.71,646.062,431.09,643.257C416.827,612.827,442.127,597.1,442.127,597.1Z" transform="translate(-204.763 -237.446)"/>
      <path id="Path_271" data-name="Path 271" class="cls-12" d="M157.4,330.091H126.68a7.636,7.636,0,0,1-7.68-7.545h0A7.636,7.636,0,0,1,126.68,315H157.4a7.636,7.636,0,0,1,7.68,7.545h0A7.636,7.636,0,0,1,157.4,330.091Z" transform="translate(-36.06 -129.029)"/>
      <ellipse id="Ellipse_25" data-name="Ellipse 25" class="cls-6" cx="3.162" cy="3.107" rx="3.162" ry="3.107" transform="translate(87.006 190.41)"/>
      <g id="Group_136" data-name="Group 136" transform="translate(99.846 190.725)">
        <path id="Path_272" data-name="Path 272" class="cls-6" d="M156.42,331.73v-6.01h1.852v4.43h2.322v1.585H156.42Z" transform="translate(-156.42 -325.716)"/>
        <path id="Path_273" data-name="Path 273" class="cls-6" d="M168.32,331.73v-6.01h1.852v6.01Z" transform="translate(-162.944 -325.716)"/>
        <path id="Path_274" data-name="Path 274" class="cls-6" d="M174.15,325.71h2.1l1.324,4.048,1.319-4.048h2.1l-2.259,6.01H176.4Z" transform="translate(-166.14 -325.71)"/>
        <path id="Path_275" data-name="Path 275" class="cls-6" d="M191.05,331.73v-6.01h4.64V327.3H192.9v.6h2.729v1.585H192.9v.661h2.792v1.585h-4.64Z" transform="translate(-175.405 -325.716)"/>
      </g>
      <g id="Group_138" data-name="Group 138" transform="translate(81.842 449.17)">
        <path id="Path_276" data-name="Path 276" class="cls-13" d="M257.752,923.091H124.25a7.636,7.636,0,0,1-7.68-7.545h0A7.636,7.636,0,0,1,124.25,908h133.5a7.636,7.636,0,0,1,7.68,7.545h0A7.636,7.636,0,0,1,257.752,923.091Z" transform="translate(-116.57 -908)"/>
        <g id="Group_137" data-name="Group 137" transform="translate(127.145 6.214)">
          <ellipse id="Ellipse_26" data-name="Ellipse 26" class="cls-6" cx="1.581" cy="1.553" rx="1.581" ry="1.553"/>
          <ellipse id="Ellipse_27" data-name="Ellipse 27" class="cls-6" cx="1.581" cy="1.553" rx="1.581" ry="1.553" transform="translate(5.421)"/>
          <ellipse id="Ellipse_28" data-name="Ellipse 28" class="cls-6" cx="1.581" cy="1.553" rx="1.581" ry="1.553" transform="translate(10.843)"/>
        </g>
      </g>
      <g id="Group_140" data-name="Group 140" transform="translate(268.171 87.438)">
        <ellipse id="Ellipse_29" data-name="Ellipse 29" class="cls-14" cx="55.569" cy="54.593" rx="55.569" ry="54.593"/>
        <g id="Group_139" data-name="Group 139" transform="translate(24.312 14.216)">
          <path id="Path_277" data-name="Path 277" class="cls-6" d="M631.919,164.523c9.14,0,16.549-8.841,16.549-19.747s-2.431-19.747-16.549-19.747-16.549,8.841-16.549,19.747S622.779,164.523,631.919,164.523Z" transform="translate(-600.661 -125.03)"/>
          <path id="Path_278" data-name="Path 278" class="cls-6" d="M582.816,281.512c0-.666,0-.186,0,0Z" transform="translate(-582.813 -211.868)"/>
          <path id="Path_279" data-name="Path 279" class="cls-6" d="M721.18,282.352c.009-.182,0-1.265,0,0Z" transform="translate(-658.668 -212.189)"/>
          <path id="Path_280" data-name="Path 280" class="cls-6" d="M645.293,245.258c-.307-19-2.833-24.411-22.155-27.838,0,0-2.72,3.4-9.063,3.4s-9.063-3.4-9.063-3.4c-19.115,3.391-21.794,8.722-22.146,27.221-.027,1.509-.041,1.589-.045,1.416,0,.328,0,.937,0,2,0,0,4.6,9.112,31.25,9.112s31.25-9.112,31.25-9.112v-1.478C645.32,246.683,645.311,246.474,645.293,245.258Z" transform="translate(-582.817 -176.413)"/>
        </g>
      </g>
      <g id="Group_142" data-name="Group 142" transform="translate(395.122 206.832)">
        <ellipse id="Ellipse_30" data-name="Ellipse 30" class="cls-14" cx="43.371" cy="42.609" rx="43.371" ry="42.609"/>
        <g id="Group_141" data-name="Group 141" transform="translate(18.976 11.101)">
          <path id="Path_281" data-name="Path 281" class="cls-6" d="M890.327,417.83c7.134,0,12.917-6.9,12.917-15.41s-1.9-15.41-12.917-15.41-12.916,6.9-12.916,15.41S883.193,417.83,890.327,417.83Z" transform="translate(-865.931 -387.01)"/>
          <path id="Path_282" data-name="Path 282" class="cls-6" d="M852.006,509.126c0-.519,0-.146,0,0Z" transform="translate(-852.002 -454.777)"/>
          <path id="Path_283" data-name="Path 283" class="cls-6" d="M959.99,509.79c.009-.142,0-.985,0,0Z" transform="translate(-911.203 -455.033)"/>
          <path id="Path_284" data-name="Path 284" class="cls-6" d="M900.766,480.836c-.24-14.829-2.209-19.05-17.294-21.726,0,0-2.123,2.659-7.07,2.659s-7.07-2.659-7.07-2.659c-14.918,2.645-17.01,6.809-17.285,21.242-.023,1.181-.032,1.243-.036,1.105v1.558s3.592,7.11,24.392,7.11,24.392-7.11,24.392-7.11v-1.154A8.1,8.1,0,0,1,900.766,480.836Z" transform="translate(-852.007 -427.109)"/>
        </g>
      </g>
      <g id="Group_144" data-name="Group 144" transform="translate(329.162 310.247)">
        <ellipse id="Ellipse_31" data-name="Ellipse 31" class="cls-14" cx="46.76" cy="45.938" rx="46.76" ry="45.938"/>
        <g id="Group_143" data-name="Group 143" transform="translate(20.452 11.97)">
          <path id="Path_285" data-name="Path 285" class="cls-6" d="M750.6,655.2c7.689,0,13.924-7.439,13.924-16.613S762.481,621.97,750.6,621.97s-13.924,7.439-13.924,16.613S742.915,655.2,750.6,655.2Z" transform="translate(-724.297 -621.97)"/>
          <path id="Path_286" data-name="Path 286" class="cls-6" d="M709.286,753.621c0-.559,0-.155,0,0Z" transform="translate(-709.277 -695.029)"/>
          <path id="Path_287" data-name="Path 287" class="cls-6" d="M825.71,754.331c.009-.155,0-1.065,0,0Z" transform="translate(-773.104 -695.3)"/>
          <path id="Path_288" data-name="Path 288" class="cls-6" d="M761.844,723.121c-.258-15.987-2.381-20.541-18.645-23.422,0,0-2.291,2.867-7.626,2.867s-7.626-2.867-7.626-2.867c-16.084,2.854-18.338,7.341-18.636,22.9-.023,1.269-.036,1.336-.041,1.189v1.678s3.872,7.67,26.3,7.67,26.3-7.67,26.3-7.67v-1.243C761.871,724.32,761.862,724.147,761.844,723.121Z" transform="translate(-709.27 -665.2)"/>
        </g>
      </g>
      <g id="Group_146" data-name="Group 146" transform="translate(352.194 83)">
        <path id="Path_289" data-name="Path 289" class="cls-12" d="M796.572,83H729.523c-8,0-14.543,7.106-14.543,15.8h0c0,7.936,5.462,14.549,12.5,15.637l.194,6.942,7.016-6.782h61.876c8,0,14.543-7.106,14.543-15.8h0C811.115,90.106,804.569,83,796.572,83Z" transform="translate(-714.98 -83)"/>
        <g id="Group_145" data-name="Group 145" transform="translate(25.725 11.309)">
          <ellipse id="Ellipse_32" data-name="Ellipse 32" class="cls-6" cx="5.078" cy="4.989" rx="5.078" ry="4.989"/>
          <ellipse id="Ellipse_33" data-name="Ellipse 33" class="cls-6" cx="5.078" cy="4.989" rx="5.078" ry="4.989" transform="translate(17.263)"/>
          <ellipse id="Ellipse_34" data-name="Ellipse 34" class="cls-6" cx="5.078" cy="4.989" rx="5.078" ry="4.989" transform="translate(34.53)"/>
        </g>
      </g>
      <g id="Group_148" data-name="Group 148" transform="translate(430.361 379.027)">
        <path id="Path_290" data-name="Path 290" class="cls-5" d="M948.011,932.652c7.721,0,10.978-6.058,12.261-12.485a51.556,51.556,0,0,0,.384-14.966h-25.3s-.041.293-.095.821C934.8,910.584,933.274,932.652,948.011,932.652Z" transform="translate(-913.757 -836.299)"/>
        <path id="Path_291" data-name="Path 291" class="cls-15" d="M935.82,903.971c0,.541,5.665.981,12.65.981s12.65-.439,12.65-.981-5.665-.981-12.65-.981S935.82,903.429,935.82,903.971Z" transform="translate(-914.216 -835.07)"/>
        <path id="Path_292" data-name="Path 292" class="cls-10" d="M888,749.966s13.341,19.942,21.347,32.108,10.1,14.7,11.055,18.628,1.812,18.442,1.812,18.442h.592s-.208-12.317-.926-16.462c-.7-4.008.05-5.446.623-9.658s1.333-10.954-3-15.632-3.194-9.268-4.717-12.357-13.341-6.835-14.864-10.017S891.718,749.873,888,749.966Z" transform="translate(-888 -749.963)"/>
        <path id="Path_293" data-name="Path 293" class="cls-11" d="M888,749.97s4.193,4.683,7.052,6.272,4.193.186,6.384,4.026,2.277,5.521,4.283,7.488,4.387,2.059,4.581,6.365a25.91,25.91,0,0,1-.953,7.958S888.858,751,888,749.97Z" transform="translate(-888 -749.967)"/>
        <path id="Path_294" data-name="Path 294" class="cls-10" d="M925.779,866.934h-.6s-.181-3.986-1.789-5.921c-1.039-1.247-5.453-2.667-9.822-4.367a41.734,41.734,0,0,1-6.6-3.08c-5.073-3.169-9.912-13.373-10.328-15.188a5.788,5.788,0,0,1-.208-1.283v-.009c.009-.488.258-.564.682-1.056.2-.24.822-.155,1.577.071a9.026,9.026,0,0,1,5.177,4.075c1.057,1.8,2.751,4.048,4.821,4.594,3.583.941,3.284,1.522,4.608,5.1s4.649,4.163,8.823,8.384S925.779,866.934,925.779,866.934Z" transform="translate(-892.627 -797.749)"/>
        <path id="Path_295" data-name="Path 295" class="cls-11" d="M913.571,858.161a41.729,41.729,0,0,1-6.6-3.08c-5.073-3.169-9.912-13.373-10.328-15.188a5.788,5.788,0,0,1-.208-1.283c.014.12.249,1.735,2.9,2.81,2.742,1.114,3.28,1.114,3.637,2.814s.66,3.52,2.092,3.87,2.327-1.229,3.461,1.349,1.676,3.458,2.72,3.813,1.834-.177,2.065,1.82C913.449,856.293,913.531,857.447,913.571,858.161Z" transform="translate(-892.627 -799.265)"/>
        <path id="Path_296" data-name="Path 296" class="cls-10" d="M971.058,833.519h.709s1.383-24.686,3.293-26.977c1.229-1.478,5.29-4.132,10.459-6.143a49.014,49.014,0,0,0,7.811-3.653c6.009-3.75,11.737-15.836,12.23-17.993a6.857,6.857,0,0,0,.244-1.518v-.009c-.013-.581-.307-.666-.809-1.252-.244-.284-.976-.186-1.87.084a10.7,10.7,0,0,0-6.135,4.825c-1.251,2.13-3.257,4.8-5.711,5.441-4.242,1.114-3.89,1.806-5.458,6.041s-5.507,4.931-10.454,9.933S971.058,833.519,971.058,833.519Z" transform="translate(-933.519 -764.335)"/>
        <path id="Path_297" data-name="Path 297" class="cls-11" d="M1003.1,802.184a49.011,49.011,0,0,0,7.811-3.653c6.009-3.75,11.737-15.836,12.23-17.993a6.856,6.856,0,0,0,.244-1.518c-.018.142-.3,2.055-3.429,3.324-3.248,1.318-3.885,1.318-4.31,3.333s-.782,4.168-2.476,4.585-2.756-1.46-4.1,1.6-1.983,4.1-3.221,4.514-2.173-.209-2.449,2.153C1003.24,799.978,1003.145,801.345,1003.1,802.184Z" transform="translate(-951.1 -766.123)"/>
        <g id="Group_147" data-name="Group 147" transform="translate(21.228 69.722)">
          <path id="Path_298" data-name="Path 298" class="cls-14" d="M948.014,933.681c7.721,0,10.978-6.058,12.261-12.485-7.567-2.818-17.1-7.337-25.006-14.145C934.8,911.613,933.277,933.681,948.014,933.681Z" transform="translate(-934.988 -907.05)"/>
        </g>
      </g>
    </g>
  </g>
</svg>
