<svg xmlns="http://www.w3.org/2000/svg" xmlns:xlink="http://www.w3.org/1999/xlink" width="803.934" height="808.303" viewBox="0 0 803.934 808.303"><defs><style>.a{fill:#fff;}.b{fill:#fefefe;}.c{fill:#fefdfd;}.d{fill:#fdfdfc;}.e{fill:#fdfcfb;}.f{fill:#fcfbfa;}.g{fill:#fbfaf9;}.h{fill:#fbfaf8;}.i{fill:#faf9f7;}.j{fill:#faf8f6;}.k{fill:#f9f7f5;}.l{fill:#f9f7f4;}.m{fill:#f8f6f3;}.n{fill:#f7f5f2;}.o{fill:#f7f4f1;}.p{fill:#f6f4f0;}.q{fill:#f6f3ef;}.r{fill:#f5f2ee;}.s{fill:#f4f1ed;}.t{fill:#f4f0ec;}.u{fill:#f3f0eb;}.v{fill:#f3efea;}.w{fill:#f2eee9;}.x{fill:#f2ede8;}.y{fill:#f1ede7;}.z{fill:#f0ece6;}.aa{fill:#f0ebe5;}.ab{fill:#efeae4;}.ac{fill:#efeae3;}.ad{fill:#eee9e2;}.ae{fill:#ede8e1;}.af{fill:#ede7e0;}.ag{fill:#ece7df;}.ah{fill:#ece6de;}.ai{fill:#ebe5dd;}.aj{fill:#eae4dc;}.ak{fill:#eae3db;}.al{fill:#e9e3da;}.am{fill:#e9e2d9;}.an{fill:#e8e1d8;}.ao{fill:#e8e0d7;}.ap{fill:#e7e0d6;}.aq{fill:#e6dfd5;}.ar{fill:#e6ded4;}.as{fill:#e5ddd3;}.at{fill:#e5ddd2;}.au{fill:#e4dcd1;}.av{fill:#e3dbd0;}.aw{fill:#e3dacf;}.ax{fill:#e2dace;}.ay{fill:#e2d9cd;}.az{fill:#e1d8cc;}.ba{fill:#e1d7cb;}.bb{fill:#e0d6ca;}.bc{fill:#dfd6c9;}.bd{fill:#dfd5c8;}.be{fill:#ded4c7;}.bf{fill:#ded3c6;}.bg{fill:#ddd3c5;}.bh{fill:#dcd2c4;}.bi{fill:#dcd1c3;}.bj{fill:#dbd0c2;}.bk{fill:#dbd0c1;}.bl{fill:#dacfc0;}.bm{fill:#dacebf;}.bn{fill:#d9cdbe;}.bo{fill:#d8cdbd;}.bp{fill:#d8ccbc;}.bq{fill:#d7cbbb;}.br{fill:#d7caba;}.bs{fill:#d6c9b9;}.bt{fill:#d5c9b8;}.bu{fill:#d5c8b7;}.bv{fill:#d4c7b6;}.bw{fill:#d4c6b5;}.bx{fill:#d3c6b4;}.by{fill:#d2c5b3;}.bz{fill:#d2c4b2;}.ca{fill:#d1c3b1;}.cb{fill:#d1c3b0;}.cc{fill:#d0c2af;}.cd{fill:#d0c1ae;}.ce{fill:#cfc0ad;}.cf{fill:#cec0ac;}.cg{fill:#cebfab;}.ch{fill:#cdbeaa;}.ci{fill:#cdbda9;}.cj{fill:#ccbda8;}.ck{fill:#cbbca7;}.cl{fill:#cbbba6;}.cm{fill:#cabaa5;}.cn{fill:#cab9a4;}.co{fill:#c9b9a3;}.cp{fill:#c9b8a2;}.cq{fill:#c8b7a1;}.cr{fill:#c7b6a0;}.cs{fill:#c7b69f;}.ct{fill:#c6b59e;}.cu{fill:#c6b49d;}.cv{fill:#c5b39c;}.cw{fill:#c4b39b;}.cx{fill:#c4b29a;}.cy{fill:#c3b199;}.cz{fill:#c3b098;}.da{fill:#c2b097;}.db{fill:#c2af96;}.dc{fill:#c1ae95;}.dd{fill:#c0ad94;}.de{fill:#c0ac93;}.df{fill:#bfac92;}.dg{fill:#bfab91;}.dh{fill:#beaa90;}.di{fill:#bda98f;}.dj{fill:#bda98e;}.dk{fill:#bca88d;}.dl{fill:#bca78c;}.dm{fill:#bba68b;}.dn{fill:#baa68a;}.do{fill:#baa589;}.dp{fill:#b9a488;}.dq{fill:#b9a387;}.dr{fill:#b8a386;}.ds{fill:#b8a285;}.dt{fill:#b7a184;}.du{fill:#b6a083;}.dv{fill:#b69f82;}.dw{fill:#b59f81;}.dx{fill:#b59e80;}.dy{fill:#b49d7f;}.dz{fill:#b39c7e;}.ea{fill:#b39c7d;}.eb{fill:#b29b7c;}.ec{fill:#b29a7b;}.ed{fill:#b1997a;}.ee{fill:#b19979;}.ef{fill:#b09878;}.eg{fill:#af9777;}.eh{fill:#af9676;}.ei{fill:#ae9675;}.ej{fill:#ae9574;}.ek{fill:#ad9473;}.el{fill:url(#a);}.em{fill:url(#b);}.en{fill:url(#c);}.eo{fill:url(#d);}.ep{fill:url(#e);}.eq{fill:url(#f);}.er{fill:url(#g);}.es{fill:url(#h);}.et{fill:url(#i);}</style><linearGradient id="a" x1="10.869" y1="0.989" x2="10.869" y2="-0.006" gradientUnits="objectBoundingBox"><stop offset="0" stop-color="#fdee6f"/><stop offset="0.04" stop-color="#fdf46d"/><stop offset="0.3" stop-color="#fdff8a"/><stop offset="0.84" stop-color="#fdf56b"/><stop offset="0.88" stop-color="#fdee65"/></linearGradient><linearGradient id="b" y1="0.5" x2="1" y2="0.5" gradientUnits="objectBoundingBox"><stop offset="0" stop-color="#ad7a00"/><stop offset="1" stop-color="#fdee65"/></linearGradient><radialGradient id="c" cx="0.799" cy="1.36" r="0.408" gradientTransform="matrix(1.233, 0.168, -0.238, 1.113, 0.078, -0.139)" gradientUnits="objectBoundingBox"><stop offset="0" stop-color="#a2b7c5"/><stop offset="0.2" stop-color="#98aebc"/><stop offset="0.54" stop-color="#7e96a2"/><stop offset="0.97" stop-color="#546f7a"/><stop offset="1" stop-color="#506c76"/></radialGradient><radialGradient id="d" cx="0.234" cy="1.083" r="0.76" gradientTransform="matrix(0.901, 0.431, -0.44, 0.923, 0.409, -0.057)" gradientUnits="objectBoundingBox"><stop offset="0.1" stop-color="#94ebff"/><stop offset="0.13" stop-color="#85e8ff"/><stop offset="0.19" stop-color="#5ee1ff"/><stop offset="0.28" stop-color="#20d6ff"/><stop offset="0.32" stop-color="#00d0ff"/><stop offset="0.83" stop-color="#0087a5"/><stop offset="1" stop-color="#00b5e1"/></radialGradient><linearGradient id="e" x1="-79.508" y1="-39.157" x2="-78.682" y2="-38.935" gradientUnits="objectBoundingBox"><stop offset="0" stop-color="#0087a5"/><stop offset="0.32" stop-color="#00d0ff"/><stop offset="0.76" stop-color="#0087a5"/></linearGradient><radialGradient id="f" cx="0.15" cy="0.829" r="0.888" gradientTransform="matrix(0.988, 0.102, -0.103, 1.018, 0.079, -0.03)" gradientUnits="objectBoundingBox"><stop offset="0" stop-color="#fff"/><stop offset="0.75" stop-color="#00b9e2"/></radialGradient><radialGradient id="g" cx="0.446" cy="1.071" r="0.482" gradientTransform="matrix(0.907, 0.431, -0.443, 0.923, 0.327, -0.186)" gradientUnits="objectBoundingBox"><stop offset="0.62" stop-color="#00d0ff"/><stop offset="1" stop-color="#0087a5"/></radialGradient><radialGradient id="h" cx="0.004" cy="1.097" r="0.769" gradientTransform="matrix(0.907, 0.431, -0.443, 0.923, 0.244, -0.017)" gradientUnits="objectBoundingBox"><stop offset="0.14" stop-color="#94ebff"/><stop offset="0.38" stop-color="#94ebff"/><stop offset="0.48" stop-color="#85e8ff"/><stop offset="0.65" stop-color="#5ee1ff"/><stop offset="0.89" stop-color="#20d6ff"/><stop offset="1" stop-color="#00d0ff"/></radialGradient><radialGradient id="i" cx="0.381" cy="1.553" r="0.927" gradientTransform="matrix(1.192, 0.431, -0.583, 0.923, 0.445, 0.04)" xlink:href="#f"/></defs><g transform="translate(0.002 0.029)"><g transform="translate(-0.002 18.908)"><path class="a" d="M803.378,793.125c-93.324,0-266.194-10.345-458.559-10.345-114.627,0-229.646,3.548-344.273-15.443C-5.464,745.648,39.635,123.8,52.192,87.669c114.627,0,208.391,6.547,323.019,6.547S622.5,3.76,737.123,3.76C706.34,183.122,812.466,742.7,803.378,793.125Z" transform="translate(0.002 -3.76)"/><path class="b" d="M51.827,86.56c114.823-.05,208.489,7.4,322.823,7.4S621.69,4,736.22,4c-30.733,179.362,74.659,737.99,65.62,788.065-93.422,0-265.9-10-457.63-10.345-114.579,0-229.353,3.4-343.54-15.542C-5.34,743.639,39.367,123.342,51.827,86.56Z" transform="translate(0.465 -2.801)"/><path class="c" d="M51.341,86c115.018,0,208.538,7.7,322.481,7.7S620.764,4.14,735.245,4.14c-30.587,179.213,74.024,737.04,65.034,786.716-93.52,0-265.558-10-456.653-10.245-114.481,0-229.059,3.2-342.807-15.642C-5.143,742.03,38.93,123.382,51.341,86Z" transform="translate(1.049 -2.241)"/><path class="d" d="M50.931,85.28c115.214,0,208.636,8.3,322.481,8.3S619.915,4.32,734.347,4.32c-30.538,179.362,73.291,736.141,64.35,785.467-93.666,0-265.314-10-455.725-10-114.383,0-228.766,3.049-342.026-15.742C-4.966,740.311,38.618,123.062,50.931,85.28Z" transform="translate(1.557 -1.521)"/><path class="e" d="M50.655,84.521c115.409,0,208.684,8.9,322.188,8.9,114.383,0,246.4-88.907,360.739-88.907-30.44,179.362,72.7,735.191,63.519,784.167-93.715.25-264.972-10-454.747-10-114.285,0-228.522,2.849-341.342-15.892C-4.7,738.5,38.44,122.852,50.655,84.521Z" transform="translate(1.93 -0.762)"/><path class="f" d="M50.149,83.761c115.6-.25,208.733,9.445,321.993,9.445C486.427,93.207,618.3,4.7,732.588,4.7c-30.391,179.362,72.021,734.242,63.03,782.868-93.862.3-264.679-10-453.819-10-114.188-.3-228.229,2.7-340.609-15.942C-4.624,736.693,38.032,122.592,50.149,83.761Z" transform="translate(2.534 -0.002)"/><path class="g" d="M49.772,83.042c115.8-.3,208.831,10,321.8,10C485.61,93.087,617.534,4.88,731.722,4.88c-30.294,179.362,71.337,733.342,62.4,781.569-94.008.4-264.386-9.7-452.891-10-114.09-.35-227.936,2.5-339.925-16.042C-4.415,735.124,37.7,122.373,49.772,83.042Z" transform="translate(3.009 0.717)"/><path class="h" d="M49.394,82.282c116-.35,208.88,10.645,321.553,10.645,114.188,0,245.721-87.857,359.909-87.857-30.2,179.562,70.653,732.343,61.711,780.269-94.057.45-263.848-9.6-451.914-9.995-113.992-.45-227.642,2.3-339.241-15.992C-4.206,733.165,37.423,122.113,49.394,82.282Z" transform="translate(3.484 1.477)"/><path class="i" d="M48.945,81.523c116.191-.4,208.978,11.195,321.358,11.195,114.09,0,245.525-87.457,359.615-87.457-30.147,179.362,70.018,731.393,61.076,778.97-94.2.5-263.848-9.5-450.985-10-113.895-.45-227.349,2.149-338.459-16.242C-4.02,731.406,37.072,121.853,48.945,81.523Z" transform="translate(4.031 2.236)"/><path class="j" d="M48.549,80.8C164.935,80.353,257.575,92.6,369.711,92.6,483.7,92.6,614.992,5.44,728.984,5.44c-30,179.362,69.382,730.493,60.441,777.72-94.253.55-263.458-9.4-450.008-10-113.846-.55-227.1,2-337.726-16.392C-3.928,729.637,36.773,121.633,48.549,80.8Z" transform="translate(4.525 2.956)"/><path class="k" d="M48.363,80.044c116.582-.45,209.124,12.394,320.967,12.394,113.943,0,245.037-86.808,358.785-86.808C698.163,184.992,796.813,735.274,787.92,782c-94.4.65-263.164-9.246-449.08-10-113.748-.6-226.812,1.8-337.139-16.492C-3.527,727.827,36.685,121.423,48.363,80.044Z" transform="translate(4.809 3.715)"/><path class="l" d="M47.729,79.284c116.777-.5,209.173,12.944,320.722,12.944,113.894,0,244.841-86.408,358.736-86.408C697.334,185.182,795.2,734.414,786.309,780.892c-94.5.7-262.822-9.2-448.1-10-113.65-.65-226.519,1.649-336.26-16.542C-3.575,726.068,36.1,121.164,47.729,79.284Z" transform="translate(5.54 4.475)"/><path class="m" d="M47.182,78.565c117.266-.55,209.271,13.543,320.576,13.543C481.6,92.108,612.4,6,726.2,6,696.4,185.412,793.58,733.695,784.834,779.822c-94.594.75-262.578-9.1-447.174-10-113.552-.7-226.226,1.449-335.527-16.692C-3.535,724.3,35.7,120.944,47.182,78.565Z" transform="translate(6.136 5.195)"/><path class="n" d="M46.867,77.805c117.266-.6,209.368,14.093,320.38,14.093C481,91.9,611.552,6.19,725.4,6.19c-29.707,179.362,66.695,726.745,57.8,772.523-94.692.8-262.236-9-446.2-10-113.455-.8-225.932,1.25-334.794-16.792C-3.264,722.49,35.483,120.684,46.867,77.805Z" transform="translate(6.548 5.954)"/><path class="o" d="M46.575,77.046C163.841,76.4,255.993,91.738,366.76,91.738c113.65,0,244.3-85.358,357.856-85.358-29.659,179.362,66.011,725.746,57.167,771.174-94.79.9-261.943-8.846-445.268-9.7-113.357-.8-225.688,1.1-334.11-16.842C-3.214,720.731,35.044,120.424,46.575,77.046Z" transform="translate(7.182 6.714)"/><path class="p" d="M46.1,76.246c117.608-.7,209.515,15.293,319.94,15.293C479.689,91.539,610,6.58,723.651,6.58,694.334,185.992,788.978,731.226,780.134,776.5c-94.888.95-261.6-8.746-444.291-9.645-113.259-.9-225.395.9-333.377-16.992C-2.763,718.882,34.713,120.175,46.1,76.246Z" transform="translate(7.66 7.513)"/><path class="q" d="M45.694,75.566c117.8-.75,209.564,15.842,319.745,15.842,113.552,0,243.766-84.659,357.27-84.659-29.317,179.362,64.741,723.9,55.9,768.625-95.034,1-261.356-8.646-443.363-9.6-113.162-.95-225.1.75-332.644-17.092C-2.776,717.153,34.5,119.995,45.694,75.566Z" transform="translate(8.064 8.193)"/><path class="r" d="M45.25,74.807c118-.8,209.613,16.442,319.55,16.442,113.455,0,243.522-84.309,356.977-84.309C692.46,186.3,785.833,729.887,777.038,774.216c-95.132,1.049-261.063-8.5-442.435-9.545-113.113-1-224.76.6-331.911-17.192C-2.536,715.394,34.256,119.735,45.25,74.807Z" transform="translate(8.508 8.952)"/><path class="s" d="M44.806,74.087C163,73.238,254.516,91.129,364.16,91.129c113.406,0,243.278-84.009,356.684-84.009-29.316,179.412,63.519,722.048,54.578,766.026-95.23,1.1-260.721-8.4-441.457-9.5-113.015-1.05-224.515.4-331.179-17.292C-2.3,713.625,34.008,119.515,44.806,74.087Z" transform="translate(8.952 9.672)"/><path class="t" d="M44.416,73.488c118.39-.9,209.857,17.392,319.11,17.392C476.883,90.879,606.609,7.27,720.21,7.27c-29.317,179.412,62.737,721.1,53.747,764.627-95.376,1.149-260.428-8.346-440.529-9.445-112.917-1.149-224.222,0-330.446-17.392C-2.246,712.026,33.52,119.415,44.416,73.488Z" transform="translate(9.586 10.271)"/><path class="u" d="M44.172,72.568c118.585-.95,210.1,18.191,318.914,18.191C476.345,90.759,605.973,7.5,719.232,7.5c-29.316,179.362,62.053,720.149,53.258,763.427-95.425,1.2-260.135-8.246-439.747-9.4-112.82-1.2-223.978,0-329.713-17.541C-1.953,710.057,33.373,119,44.172,72.568Z" transform="translate(9.928 11.191)"/><path class="v" d="M43.667,71.809c118.781-1,210.1,18.741,318.719,18.741,113.21,0,242.643-82.86,355.853-82.86-29.317,179.362,61.369,719.149,52.623,762.078-95.572,1.3-259.842-7.7-438.623-9.345-112.722-1-223.685,0-329.029-17.591C-1.871,708.248,32.966,118.786,43.667,71.809Z" transform="translate(10.531 11.95)"/><path class="w" d="M43.257,71.089C162.233,70.04,253.359,90.43,361.732,90.43c113.162,0,242.447-82.56,355.609-82.56C688.317,187.282,778.026,726.119,769.28,768.7c-95.621,1.349-259.5-7.6-437.646-9.3-112.38-1.1-223.392-.3-328.3-17.691C-1.695,706.529,32.654,118.466,43.257,71.089Z" transform="translate(11.038 12.67)"/><path class="x" d="M42.721,70.29C161.892,69.19,252.822,90.28,361,90.28c113.064,0,242.2-82.21,355.267-82.21-28.877,179.412,60.1,717.3,51.353,759.629-95.767,1.4-259.207-7.5-436.718-9.246-112.38-1.149-223.1-.5-327.367-17.841C-1.645,704.68,32.314,118.266,42.721,70.29Z" transform="translate(11.672 13.469)"/><path class="y" d="M42.446,69.57c119.367-1.149,210.1,20.49,318.084,20.49C473.544,90.06,602.537,8.25,715.5,8.25c-28.828,179.362,59.415,716.35,50.669,758.38-95.865,1.449-258.962-7.4-435.741-9.246-112.38-1.149-222.805-.65-326.83-17.891C-1.382,702.911,31.941,118.046,42.446,69.57Z" transform="translate(12.045 14.189)"/><path class="z" d="M42.018,68.851c119.611-1.2,210.1,21.09,317.937,21.09,112.917,0,241.763-81.51,354.681-81.51-28.73,179.412,58.633,715.451,50.033,756.931-95.963,1.549-258.62-7.246-434.861-9.146-112.38-1.249-222.561-.85-326.1-18.041C-1.175,701.192,31.708,117.827,42.018,68.851Z" transform="translate(12.522 14.909)"/><path class="aa" d="M41.64,68.091c119.807-1.249,210.1,21.689,317.6,21.689C472.1,89.78,600.8,8.62,713.671,8.62c-28.632,179.412,58.047,714.651,49.349,755.631-96.06,1.6-258.278-7.147-433.835-9.1-112.38-1.3-222.268-1.049-325.364-18.141C-.967,699.383,31.428,117.617,41.64,68.091Z" transform="translate(12.998 15.668)"/><path class="ab" d="M41.012,67.331c120-1.3,210.346,22.239,317.6,22.239,112.82,0,241.323-80.761,354.143-80.761-28.584,179.362,57.411,713.552,48.861,754.332-96.158,1.649-257.985-7-432.907-9.1-112.38-1.3-221.975-1.2-324.631-18.191C-1.008,697.574,30.849,117.357,41.012,67.331Z" transform="translate(13.723 16.428)"/><path class="ac" d="M40.765,66.572c120.2-1.349,210.443,22.839,317.3,22.839C470.789,89.411,599.2,9,711.917,9c-28.486,179.412,56.727,712.6,48.03,753.083-96.256,1.7-257.692-6.9-431.93-9.046-112.087-1.349-221.681-1.349-323.9-18.341C-.717,695.815,30.7,117.1,40.765,66.572Z" transform="translate(14.067 17.187)"/><path class="ad" d="M40.387,65.732c120.393-1.4,210.492,23.439,317.107,23.439,112.38,0,240.884-79.961,353.557-79.961-28.437,179.412,56.043,711.653,47.4,751.733-96.4,1.8-257.4-6.747-431-8.946-111.989-1.449-221.388-1.549-323.214-18.441C-.509,693.926,30.419,116.757,40.387,65.732Z" transform="translate(14.543 18.027)"/><path class="ae" d="M39.922,65.093c120.588-1.449,210.59,23.988,316.862,23.988,112.38,0,240.688-79.711,353.264-79.711-28.29,179.412,55.408,710.7,46.809,750.434-96.5,1.849-257.106-6.647-429.975-8.946-111.94-1.449-221.193-1.7-322.481-18.491C-.437,692.187,30.053,116.618,39.922,65.093Z" transform="translate(15.106 18.666)"/><path class="af" d="M39.568,64.373c120.784-1.5,210.639,24.588,316.667,24.588,112.38,0,240.444-79.411,352.97-79.411C680.964,188.962,763.979,719.2,755.33,758.734c-96.6,1.9-256.763-6.547-429.047-8.9-111.842-1.5-220.9-1.9-321.8-18.641C-.155,690.518,29.747,116.4,39.568,64.373Z" transform="translate(15.557 19.386)"/><path class="ag" d="M39.166,63.774c120.979-1.549,210.688,24.988,316.471,24.988C468.017,88.761,595.886,9.7,708.315,9.7,680.171,189.112,762.4,718.554,753.8,757.535c-96.744,2-256.47-6.4-428.118-8.8C213.941,747.14,105.079,746.64,4.622,730-.02,688.869,29.443,116.148,39.166,63.774Z" transform="translate(16.057 19.986)"/><path class="ah" d="M38.757,62.854c121.175-1.6,210.785,25.737,316.276,25.737,112.38,0,240-78.662,352.384-78.662-28.095,179.412,53.4,707.9,44.805,746.536-96.793,2.049-256.177-6.3-427.141-8.8-111.7-1.6-220.313-2.249-320.331-18.841C.157,686.949,29.131,115.928,38.757,62.854Z" transform="translate(16.565 20.905)"/><path class="ai" d="M38.472,62.135C159.842,60.485,249.306,88.472,354.5,88.472c112.38,0,239.809-78.362,352.14-78.362-28,179.412,52.77,707,43.975,745.286-96.94,2.1-255.884-6.2-426.213-8.746-111.6-1.7-219.874-2.449-319.6-18.941C.458,685.181,28.944,115.708,38.472,62.135Z" transform="translate(16.947 21.625)"/><path class="aj" d="M37.876,61.375c121.566-1.7,210.932,26.887,315.836,26.887,112.38,0,239.418-77.962,351.8-77.962C677.562,189.712,757.6,716.305,749,754.287c-96.989,2.149-255.542-6.047-425.089-8.7-111.5-1.749-219.874-2.6-318.866-19.041C.449,683.471,28.446,115.449,37.876,61.375Z" transform="translate(17.641 22.384)"/><path class="ak" d="M37.323,60.7C159.084,58.946,248.3,88.082,353.061,88.082c112.38,0,239.418-77.612,351.8-77.612-27.851,179.412,51.4,705.056,42.851,742.638-97.135,2.249-255.249-5.9-424.307-8.646C212,742.713,103.92,741.713,5.27,725.321.433,681.692,27.941,115.269,37.323,60.7Z" transform="translate(18.292 23.064)"/><path class="al" d="M37.229,59.9c122.152-1.8,211.03,28.086,315.4,28.086,112.38,0,239.418-77.312,351.26-77.312C676.133,190.132,754.652,714.826,746.1,752.058c-97.233,2.3-254.956-5.8-423.33-8.6-111.3-1.849-219.19-2.949-317.6-19.241C1.072,679.844,27.946,115.019,37.229,59.9Z" transform="translate(18.483 23.863)"/><path class="am" d="M36.7,59.136c122.152-1.849,211.176,28.636,315.25,28.636,112.038,0,238.929-76.912,350.967-76.912C675.261,190.272,752.95,714.067,744.5,751.2c-97.331,2.349-254.663-5.7-422.4-8.546-111.207-1.9-218.9-3.148-316.716-19.341C1.031,678.034,27.563,114.759,36.7,59.136Z" transform="translate(19.061 24.623)"/><path class="an" d="M36.29,58.377c122.152-1.9,211.225,29.236,315.054,29.236,111.989,0,238.685-76.563,350.674-76.563-27.753,179.662,49.447,702.257,40.9,738.789-97.429,2.4-254.321-5.6-421.424-8.5-111.109-1.949-218.6-3.348-315.983-19.49C1.208,676.275,27.251,114.5,36.29,58.377Z" transform="translate(19.568 25.382)"/><path class="ao" d="M35.889,57.537c122.592-1.949,211.323,29.985,314.859,29.985,111.891,0,238.49-76.263,350.381-76.263C673.62,190.722,749.99,712.618,741.39,748.75c-97.722,2.5-254.076-5.447-420.5-8.446-111.061-2-218.31-3.5-315.25-19.54C1.345,674.636,26.9,114.16,35.889,57.537Z" transform="translate(20.067 26.222)"/><path class="ap" d="M35.48,56.9c122.787-2,211.372,30.385,314.615,30.385,111.891,0,238.294-75.863,350.137-75.863C672.82,190.832,748.31,711.778,739.857,747.611c-97.722,2.549-253.783-5.347-419.568-8.4-110.963-2.049-218.066-3.648-314.517-19.64C1.522,672.7,26.587,114.27,35.48,56.9Z" transform="translate(20.574 26.861)"/><path class="aq" d="M34.98,56.138C157.963,54.089,246.4,87.123,349.4,87.123c111.794,0,238.05-75.513,349.843-75.513C671.88,191.022,746.686,711.268,738.331,746.5c-97.722,2.6-253.441-5-418.59-8.346-110.865-2.1-217.773-3.848-313.784-19.99C1.608,670.938,26.185,113.76,34.98,56.138Z" transform="translate(21.172 27.621)"/><path class="ar" d="M34.662,55.219C157.84,53.12,246.18,86.8,348.886,86.8c111.7,0,237.806-74.963,349.55-74.963C671.172,191.3,745.2,710.349,736.743,745.432c-97.722,2.7-253.148-5-417.662-8.3-110.767-2.149-217.479-4-313.051-19.99C1.876,668.969,25.965,113.39,34.662,55.219Z" transform="translate(21.588 28.54)"/><path class="as" d="M34.261,54.579c123.373-2.1,211.567,32.384,314.028,32.384C459.937,86.963,585.851,12,697.5,12c-27.167,179.462,46.125,697.56,37.672,732.293-97.722,2.749-252.806-5-416.685-8.246-110.67-2.2-217.186-4.2-312.318-19.99C2.013,667.33,25.613,113.251,34.261,54.579Z" transform="translate(22.086 29.18)"/><path class="at" d="M33.883,53.9c123.569-2.149,211.665,32.734,313.784,32.734,111.6,0,237.415-74.464,348.964-74.464-27.069,179.412,45.441,696.61,37.037,730.993-98.113,2.8-252.562-5-415.757-8.2-110.572-2.249-216.893-4.4-311.634-19.99C2.221,665.6,25.332,113.071,33.883,53.9Z" transform="translate(22.563 29.859)"/><path class="au" d="M33.474,53.18c123.764-2.2,211.714,33.284,313.589,33.284,111.5,0,237.17-74.114,348.671-74.114-27.02,179.462,44.805,695.71,36.352,729.644-98.161,2.849-252.219-5-414.779-8.2-110.474-2.3-216.649-4.548-310.9-19.99C2.4,663.832,25.021,112.851,33.474,53.18Z" transform="translate(23.069 30.579)"/><path class="av" d="M33.065,52.421C157.22,50.172,244.876,86.3,346.458,86.3c111.452,0,236.926-73.764,348.377-73.764C667.913,192,738.81,707.2,730.553,740.934c-98.308,2.949-251.926-4.648-413.851-8.1-110.377-2.349-216.356-4.7-310.168-20.29C2.576,662.073,24.71,112.591,33.065,52.421Z" transform="translate(23.576 31.339)"/><path class="aw" d="M32.665,51.661c124.155-2.3,211.86,34.483,313.2,34.483,111.354,0,236.682-73.414,348.084-73.414-26.874,179.462,43.437,693.761,35.033,727.1-98.357,3-251.584-4.548-412.874-8.046-110.328-2.449-216.062-5-309.435-20.39C2.713,660.264,24.358,112.381,32.665,51.661Z" transform="translate(24.074 32.098)"/><path class="ax" d="M32.373,50.981c124.351-2.349,211.909,34.983,312.953,34.983,111.3,0,236.535-73.064,347.84-73.064-26.776,179.462,42.8,692.862,34.2,725.846-98.5,3-251.34-4.448-411.945-8.046-110.23-2.449-215.769-5-308.7-20.44C3.008,658.535,24.409,112.2,32.373,50.981Z" transform="translate(24.463 32.778)"/><path class="ay" d="M31.768,50.182c124.6-2.4,212.056,35.633,312.709,35.633,111.256,0,236.291-72.715,347.547-72.715C665.3,192.562,734.142,705.012,725.738,737.746c-98.6,3.049-251-4.348-410.968-8-110.132-2.5-215.476-5-307.823-20.59C3.038,656.736,23.755,111.9,31.768,50.182Z" transform="translate(25.117 33.577)"/><path class="az" d="M31.341,49.422c124.79-2.449,212.1,36.232,312.709,36.232,111.158,0,236.046-72.365,347.2-72.365-26.58,179.462,41.483,690.963,33.128,723.2-98.7,3.148-250.7-4.2-410.04-7.9-110.035-2.6-214.988-5.447-307.237-20.69C3.149,654.927,23.23,111.792,31.341,49.422Z" transform="translate(25.641 34.337)"/><path class="ba" d="M31.075,48.7c124.986-2.5,212.2,36.782,312.367,36.782,111.109,0,235.851-72.015,346.912-72.015-26.531,179.462,40.8,690.063,32.492,721.948-98.845,3.2-250.412-4.1-409.112-7.9-109.937-2.6-214.988-5.6-306.553-20.79C3.322,653.158,23.159,111.422,31.075,48.7Z" transform="translate(26.005 35.056)"/><path class="bb" d="M30.612,47.943c125.181-2.6,212.251,37.382,312.172,37.382,111.061,0,235.656-71.665,346.667-71.665-26.434,179.462,40.164,689.114,31.808,720.648-98.943,3.248-250.118-4-408.134-7.846-109.839-2.7-214.645-5.8-305.82-20.89C3.592,651.4,22.794,111.212,30.612,47.943Z" transform="translate(26.566 35.816)"/><path class="bc" d="M30.2,47.184c125.377-2.6,212.3,37.981,311.976,37.981,110.963,0,235.411-71.315,346.374-71.315C662.169,193.312,728.033,702.014,719.727,733.2c-99.041,3.3-249.825-3.9-407.206-7.8-109.937-2.749-214.352-6.147-305.087-21.14C3.769,649.59,22.483,110.953,30.2,47.184Z" transform="translate(27.073 36.575)"/><path class="bd" d="M29.8,46.464C155.376,43.815,242.2,85,341.584,85,452.449,85,576.751,14.03,687.665,14.03c-26.287,179.762,38.8,687.215,30.489,718.05-99.139,3.4-249.483-3.748-406.229-7.746-109.692-2.749-214.059-6.1-304.354-21.09C3.907,647.871,22.181,110.733,29.8,46.464Z" transform="translate(27.57 37.295)"/><path class="be" d="M29.4,45.7c125.768-2.6,212.447,39.131,311.536,39.131C451.8,84.836,575.9,14.22,686.769,14.22c-26.189,179.462,38.111,686.265,29.854,716.75-99.236,3.448-249.19-3.648-405.3-7.7-109.595-2.849-213.766-6.3-303.621-21.19C4.086,646.062,21.823,110.473,29.4,45.7Z" transform="translate(28.075 38.054)"/><path class="bf" d="M28.93,44.745C154.845,42,241.475,84.426,340.271,84.426c110.767,0,234.776-69.966,345.544-69.966-26.141,179.462,37.476,685.316,29.316,715.451-99.334,3.5-248.848-3.548-404.323-7.646-109.5-2.9-213.522-6.5-302.937-21.29C4.207,644.053,21.455,110.013,28.93,44.745Z" transform="translate(28.639 39.014)"/><path class="bg" d="M28.58,44.265c126.11-2.8,212.593,40.28,311.146,40.28,110.67,0,234.532-69.966,345.2-69.966-25.994,179.512,36.841,684.666,28.584,714.151-99.481,3.6-248.6-3.4-403.395-7.546-109.4-3-213.229-6.7-302.155-21.44C4.443,642.573,21.2,110.033,28.58,44.265Z" transform="translate(29.086 39.494)"/><path class="bh" d="M28.173,43.466c126.305-2.6,212.642,40.88,310.95,40.88,110.621,0,234.532-69.566,344.908-69.566-25.945,179.462,36.157,683.466,27.9,712.852-99.529,3.648-248.262-3.3-402.418-7.546-109.3-3-212.935-6.847-301.422-21.49C4.622,640.575,20.892,109.784,28.173,43.466Z" transform="translate(29.592 40.293)"/><path class="bi" d="M27.717,42.587c126.5-2.9,212.74,41.43,310.706,41.43C448.995,84.016,572.515,15,683.234,15,657.386,194.462,718.706,697.517,710.5,726.553c-99.676,3.7-247.969-3.2-401.489-7.5-109.2-3.048-212.642-7-300.738-21.639C4.7,638.8,20.535,109.4,27.717,42.587Z" transform="translate(30.145 41.173)"/><path class="bj" d="M27.283,41.987c126.7-2.949,212.789,42.029,310.51,42.029,110.474,0,233.9-68.866,344.371-68.866-25.8,179.512,34.838,681.617,26.58,710.3-99.725,3.748-247.627-3.1-400.659-7.446-109.106-3.148-212.2-7.2-299.663-21.739C4.856,637.2,20.149,109.354,27.283,41.987Z" transform="translate(30.677 41.772)"/><path class="bk" d="M26.989,41.227c127.038-3,212.886,42.629,310.315,42.629,110.425,0,233.652-68.517,344.078-68.517-25.7,179.512,34.2,680.618,25.945,708.954-99.872,3.848-247.382-2.949-399.584-7.4-109.008-3.149-212.1-7.346-299.272-21.789C5.148,635.387,19.953,109.044,26.989,41.227Z" transform="translate(31.068 42.532)"/><path class="bl" d="M26.543,40.468c127.038-3.049,212.984,43.179,310.168,43.179,110.328,0,233.408-68.117,343.785-68.117-25.652,179.462,33.47,679.668,25.31,707.655-100.018,3.9-247.089-2.849-398.606-7.346C198.093,712.54,95.485,708.292,8.611,693.9,5.288,633.578,19.653,108.784,26.543,40.468Z" transform="translate(31.564 43.291)"/><path class="bm" d="M26.364,39.748C153.7,36.65,239.4,83.527,336.288,83.527c110.279,0,233.213-67.817,343.54-67.817-25.554,179.512,32.786,678.769,24.43,706.405-100.067,3.948-246.747-2.749-397.629-7.3-108.911-3.3-211.567-7.746-298.051-22.039C5.7,631.859,19.573,108.615,26.364,39.748Z" transform="translate(31.84 44.011)"/><path class="bn" d="M25.73,38.989c127.38-3.148,213.131,44.378,309.729,44.378,110.23,0,233.017-67.467,343.2-67.467-25.456,179.512,32.2,677.819,24.04,705.106-100.214,4-246.454-2.649-396.7-7.3C197.085,710.361,94.722,706.063,8.874,691.62,5.649,630.05,18.988,108.355,25.73,38.989Z" transform="translate(32.571 44.77)"/><path class="bo" d="M25.529,38.189c127.722-3.2,213.18,44.978,309.533,44.978,110.132,0,232.773-67.067,342.905-67.067-25.359,179.462,31.515,676.87,23.355,703.757-100.311,4.1-246.161-2.5-395.772-7.2-109.008-3.448-211.176-8.1-296.585-22.389C5.985,628.251,18.64,108.055,25.529,38.189Z" transform="translate(33.115 45.57)"/><path class="bp" d="M24.993,37.51c127.918-3.248,213.277,45.528,309.289,45.528,110.083,0,232.577-66.767,342.661-66.767-25.31,179.512,30.831,675.97,22.72,702.507-100.409,4.148-245.868-2.4-394.8-7.146C196.25,708.182,94.131,703.385,9.211,689.292,5.889,626.522,18.3,107.875,24.993,37.51Z" transform="translate(33.651 46.249)"/><path class="bq" d="M24.572,36.75c128.113-3.3,213.326,46.127,309.093,46.127C443.7,82.878,566,16.46,676.033,16.46c-25.212,179.512,30.2,675.021,22.036,701.208-100.507,4.2-245.526-2.3-393.818-7.146-108.52-3.5-210.443-8.4-294.973-22.439C6.151,624.713,18.073,107.616,24.572,36.75Z" transform="translate(34.072 47.009)"/><path class="br" d="M24.151,35.991c128.308-3.348,213.375,46.677,308.9,46.677,109.937,0,232.138-66.018,342.026-66.018-25.163,179.512,29.316,674.021,21.4,699.658-100.6,4.248-245.232-2.249-392.89-7.1-108.422-3.548-210.1-8.6-294.24-22.539C6.415,623.1,17.8,107.356,24.151,35.991Z" transform="translate(34.492 47.769)"/><path class="bs" d="M23.462,35.191c128.65-3.4,213.619,47.377,308.849,47.377C442.2,82.568,564.2,16.85,674.337,16.85c-25.066,179.512,28.828,673.122,20.717,698.609-100.7,4.348-244.939-2.1-391.912-7-108.373-3.648-209.857-8.8-293.507-22.639C6.41,621.105,17.306,107.106,23.462,35.191Z" transform="translate(35.182 48.568)"/><path class="bt" d="M23.294,34.591c128.7-3.448,213.522,47.827,308.458,47.827C441.592,82.418,563.451,17,673.29,17c-25.017,179.512,28.144,672.172,20.082,697.31-100.849,4.4-244.646-2-390.886-7C194.21,703.665,92.921,698.367,9.711,684.574,6.633,619.456,17.089,106.956,23.294,34.591Z" transform="translate(35.594 49.168)"/><path class="bu" d="M22.891,33.752c128.895-3.5,213.619,48.426,308.263,48.426,109.741,0,231.454-64.968,341.2-64.968-24.87,179.512,27.557,671.222,19.544,696.01-100.9,4.448-244.3-1.9-390.007-6.947-108.178-3.748-209.271-9.146-292.041-22.839C6.816,617.617,16.783,106.666,22.891,33.752Z" transform="translate(36.095 50.007)"/><path class="bv" d="M22.541,33.032c129.09-3.548,213.668,49.026,308.067,49.026,109.692,0,231.258-64.668,340.9-64.668-24.772,179.562,26.873,670.323,18.811,694.661C589.278,716.6,446.311,710.3,301.243,705.2c-108.08-3.8-209.026-9.3-291.308-22.939C7.052,615.848,16.483,106.447,22.541,33.032Z" transform="translate(36.542 50.727)"/><path class="bw" d="M22.164,32.273c129.286-3.6,213.717,49.576,307.823,49.576C439.582,81.849,561,17.58,670.6,17.58c-24.724,179.512,26.189,669.373,18.176,693.412-101.191,4.6-243.766-1.649-388.15-6.8-107.982-3.9-208.733-9.5-290.575-23.089C7.262,614.039,16.2,106.187,22.164,32.273Z" transform="translate(37.017 51.486)"/><path class="bx" d="M21.774,31.673C151.255,28.025,235.588,81.649,329.6,81.649c109.546,0,230.818-63.919,340.364-63.919-24.43,179.512,25.505,668.424,17.492,692.112-101.24,4.648-243.425-1.549-387.173-6.8-108.129-3.7-208.636-9.3-290.087-22.939C7.408,612.44,15.91,106.137,21.774,31.673Z" transform="translate(37.506 52.086)"/><path class="by" d="M21.318,30.794C151.043,27.1,235.23,81.569,328.8,81.569c109.5,0,230.574-63.619,340.071-63.619-24.43,179.562,24.87,667.474,16.857,690.863-101.386,4.7-243.131-1.449-386.245-6.747-107.787-4-208.147-10-289.158-23.289C7.588,610.511,15.748,105.757,21.318,30.794Z" transform="translate(38.01 52.965)"/><path class="bz" d="M20.853,30.034c129.921-3.748,214.206,51.325,307.286,51.325,109.4,0,230.379-63.219,339.778-63.219C643.486,197.652,692.1,684.665,684.09,707.8c-101.435,5-242.789-1.349-385.267-6.647-107.494-4.048-207.854-10-288.279-23.389C7.709,608.752,15.185,105.5,20.853,30.034Z" transform="translate(38.573 53.725)"/><path class="ca" d="M20.607,29.275C150.723,25.477,234.715,81.2,327.55,81.2c109.3,0,230.134-62.869,339.485-62.869-24.43,179.512,23.5,665.575,15.538,688.214-101.582,5-242.545-1.249-384.339-6.647-107.494-4.1-207.61-10-287.692-23.439C8.05,606.943,14.841,105.238,20.607,29.275Z" transform="translate(38.917 54.484)"/><path class="cb" d="M20.141,28.675c130.312-3.8,214.01,52.374,306.846,52.374,109.3,0,229.939-62.569,339.192-62.569-24.43,179.562,22.867,664.676,14.9,686.965-101.679,5-242.2-1.149-383.362-6.6C190.225,694.7,90.4,688.5,10.76,675.259,8.121,605.294,14.669,105.138,20.141,28.675Z" transform="translate(39.48 55.084)"/><path class="cc" d="M19.7,27.8C150.207,23.947,233.906,80.87,326.448,80.87c109.2,0,229.646-62.17,338.9-62.17-24.43,179.562,22.232,663.726,14.267,685.665-101.777,5-241.91-1.049-382.433-6.547C189.687,693.571,90.157,687.274,10.954,674.13,8.266,603.415,14.325,104.758,19.7,27.8Z" transform="translate(40.019 55.964)"/><path class="cd" d="M19.292,27.036c130.752-3.9,214.255,53.674,306.65,53.674,109.106,0,229.646-61.82,338.605-61.82C640.411,198.4,686.1,681.666,678.131,703.206c-101.875,5-241.568-.9-381.456-6.5-107.494-4.248-206.73-10.695-285.494-23.738C8.348,601.606,14.015,104.4,19.292,27.036Z" transform="translate(40.524 56.723)"/><path class="ce" d="M18.961,26.316C149.86,22.368,233.314,80.54,325.172,80.54c109.106,0,229.3-61.47,338.361-61.47C639.445,198.632,684.4,680.947,676.481,702.137c-101.973,5-241.324-.8-380.528-6.447C188.46,691.342,89.516,684.8,11.193,671.8,8.7,599.836,13.733,104.328,18.961,26.316Z" transform="translate(40.953 57.443)"/><path class="cf" d="M18.607,25.437c131.094-4,214.4,54.973,306.015,54.973,109.008,0,229.06-61.12,338.068-61.12C638.7,198.852,682.919,680.167,674.954,701.057c-102.07,5-240.982-.75-379.551-6.4-107.152-4.4-206.193-11.095-284.077-23.988C8.884,597.958,13.477,103.949,18.607,25.437Z" transform="translate(41.405 58.322)"/><path class="cg" d="M18.24,24.8c131.289-4.048,214.5,55.423,305.82,55.423,108.911,0,228.815-60.77,337.775-60.77-23.942,179.512,19.544,659.928,11.629,680.418-102.217,5-240.688-.6-378.622-6.347-107.054-4.448-205.9-11.244-283.393-24.088C9.1,596.268,13.208,103.809,18.24,24.8Z" transform="translate(41.869 58.962)"/><path class="ch" d="M17.838,24.078c131.484-4.1,214.548,55.973,305.624,55.973,108.862,0,228.62-60.421,337.482-60.421C637.1,199.192,679.8,678.658,671.937,698.8c-102.315,5.247-240.4-.5-377.694-6.3C187.238,688,88.637,681.107,11.632,668.313,9.287,594.5,12.9,103.589,17.838,24.078Z" transform="translate(42.37 59.681)"/><path class="ci" d="M17.412,23.238c131.924-4.148,214.6,56.572,305.38,56.572,108.813,0,228.424-59.971,337.139-59.971C636.283,199.3,678.206,677.819,670.486,697.609c-102.608,5.3-240.053-.4-376.717-6.247-106.907-4.6-205.215-11.594-281.878-24.288C9.448,592.66,12.526,103.3,17.412,23.238Z" transform="translate(42.893 60.521)"/><path class="cj" d="M17.014,22.4C148.89,18.2,231.709,79.771,322.2,79.771c108.715,0,228.18-59.721,337.14-59.721-23.649,179.562,17.59,657.129,9.772,676.57-102.608,5.347-239.809-.3-375.788-6.247-106.81-4.6-205.215-11.744-281.145-24.388C9.587,590.771,12.226,102.96,17.014,22.4Z" transform="translate(43.389 61.36)"/><path class="ck" d="M16.663,21.839C148.588,17.591,231.651,79.561,321.7,79.561c108.666,0,227.936-59.371,336.6-59.371-23.6,179.562,16.906,656.23,9.039,675.27-102.608,5.447-239.418,0-374.811-6.147C185.82,684.616,87.8,677.369,12.119,664.825,9.969,589.212,12.022,102.9,16.663,21.839Z" transform="translate(43.788 61.92)"/><path class="cl" d="M16.343,21.08C148.658,16.782,231.33,79.4,321.185,79.4c108.569,0,227.74-59.021,336.309-59.021-23.5,179.562,16.222,655.28,8.4,673.971-102.608,5.5-239.418,0-373.883-6.1-106.614-5-204.482-12.144-279.679-24.588C10.137,587.4,11.8,102.64,16.343,21.08Z" transform="translate(44.207 62.679)"/><path class="cm" d="M16.009,20.691C148.519,16.343,231,79.613,320.607,79.613c108.52,0,227.545-58.671,336.065-58.671-23.4,179.562,15.538,654.281,7.72,672.672-102.608,5.547-238.832,0-372.906-6.1C185.018,682.768,87.3,675.222,12.539,662.778,10.39,585.966,11.513,102.751,16.009,20.691Z" transform="translate(44.639 63.068)"/><path class="cn" d="M15.71,20.694c132.706-4.4,214.988,59.471,304.4,59.471,108.471,0,227.3-58.322,335.771-58.322-23.355,179.612,14.9,653.381,7.085,671.422-102.95,5.6-238.587,0-371.977-6.047-106.419-5-203.9-12.494-278.262-24.988C10.628,584.968,11.312,103.053,15.71,20.694Z" transform="translate(45.035 63.065)"/><path class="co" d="M15.4,20.7c132.9-4.448,214.988,59.971,304.207,59.971C427.98,80.667,546.663,22.7,655.085,22.7c-23.258,179.562,14.218,652.432,6.4,670.073-103.047,5.7-238.245,0-371-5.947-106.321-5-203.6-12.644-277.529-24.988C10.9,583.921,11.1,103.806,15.4,20.7Z" transform="translate(45.443 63.063)"/><path class="cp" d="M15.11,20.7c133.1-4.5,214.988,60.62,304.012,60.62,108.276,0,226.861-57.572,335.136-57.572-23.16,179.562,13.583,651.482,5.814,668.774-103.145,5.747-237.952.3-370.072-5.9-106.272-5-203.31-12.844-276.8-24.988C11.2,582.824,10.908,104.307,15.11,20.7Z" transform="translate(45.83 63.061)"/><path class="cq" d="M14.859,20.7c133.292-4.548,215.232,61.22,303.768,61.22,108.276,0,226.665-57.272,334.892-57.272-23.062,179.612,12.9,650.582,5.13,667.524-103.243,5.8-237.61.4-369.094-5.9-106.175-5-203.065-12.994-276.064-24.988C11.537,581.876,10.706,104.809,14.859,20.7Z" transform="translate(46.179 63.059)"/><path class="cr" d="M14.635,20.7c133.488-4.6,215.281,61.82,303.572,61.82,108.178,0,226.421-56.922,334.6-56.922-23.013,179.562,12.264,649.683,4.5,666.225-103.341,5.847-237.366.5-368.166-5.847-106.077-5-202.772-13.194-275.331-24.988C11.85,580.829,10.58,105.311,14.635,20.7Z" transform="translate(46.501 63.057)"/><path class="cs" d="M14.435,20.7c133.683-4.648,215.33,62.37,303.377,62.37,108.08,0,226.177-56.522,334.11-56.522-22.916,179.562,11.58,648.683,3.86,664.676-103.487,5.947-237.073.6-367.189-5.747-106.028-5-202.528-13.393-274.647-25.338C12.237,579.782,10.478,105.813,14.435,20.7Z" transform="translate(46.798 63.054)"/><path class="ct" d="M14.257,20.707c133.879-4.7,215.427,62.969,302.937,62.969,108.08,0,225.981-56.223,334.061-56.223-22.867,179.612,10.9,647.734,3.176,663.626-103.585,6-236.73.7-366.456-5.747-105.93-5-202.235-13.544-273.914-25.388C12.644,578.785,10.4,106.365,14.257,20.707Z" transform="translate(47.074 63.052)"/><path class="cu" d="M14.085,20.709c134.074-4.748,215.476,63.569,302.937,63.569C425,84.278,542.808,28.405,650.79,28.405c-22.769,179.612,10.261,646.784,2.541,662.327-103.683,6.047-236.437.8-365.283-5.7C182.215,679.687,86.106,671.341,14.867,659.5,13.059,577.837,10.274,106.867,14.085,20.709Z" transform="translate(47.344 63.05)"/><path class="cv" d="M13.946,20.727c134.269-5,215.574,64.119,302.937,64.119,107.934,0,225.541-55.473,333.475-55.473-22.72,179.562,9.772,645.835,1.857,660.977-103.78,6.147-236.144.9-364.306-5.6-105.735-5.4-201.7-13.893-272.5-25.638C13.457,576.755,10.232,107.384,13.946,20.727Z" transform="translate(47.581 63.032)"/><path class="cw" d="M13.823,20.724c134.465-5,215.623,64.968,302.546,64.968,107.836,0,225.3-54.973,333.133-54.973-22.574,179.612,8.942,644.685,1.27,659.678-103.927,6.2-235.851,1-363.378-5.6-105.539-5.847-201.4-14.443-271.666-26.137C13.921,575.7,10.207,108.082,13.823,20.724Z" transform="translate(47.801 63.035)"/><path class="cx" d="M13.681,20.723c134.709-5,215.72,65.318,302.351,65.318,107.787,0,225.1-54.973,332.889-54.973-22.525,179.612,8.258,643.986.586,658.429-103.976,6.247-235.509,1.1-362.4-5.547C181.518,678.452,86,669.707,16.075,658.112,14.414,574.653,10.212,108.381,13.681,20.723Z" transform="translate(47.992 63.036)"/><path class="cy" d="M13.6,20.722c134.9-5,215.818,65.868,302.155,65.868,107.494,0,224.76-54.423,332.6-54.423-22.427,179.562,7.622,643.036,0,657.129-104.122,6.3-235.216,1.2-361.57-5.5-105.3-5.6-200.769-14.443-270.249-25.987C14.923,573.652,10.184,108.879,13.6,20.722Z" transform="translate(48.167 63.037)"/><path class="cz" d="M13.516,20.72c135.1-5,215.867,66.468,301.96,66.468,107.494,0,224.76-54.124,332.253-54.124-22.378,179.612,6.938,642.087-.733,655.83-104.171,6.4-234.874,1.3-360.495-5.447C181.108,677.8,86.172,668.854,16.936,657.409,15.177,572.851,10.291,109.427,13.516,20.72Z" transform="translate(48.353 63.039)"/><path class="da" d="M13.486,20.719c135.3-5,215.965,67.017,301.764,67.017,107.494,0,224.418-53.724,332.009-53.724-22.28,179.612,6.254,641.137-1.368,654.68-104.318,6.447-234.532,1.4-359.567-5.4C181.03,677.6,86,668.553,17.591,657.158,15.929,571.55,10.164,109.925,13.486,20.719Z" transform="translate(48.48 63.04)"/><path class="db" d="M13.395,20.717c135.491-5,216.014,67.617,301.52,67.617,107.494,0,224.222-53.374,331.765-53.374-22.183,179.612,5.57,640.188-2.052,653.231-104.416,6.5-234.288,1.5-358.589-5.347-105.2-5.8-199.987-14.993-268.1-26.237C16.424,570.549,10.268,110.423,13.395,20.717Z" transform="translate(48.669 63.042)"/><path class="dc" d="M13.342,20.716c135.686-5,216.062,68.217,301.325,68.217,107.494,0,224.027-53.074,331.472-53.074C624,215.471,651.025,675.146,643.451,687.84c-104.513,6.547-233.994,1.549-357.661-5.347C180.691,676.646,86.1,667.5,18.375,656.156,16.958,569.5,10.313,110.922,13.342,20.716Z" transform="translate(48.819 63.043)"/><path class="dd" d="M13.313,20.714c135.882-5,216.16,68.766,301.129,68.766,107.494,0,223.782-52.674,331.13-52.674-21.987,179.612,4.3,638.339-3.322,650.632-104.611,6.647-233.652,1.7-356.684-5.247-105-5.9-199.4-15.293-266.682-26.437C17.467,568.447,10.333,111.42,13.313,20.714Z" transform="translate(48.946 63.045)"/><path class="de" d="M13.274,20.731C149.351,15.484,229.434,90.1,314.207,90.1c107.494,0,223.538-52.324,330.836-52.324-21.939,179.612,3.616,637.389-3.958,649.333-104.758,6.7-233.408,1.8-355.756-5-104.758-6.2-199.108-15.692-266-26.787C18.013,567.465,10.391,111.987,13.274,20.731Z" transform="translate(49.083 63.028)"/><path class="df" d="M13.24,20.734C149.513,15.436,229.547,90.7,313.929,90.7c107.494,0,223.343-52.025,330.592-52.025-21.841,179.612,2.932,636.489-4.593,648.084-104.855,6.747-233.115,1.849-354.827-5-104.855-6.047-198.815-15.642-265.216-26.637C18.566,566.417,10.455,112.489,13.24,20.734Z" transform="translate(49.215 63.025)"/><path class="dg" d="M13.213,20.736c136.468-5.347,216.356,70.516,300.494,70.516,107.152,0,223.147-51.625,330.3-51.625-21.792,179.612,2.3,635.49-5.277,646.784-104.953,6.8-232.773,1.949-353.85-5-104.758-6.1-198.57-15.792-264.483-26.737C19.076,565.42,10.526,113.091,13.213,20.736Z" transform="translate(49.34 63.023)"/><path class="dh" d="M13.2,20.738c136.81-5.4,216.4,71.115,300.3,71.115,107.1,0,222.9-51.275,330.006-51.275-21.694,179.612,1.612,634.69-5.912,645.435-105.051,6.9-232.48,2.049-352.922-5-104.66-6.2-198.277-15.992-263.848-26.887C19.65,564.373,10.562,113.493,13.2,20.738Z" transform="translate(49.45 63.021)"/><path class="di" d="M13.179,20.74c136.81-5.447,216.5,71.715,300.054,71.715C420.288,92.455,535.941,41.48,643,41.48c-21.645,179.662.928,633.641-6.6,644.186-105.149,6.9-232.187,2.149-351.8-5-104.562-6.3-197.984-16.192-263.018-26.987C20.215,563.325,10.639,113.995,13.179,20.74Z" transform="translate(49.569 63.019)"/><path class="dj" d="M13.163,20.739C150.217,15.291,229.714,93.1,313.022,93.1c106.956,0,222.463-50.575,329.468-50.575-21.548,179.612.244,632.691-7.231,642.886-105.3,6.947-231.893,2.249-351.016-5-104.464-6.3-197.691-16.342-262.285-27.037C20.785,562.324,10.72,114.493,13.163,20.739Z" transform="translate(49.683 63.021)"/><path class="dk" d="M13.129,20.741c137.445-5.5,216.7,72.864,299.712,72.864,106.907,0,222.268-49.976,329.126-49.976-21.45,179.412-.342,631.492-7.671,641.287-105.344,7.047-231.551,2.349-350.039-5-104.367-6.3-197.593-16.442-261.8-27.087C21.387,561.277,10.833,115.045,13.129,20.741Z" transform="translate(49.766 63.018)"/><path class="dl" d="M13.129,20.743C150.624,15.2,229.876,94.207,312.646,94.207c106.81,0,222.023-49.976,328.833-49.976-21.352,179.912-1.026,630.842-8.5,640.287-105.49,7.1-231.258,2.449-349.11-5C179.794,673.225,86.958,662.83,23,652.435,21.924,560.23,10.882,115.547,13.129,20.743Z" transform="translate(49.863 63.016)"/><path class="dm" d="M13.122,20.745c137.69-5.6,216.8,74.014,299.272,74.014,106.761,0,221.828-49.526,328.589-49.526-21.3,179.662-1.71,629.693-9.186,638.988-105.539,7.146-230.916,2.5-348.133-5-103.976-6.4-196.811-16.742-260.33-27.187C22.5,559.233,10.972,116.049,13.122,20.745Z" transform="translate(49.968 63.014)"/><path class="dn" d="M13.115,20.748C150.951,15.1,230.008,95.361,312.192,95.361c106.712,0,221.584-49.176,328.3-49.176-21.206,179.612-2.345,628.893-9.772,637.689-105.686,7.2-230.672,2.6-347.2-5C179.584,672.48,86.748,662.035,24.06,651.59,23.229,558.185,11.063,116.551,13.115,20.748Z" transform="translate(50.073 63.011)"/><path class="do" d="M13.206,20.751c138.032-5.7,216.942,74.963,298.882,74.963,106.614,0,221.388-48.826,328-48.826C618.933,226.8,637.06,674.881,629.585,683.277c-105.784,7.3-230.33,2.749-346.228-4.7-104.025-6.7-196.274-17.242-258.669-27.587C23.515,557.139,11.007,117.054,13.206,20.751Z" transform="translate(50.324 63.009)"/><path class="dp" d="M13.174,20.752C151.255,15,230.068,96.515,311.714,96.515c106.517,0,221.144-48.476,327.709-48.476-21.059,179.912-3.713,627.044-11.14,635.09-105.881,7.346-230.037,2.8-345.3-4.7C179.057,671.684,87,661.04,25.048,650.745,24.119,556.141,11.122,117.6,13.174,20.752Z" transform="translate(50.355 63.007)"/><path class="dq" d="M13.139,20.754c138.374-5.8,217.04,76.363,298.393,76.363,106.517,0,220.949-48.127,327.367-48.127-21.01,179.612-4.4,626.094-11.775,633.791-106.028,7.4-229.646,2.9-344.371-4.648-103.829-6.847-195.736-17.591-257.2-27.786C24.768,555.093,11.283,118.107,13.139,20.754Z" transform="translate(50.391 63.005)"/><path class="dr" d="M13.109,20.757C151.727,14.91,230.3,97.669,311.16,97.669c106.419,0,220.7-47.777,327.367-47.777-20.864,179.662-4.886,625.195-12.411,632.541-106.126,7.446-229.4,2.949-343.394-4.6-103.731-6.9-195.443-17.791-256.47-27.886C25.422,554.046,11.448,118.609,13.109,20.757Z" transform="translate(50.421 63.002)"/><path class="ds" d="M13.083,20.759c138.96-5.9,217.382,77.362,298.051,77.362,106.321,0,220.509-47.427,326.83-47.427C617.2,230.607,632.3,674.94,624.918,681.887c-106.223,7.546-229.157,3.1-342.465-4.548C178.819,670.392,87.3,659.4,26.666,649.352,26.08,552.9,11.617,119.111,13.083,20.759Z" transform="translate(50.447 63)"/><path class="dt" d="M13.141,20.761C152.15,14.814,230.425,98.873,310.948,98.873,417.22,98.873,531.212,51.8,637.484,51.8c-20.717,179.912-6.352,623.3-13.73,629.693-106.321,7.6-228.815,3.148-341.488-4.5C178.73,669.944,87.41,658.9,27.213,648.9,26.529,552,11.578,119.613,13.141,20.761Z" transform="translate(50.633 62.998)"/><path class="du" d="M13.148,20.763c139.2-6,217.382,78.662,297.709,78.662C417.08,99.425,530.73,52.7,637.149,52.7c-20.619,179.912-7.036,622.346-14.365,628.643-106.419,7.646-228.522,3.248-340.56-4.448C178.786,669.746,87.661,658.6,28.148,648.707,27.122,551,11.682,120.115,13.148,20.763Z" transform="translate(50.724 62.996)"/><path class="dv" d="M13.156,20.766c139.4-6.047,217.431,79.261,297.611,79.261,106.126,0,219.874-46.377,326-46.377-20.57,179.662-7.671,621.4-15.049,627.294-106.517,7.746-228.18,3.4-339.583-4.4C178.794,669.4,87.864,658.1,28.547,648.259,27.717,549.957,11.788,120.667,13.156,20.766Z" transform="translate(50.813 62.994)"/><path class="dw" d="M13.152,20.767c139.644-6.1,217.577,79.961,297.269,79.961C416.5,100.728,530.294,54.7,636.127,54.7c-20.473,179.912-8.355,620.447-15.684,625.994-106.663,7.8-227.936,3.448-338.654-4.348C178.5,669,87.762,657.856,28.934,647.861,28.347,548.91,11.93,121.168,13.152,20.767Z" transform="translate(50.867 62.992)"/><path class="dx" d="M13.166,20.77c139.84-6.147,217.626,80.411,297.025,80.411,106.028,0,219.434-45.678,325.462-45.678-20.424,179.912-9.039,619.7-16.368,624.7-106.712,7.846-227.594,3.548-337.677-4.3-103.194-7.346-193.733-18.841-252.122-28.536C28.9,547.913,11.994,121.671,13.166,20.77Z" transform="translate(50.95 62.989)"/><path class="dy" d="M13.178,20.772c140.035-6.2,217.675,81.01,296.829,81.01,105.979,0,219.19-45.328,325.12-45.328-20.277,179.912-9.772,618.6-16.955,623.446-106.858,7.9-227.3,3.6-336.749-4.248-103.1-7.446-193.44-19.041-251.389-28.636C29.5,546.865,12.1,122.173,13.178,20.772Z" transform="translate(51.036 62.987)"/><path class="dz" d="M13.18,20.775c140.231-6.247,217.773,81.56,296.634,81.56,105.881,0,218.945-44.978,324.827-44.978-20.228,179.662-10.31,617.649-17.639,622.1-106.907,8-226.958,3.748-335.771-4.2-103-7.5-193.147-19.141-250.7-28.686C30.086,545.818,12.4,122.675,13.18,20.775Z" transform="translate(51.132 62.985)"/><path class="ea" d="M13.2,20.776c140.426-6.3,217.821,82.36,296.438,82.36,105.784,0,218.75-44.978,324.533-44.978C614.046,238.07,623.183,674.907,615.9,679c-107.054,8.046-226.665,3.6-334.794-4.148-102.95-7.8-192.9-19.341-250.021-28.836C30.7,544.82,12.325,123.126,13.2,20.776Z" transform="translate(51.205 62.983)"/><path class="eb" d="M13.229,20.779c140.719-6.347,217.919,82.76,296.194,82.76,105.784,0,218.554-44.278,324.289-44.278C613.63,239.172,622.035,675.01,614.8,678.958c-107.2,8.1-226.372,3.7-333.866-4.1-102.608-7.846-192.658-19.541-249.19-28.936C31.259,543.774,12.252,123.729,13.229,20.779Z" transform="translate(51.278 62.98)"/><path class="ec" d="M13.236,20.781c140.621-6.4,217.968,83.309,296,83.309,105.686,0,218.31-43.879,324-43.879-19.984,179.912-12.313,614.7-19.544,618.248-107.249,8.146-226.079,3.8-332.889-4.1-102.608-7.9-192.365-19.69-248.555-28.986C31.706,542.926,12.5,124.231,13.236,20.781Z" transform="translate(51.369 62.978)"/><path class="ed" d="M13.252,20.783c141.012-6.447,218.017,83.909,295.8,83.909,105.588,0,218.066-43.579,323.7-43.579-19.935,179.912-13,613.9-20.228,616.949-107.494,8.246-225.786,3.948-331.96-4C177.962,666.118,88.5,654.074,32.747,644.929,32.454,541.729,12.617,124.733,13.252,20.783Z" transform="translate(51.451 62.976)"/><path class="ee" d="M13.268,20.786c141.208-6.5,218.115,84.509,295.608,84.509,105.539,0,217.87-43.229,323.41-43.229C612.448,241.978,618.6,675.016,611.373,677.715c-107.494,8.3-225.444,4-330.983-3.948C177.783,665.721,88.612,653.777,33.3,644.531,33.057,540.682,12.731,125.235,13.268,20.786Z" transform="translate(51.532 62.974)"/><path class="ef" d="M13.285,20.788c141.4-6.547,218.163,84.959,295.364,84.959,105.49,0,217.675-42.829,323.116-42.829-19.544,179.912-14.316,612-21.5,614.35-107.494,8.346-225.151,4.1-330.055-3.948C177.6,665.274,88.727,653.08,33.856,643.984,33.612,539.685,12.846,125.737,13.285,20.788Z" transform="translate(51.613 62.971)"/><path class="eg" d="M13.3,20.79c141.6-6.6,218.408,85.658,295.168,85.658,105.393,0,217.431-42.529,322.823-42.529-19.544,179.912-14.951,611.1-22.183,613.1-107.494,8.4-224.76,4.2-329.078-3.9-102.608-8.146-191.241-20.39-245.623-29.436C34.217,538.637,12.913,126.289,13.3,20.79Z" transform="translate(51.692 62.969)"/><path class="eh" d="M13.322,20.792c141.7-6.647,218.31,86.258,294.973,86.258,105.344,0,217.186-42.179,322.481-42.179-19.544,179.912-15.635,610.152-22.818,611.751-107.787,8.5-224.76,4.348-328.149-3.8-102.315-8.2-190.948-20.59-244.939-29.536C34.821,537.59,13.029,126.791,13.322,20.792Z" transform="translate(51.771 62.967)"/><path class="ei" d="M13.341,20.795C155.331,14.1,231.553,107.6,308.118,107.6c105.246,0,216.991-41.78,322.481-41.78-19.544,179.912-16.32,609.153-23.5,610.452-107.885,8.546-224.222,4.448-327.367-3.8-102.217-8.246-190.557-20.74-244.3-29.635C35.426,536.593,13.146,127.293,13.341,20.795Z" transform="translate(51.85 62.965)"/><path class="ej" d="M13.35,20.8c142.234-6.747,218.505,87.357,294.582,87.357,105.2,0,216.8-41.48,321.993-41.48-19.544,179.912-17,608.253-24.137,609.2-108.031,8.6-223.929,4.548-326.244-3.748S88.987,651.189,36.07,642.144C36.07,535.546,13.3,127.795,13.35,20.8Z" transform="translate(51.89 62.962)"/><path class="ek" d="M604.635,675.53c-216.551,17.342-462.858-16.092-568.007-33.484C36.628,534.5,13.37,128.3,13.37,20.8,155.8,14,231.924,108.756,307.756,108.756c105.148,0,216.551-41.08,321.7-41.08C610.107,247.388,611.817,674.98,604.635,675.53Z" transform="translate(51.968 62.96)"/></g><g transform="translate(2.891 -0.029)"><rect class="el" width="713.612" height="729.894" transform="translate(0 23.785)"/><path class="em" d="M216.125,48.333c-.586-11.594-7.085-21.689-16.173-23.838a13.775,13.775,0,0,0-3.469-.45,16.014,16.014,0,0,0-10.31,4A55.837,55.837,0,0,0,168.828,13.5l-49.545.45a36.578,36.578,0,0,0-16.026,25.937,38.181,38.181,0,0,0,0,9.445,44.939,44.939,0,0,0,1.808,8.3,5.427,5.427,0,0,0,.537,1.649l-36.5,9.3-.733,5.9,42.167-4.7v.45a56.484,56.484,0,0,0,33.616,23.638,53.8,53.8,0,0,0,12.117,1.449,39.879,39.879,0,0,0,36.3-20.59h.586a14.348,14.348,0,0,0,3.567.45c8.6,0,16.271-7.6,18.518-18.741a20.6,20.6,0,0,1,.391-2.3A35.4,35.4,0,0,0,216.125,48.333Z" transform="translate(262.808 54.114)"/><path class="en" d="M71,51.224,93.082,27.436,83.8,19.14,67.43,48.476Z" transform="translate(259.156 76.66)"/><path class="eo" d="M70.644,30.453c16.368-29.136,53.747-38.581,83.8-20.99s40.9,55.473,24.43,84.659-53.747,38.581-83.8,20.99S54.227,59.639,70.644,30.453Z" transform="translate(241.87 2.577)"/><path class="ep" d="M75.281,18.451A21.5,21.5,0,0,1,96.489,6.517a21.72,21.72,0,0,1,18.718,15.7,22.387,22.387,0,0,1-7.287,23.61,21.206,21.206,0,0,1-24.137,1.861,21.844,21.844,0,0,1-8.5-29.236Z" transform="translate(279.791 25.824)"/><path class="eq" d="M87.1,61.343C71.953,44.951,69.315,21.362,79.624,5.57L78.5,6.42c-16.124,15.592-15.147,43.429,2.2,62.22s44.463,21.44,60.636,5.847a34.808,34.808,0,0,0,5.277-6.447C130.44,82.682,104.055,79.784,87.1,61.343Z" transform="translate(257.564 22.413)"/><path class="er" d="M76.964,17.159A34.351,34.351,0,0,1,124.75,5.115c16.872,9.376,23.127,30.961,13.974,48.226A34.4,34.4,0,0,1,90.939,65.335C74.1,55.96,67.845,34.412,76.964,17.159Z" transform="translate(279.915 0.029)"/><path class="es" d="M78.2,14.308a27.45,27.45,0,0,1,38.209-9.545,28.265,28.265,0,0,1,13.382,16.9,28.965,28.965,0,0,1-2.242,21.628,27.451,27.451,0,0,1-38.16,9.6A28.873,28.873,0,0,1,78.2,14.308Z" transform="translate(288.012 2.63)"/><path class="et" d="M96.547,49.686A28.819,28.819,0,0,1,85.212,11.1,26.776,26.776,0,0,1,96.156.71,26.7,26.7,0,0,0,78.225,13.654,28.771,28.771,0,0,0,89.414,52.135a27.979,27.979,0,0,0,27.411.8A28.75,28.75,0,0,1,96.547,49.686Z" transform="translate(288.134 2.985)"/></g></g></svg>