<svg xmlns="http://www.w3.org/2000/svg" xmlns:xlink="http://www.w3.org/1999/xlink" width="159.421" height="159.422" viewBox="0 0 159.421 159.422"><defs><style>.a{fill:#fff;}.b{fill:#0e538c;}.c{filter:url(#a);}</style><filter id="a" x="0" y="0" width="159.421" height="159.422" filterUnits="userSpaceOnUse"><feOffset dx="5" dy="5" input="SourceAlpha"/><feGaussianBlur stdDeviation="3" result="b"/><feFlood flood-opacity="0.161"/><feComposite operator="in" in2="b"/><feComposite in="SourceGraphic"/></filter></defs><g transform="translate(-1351.289 -9522.289)"><g class="c" transform="matrix(1, 0, 0, 1, 1351.29, 9522.29)"><circle class="a" cx="50" cy="50" r="50" transform="translate(145.42 74.71) rotate(135)"/></g><path class="b" d="M47.24,0H2.758A2.759,2.759,0,0,0,0,2.76V47.242A2.759,2.759,0,0,0,2.76,50H26.709V30.664H20.215V23.1h6.494v-5.57c0-6.459,3.943-9.975,9.7-9.975a53.428,53.428,0,0,1,5.822.3V14.6H38.263c-3.135,0-3.742,1.49-3.742,3.676V23.1h7.5l-.977,7.568H34.522V50H47.24A2.759,2.759,0,0,0,50,47.241h0V2.757A2.759,2.759,0,0,0,47.24,0Zm0,0" transform="translate(1402 9572)"/></g></svg>