<svg xmlns="http://www.w3.org/2000/svg" xmlns:xlink="http://www.w3.org/1999/xlink" width="552.355" height="505" viewBox="0 0 552.355 505">
  <defs>
    <style>
      .cls-1 {
        fill: #f2ea02;
      }

      .cls-2 {
        fill: #ffb8b8;
      }

      .cls-3 {
        fill: #3f3d56;
      }

      .cls-4 {
        fill: #2f2e41;
      }

      .cls-5 {
        fill: #6c63ff;
      }

      .cls-6 {
        fill: #e6e6e6;
      }

      .cls-7 {
        fill: #fff;
      }

      .cls-8 {
        filter: url(#Ellipse_18);
      }
    </style>
    <filter id="Ellipse_18" x="0" y="0" width="547" height="505" filterUnits="userSpaceOnUse">
      <feOffset dx="2" dy="2" input="SourceAlpha"/>
      <feGaussianBlur stdDeviation="2.5" result="blur"/>
      <feFlood flood-opacity="0.161"/>
      <feComposite operator="in" in2="blur"/>
      <feComposite in="SourceGraphic"/>
    </filter>
  </defs>
  <g id="Group_172" data-name="Group 172" transform="translate(-1141.5 -2323.5)">
    <g class="cls-8" transform="matrix(1, 0, 0, 1, 1141.5, 2323.5)">
      <ellipse id="Ellipse_18-2" data-name="Ellipse 18" class="cls-1" cx="266" cy="245" rx="266" ry="245" transform="translate(5.5 5.5)"/>
    </g>
    <g id="undraw_Online_calendar_re_wk3t" transform="translate(1185 2398)">
      <path id="Path_234" data-name="Path 234" class="cls-2" d="M896.107,550.936a6.046,6.046,0,0,1-1.338-4.661,5.81,5.81,0,0,1,2.472-4.093l-4.259-19.966,9.291,3.729,2.62,18.388a6.059,6.059,0,0,1-1.66,7.488,5.142,5.142,0,0,1-7.126-.886Z" transform="translate(-466.468 -285.843)"/>
      <path id="Path_235" data-name="Path 235" class="cls-3" d="M891.471,507.666,883.3,490.724l1.1-42.662.525,1.187c.611,1.382,14.943,33.933,13.921,44.83l1.638,9.958Z" transform="translate(-462.474 -258.419)"/>
      <path id="Path_236" data-name="Path 236" class="cls-2" d="M721.306,578.3h6.55l3.115-27.1H721.3Z" transform="translate(-297.635 -203.84)"/>
      <path id="Path_237" data-name="Path 237" class="cls-4" d="M885.3,737.691h12.9c4.539,0,8.219,3.948,8.219,8.818v.287H885.3Z" transform="translate(-463.297 -365.529)"/>
      <path id="Path_238" data-name="Path 238" class="cls-2" d="M611.134,570.4l6.31,1.882,9.77-25.217L617.9,544.29Z" transform="translate(-252.175 -201.287)"/>
      <path id="Path_239" data-name="Path 239" class="cls-4" d="M774.606,728.588l12.427,3.707h0a8.914,8.914,0,0,1,5.717,10.859l-.072.276-20.346-6.07Z" transform="translate(-416.684 -362.163)"/>
      <path id="Path_240" data-name="Path 240" class="cls-4" d="M831.913,638.578,818.695,537.039,790.146,638,767.7,629.78l32.173-135.2.212-.016,33.7-2.515,24.35,138.318Z" transform="translate(-414.772 -274.688)"/>
      <path id="Path_241" data-name="Path 241" class="cls-5" d="M848.055,417.381a47.188,47.188,0,0,0-28.848-4.012s-8.815,22.816,0,31.9l2.4,22.838s22.437,14.329,29.916-2.293L850.459,446.9s5.342-9.071,1.068-15.712a23.155,23.155,0,0,1-3.472-13.805Z" transform="translate(-434.41 -245.331)"/>
      <path id="Path_242" data-name="Path 242" class="cls-3" d="M870.95,523.22l2.157-48.012L867,418.091l.28-.046c8.006-1.3,10.574,13.5,10.68,14.134L891.9,516.714Z" transform="translate(-455.748 -247.289)"/>
      <path id="Path_243" data-name="Path 243" class="cls-3" d="M810.159,521.247l-24.636-2.937.006-.289c.087-3.913,2.208-95.916,8.149-102.433,5.977-6.555,17.255-3.719,17.732-3.594l.238.062-2.027,38.93Z" transform="translate(-422.127 -244.817)"/>
      <path id="Path_244" data-name="Path 244" class="cls-2" d="M817.117,489.016a5.058,5.058,0,0,1-4.513-.583,5.807,5.807,0,0,1-2.481-4.086l-18.734-3.938,6.952-7.593,16.724,4.9a5.48,5.48,0,0,1,5.7,4.67,5.85,5.85,0,0,1-3.651,6.626Z" transform="translate(-424.547 -267.574)"/>
      <path id="Path_245" data-name="Path 245" class="cls-3" d="M791.106,463.539l-6.1-1.408c-9.012,2.908-24.741-7.329-31.1-11.876-1.2-.855-1.584-2.551-1.153-5.037a14.882,14.882,0,0,1,5.032-8.769l22.39-19.047,5.651-1.014,1.679,10.206-14.266,16.439,21,12.263Z" transform="translate(-408.533 -246.706)"/>
      <path id="Path_246" data-name="Path 246" class="cls-4" d="M814.061,379.913V366.679c0-11.659,8.81-21.111,19.677-21.111s19.677,9.452,19.677,21.111v13.234a2.748,2.748,0,0,1-2.643,2.836H816.7A2.748,2.748,0,0,1,814.061,379.913Z" transform="translate(-433.903 -220.516)"/>
      <ellipse id="Ellipse_19" data-name="Ellipse 19" class="cls-2" cx="14.426" cy="15.478" rx="14.426" ry="15.478" transform="translate(384.618 131.148)"/>
      <path id="Path_247" data-name="Path 247" class="cls-4" d="M820.727,368.837a1.656,1.656,0,0,1-.344-1.256l1.709-12.767a1.572,1.572,0,0,1,.831-1.209,27.975,27.975,0,0,1,26.29-.017,1.588,1.588,0,0,1,.839,1.283l1.141,12.784a1.65,1.65,0,0,1-.375,1.21,1.425,1.425,0,0,1-1.087.516h-2.893a1.471,1.471,0,0,1-1.331-.909l-1.249-2.87a.869.869,0,0,0-.935-.534.918.918,0,0,0-.737.817L842.34,368a1.511,1.511,0,0,1-1.457,1.38H821.837A1.428,1.428,0,0,1,820.727,368.837Z" transform="translate(-436.505 -222.271)"/>
      <rect id="Rectangle_71" data-name="Rectangle 71" class="cls-6" width="323.638" height="216.225" transform="translate(0 25.438)"/>
      <rect id="Rectangle_72" data-name="Rectangle 72" class="cls-7" width="59.275" height="41.337" transform="translate(21.703 67.093)"/>
      <rect id="Rectangle_73" data-name="Rectangle 73" class="cls-7" width="59.275" height="41.337" transform="translate(95.355 67.093)"/>
      <rect id="Rectangle_74" data-name="Rectangle 74" class="cls-7" width="59.275" height="41.337" transform="translate(169.009 67.093)"/>
      <rect id="Rectangle_75" data-name="Rectangle 75" class="cls-7" width="59.275" height="41.337" transform="translate(242.661 67.093)"/>
      <rect id="Rectangle_76" data-name="Rectangle 76" class="cls-7" width="59.275" height="41.337" transform="translate(21.703 125.601)"/>
      <rect id="Rectangle_77" data-name="Rectangle 77" class="cls-7" width="59.275" height="41.337" transform="translate(95.355 125.601)"/>
      <rect id="Rectangle_78" data-name="Rectangle 78" class="cls-7" width="59.275" height="41.337" transform="translate(169.009 125.601)"/>
      <rect id="Rectangle_79" data-name="Rectangle 79" class="cls-7" width="59.275" height="41.337" transform="translate(242.661 125.601)"/>
      <rect id="Rectangle_80" data-name="Rectangle 80" class="cls-7" width="59.275" height="41.337" transform="translate(21.703 184.109)"/>
      <rect id="Rectangle_81" data-name="Rectangle 81" class="cls-7" width="59.275" height="41.337" transform="translate(95.355 184.109)"/>
      <rect id="Rectangle_82" data-name="Rectangle 82" class="cls-7" width="59.275" height="41.337" transform="translate(169.009 184.109)"/>
      <rect id="Rectangle_83" data-name="Rectangle 83" class="cls-7" width="59.275" height="41.337" transform="translate(242.661 184.109)"/>
      <ellipse id="Ellipse_20" data-name="Ellipse 20" class="cls-7" cx="8.891" cy="9.539" rx="8.891" ry="9.539" transform="translate(75.872 31.798)"/>
      <ellipse id="Ellipse_21" data-name="Ellipse 21" class="cls-7" cx="8.891" cy="9.539" rx="8.891" ry="9.539" transform="translate(222.872 31.798)"/>
      <rect id="Rectangle_84" data-name="Rectangle 84" class="cls-6" width="7.113" height="43.881" transform="translate(81.206)"/>
      <rect id="Rectangle_85" data-name="Rectangle 85" class="cls-6" width="7.113" height="43.881" transform="translate(228.207)"/>
      <path id="Path_248" data-name="Path 248" class="cls-5" d="M634.467,277.969c-.006,7.14-4.907,13.188-11.5,14.186s-12.86-3.355-14.71-10.214,1.285-14.133,7.354-17.063a12.882,12.882,0,0,1,16.781,5.409A15.119,15.119,0,0,1,634.467,277.969Z" transform="translate(-348.764 -190.207)"/>
      <path id="Path_249" data-name="Path 249" class="cls-7" d="M636.624,272.946,623.43,287.1c-.829-1.377-5.449-7.779-5.449-7.779a19.177,19.177,0,0,1,1.891-1.791l3.831,5.481,11.376-12.206a14.247,14.247,0,0,1,1.545,2.141Z" transform="translate(-352.993 -192.867)"/>
      <path id="Path_250" data-name="Path 250" class="cls-5" d="M383.676,370.811c-.006,7.14-4.907,13.187-11.5,14.186s-12.86-3.356-14.709-10.214,1.285-14.132,7.354-17.063a12.882,12.882,0,0,1,16.781,5.409,15.119,15.119,0,0,1,2.072,7.682Z" transform="translate(-245.279 -224.542)"/>
      <path id="Path_251" data-name="Path 251" class="cls-7" d="M385.833,365.789l-13.195,14.154c-.829-1.377-5.449-7.779-5.449-7.779a19.181,19.181,0,0,1,1.891-1.791l3.831,5.481,11.376-12.206A14.245,14.245,0,0,1,385.833,365.789Z" transform="translate(-249.508 -227.202)"/>
      <path id="Path_252" data-name="Path 252" class="cls-5" d="M258.28,370.811c-.006,7.14-4.907,13.188-11.5,14.186s-12.86-3.355-14.71-10.214,1.285-14.133,7.354-17.063a12.882,12.882,0,0,1,16.781,5.409A15.118,15.118,0,0,1,258.28,370.811Z" transform="translate(-193.536 -224.542)"/>
      <path id="Path_253" data-name="Path 253" class="cls-7" d="M260.437,365.789l-13.195,14.154c-.829-1.377-5.449-7.779-5.449-7.779a19.183,19.183,0,0,1,1.891-1.791l3.831,5.481,11.376-12.206a14.242,14.242,0,0,1,1.545,2.142Z" transform="translate(-197.765 -227.202)"/>
      <path id="Path_254" data-name="Path 254" class="cls-3" d="M874.544,752.13H650.757a.632.632,0,0,1,0-1.26H874.544a.632.632,0,0,1,0,1.26Z" transform="translate(-366.276 -370.403)"/>
    </g>
  </g>
</svg>
