<svg xmlns="http://www.w3.org/2000/svg" xmlns:xlink="http://www.w3.org/1999/xlink" width="552.5" height="505" viewBox="0 0 552.5 505">
  <defs>
    <style>
      .cls-1 {
        fill: #f2ea02;
      }

      .cls-2 {
        fill: #ffb8b8;
      }

      .cls-3 {
        fill: #2f2e41;
      }

      .cls-4 {
        fill: #6c63ff;
      }

      .cls-5 {
        fill: #ccc;
      }

      .cls-6 {
        fill: #f2f2f2;
      }

      .cls-7 {
        fill: #fff;
      }

      .cls-8 {
        fill: #3f3d56;
      }

      .cls-9 {
        filter: url(#Ellipse_13);
      }
    </style>
    <filter id="Ellipse_13" x="11.5" y="0" width="541" height="505" filterUnits="userSpaceOnUse">
      <feOffset dx="2" dy="2" input="SourceAlpha"/>
      <feGaussianBlur stdDeviation="2.5" result="blur"/>
      <feFlood flood-opacity="0.161"/>
      <feComposite operator="in" in2="blur"/>
      <feComposite in="SourceGraphic"/>
    </filter>
  </defs>
  <g id="Group_171" data-name="Group 171" transform="translate(-186 -1833.5)">
    <g class="cls-9" transform="matrix(1, 0, 0, 1, 186, 1833.5)">
      <ellipse id="Ellipse_13-2" data-name="Ellipse 13" class="cls-1" cx="263" cy="245" rx="263" ry="245" transform="translate(17 5.5)"/>
    </g>
    <g id="undraw_Code_review_re_woeb" transform="translate(186 1909)">
      <ellipse id="Ellipse_14" data-name="Ellipse 14" class="cls-2" cx="14.077" cy="15.807" rx="14.077" ry="15.807" transform="translate(72.199 148.227)"/>
      <path id="Path_205" data-name="Path 205" class="cls-2" d="M67.543,540.648l3.564,6.8,25.053-12.2L90.9,525.21Z" transform="translate(-28.832 -187.188)"/>
      <path id="Path_206" data-name="Path 206" class="cls-3" d="M200.252,694.43l7.019,13.391h0c2.47,4.713,1.07,10.783-3.127,13.557l-.247.163L192.4,699.617Z" transform="translate(-160.473 -344.011)"/>
      <path id="Path_207" data-name="Path 207" class="cls-2" d="M139.6,570.406h7.027l3.343-30.434H139.6Z" transform="translate(-59.59 -192.449)"/>
      <path id="Path_208" data-name="Path 208" class="cls-3" d="M273.162,733.215H287c4.871,0,8.819,4.434,8.819,9.9v.321H273.162Z" transform="translate(-194.945 -357.833)"/>
      <path id="Path_209" data-name="Path 209" class="cls-3" d="M220.033,657.63a2.5,2.5,0,0,1-2.077-1.18l-6.777-10.335a3.175,3.175,0,0,1-.464-2.218,2.943,2.943,0,0,1,1.108-1.908l30.155-22.617-18.2-53.724,38.909,3.606L264,615.422c.251,8.567-3.727,16.592-10.343,20.868l-32.34,20.951A2.359,2.359,0,0,1,220.033,657.63Z" transform="translate(-168.272 -298.112)"/>
      <path id="Path_210" data-name="Path 210" class="cls-3" d="M273.681,700.586a2.739,2.739,0,0,1-2.573-2.793l-1.426-44.976,17.657-1.045-1.406,45.3a2.757,2.757,0,0,1-2.407,2.789l-9.67.72C273.8,700.584,273.739,700.586,273.681,700.586Z" transform="translate(-193.46 -328.807)"/>
      <path id="Path_211" data-name="Path 211" class="cls-4" d="M274.653,531.909c-4.492,0-20.184-5.674-25.631-7.7-.815.732-5.292,4.491-10.518,3.8-3.224-.425-6.063-2.474-8.437-6.092-5.242-7.99,1.233-42.253,7.588-69.589,2.648-11.484,12.911-18.559,23.228-16.013h0c7.339,1.819,13.13,8.145,14.952,16.333,1.2,5.469.167,11.9-.584,16.6a25.208,25.208,0,0,0-.537,4.811c.369,3.314,2.418,55.279,1.1,57.5C275.673,531.8,275.267,531.909,274.653,531.909Z" transform="translate(-175.729 -251.835)"/>
      <path id="Path_212" data-name="Path 212" class="cls-2" d="M271.388,544.539a7.183,7.183,0,0,0,2.47-5.151,7.378,7.378,0,0,0-1.931-5.434l.278-62.972L259,473.452l3.88,61.122a7.6,7.6,0,0,0,.314,9.227,5.705,5.705,0,0,0,8.2.737Z" transform="translate(-188.899 -264.373)"/>
      <path id="Path_213" data-name="Path 213" class="cls-4" d="M273.169,501.979H258.943a2.756,2.756,0,0,1-2.579-2.87l-.349-43.309c.006-6.257,4.529-11.323,10.1-11.315s10.083,5.086,10.077,11.343l-.443,43.288A2.757,2.757,0,0,1,273.169,501.979Z" transform="translate(-187.625 -254.929)"/>
      <path id="Path_214" data-name="Path 214" class="cls-3" d="M270.654,408.611c-6.445.013-12.525-5.707-13.642-12.835a20.634,20.634,0,0,1,.527-8.376,21.917,21.917,0,0,1,10.873-14.087,18.049,18.049,0,0,1,16.6-.042,8.375,8.375,0,0,1,4.212,4.066c.789,1.931.3,4.631-1.432,5.5-1.129.568-2.545.289-3.546,1.1-1.438,1.171-1.068,3.663-.426,5.523s1.368,4.111.292,5.7c-1,1.479-3.008,1.433-4.588.876s-3.138-1.489-4.785-1.3c-2.4.276-4.128,2.959-4.447,5.646s.433,5.373,1.175,7.953Z" transform="translate(-187.963 -228.835)"/>
      <path id="Path_215" data-name="Path 215" class="cls-5" d="M285.13,749.329H137.262a.648.648,0,0,1,0-1.287H285.13a.648.648,0,0,1,0,1.287Z" transform="translate(-136.689 -363.118)"/>
      <path id="Path_216" data-name="Path 216" class="cls-6" d="M766.214,433.481H398.929c-5.22-.007-9.451-4.757-9.457-10.619V168.544c0-4.295,3.1-7.775,6.928-7.78H768.622c3.891,0,7.044,3.546,7.048,7.915V422.862C775.664,428.724,771.434,433.475,766.214,433.481Z" transform="translate(-244.594 -153.809)"/>
      <path id="Path_217" data-name="Path 217" class="cls-7" d="M764.368,431.8h-342.3a9.354,9.354,0,0,1-9.1-9.569V200.77a6.935,6.935,0,0,1,6.743-7.1h346.9a7.049,7.049,0,0,1,6.855,7.214V422.234A9.354,9.354,0,0,1,764.368,431.8Z" transform="translate(-254.624 -165.538)"/>
      <path id="Path_218" data-name="Path 218" class="cls-8" d="M775.44,166.016h-386.2v-5.406c.008-5.882,4.253-10.646,9.491-10.651H765.949c5.238,0,9.484,4.77,9.491,10.651Z" transform="translate(-244.495 -149.958)"/>
      <ellipse id="Ellipse_15" data-name="Ellipse 15" class="cls-7" cx="2.455" cy="2.757" rx="2.455" ry="2.757" transform="translate(159.539 5.288)"/>
      <ellipse id="Ellipse_16" data-name="Ellipse 16" class="cls-7" cx="2.455" cy="2.757" rx="2.455" ry="2.757" transform="translate(168.858 5.288)"/>
      <ellipse id="Ellipse_17" data-name="Ellipse 17" class="cls-7" cx="2.455" cy="2.757" rx="2.455" ry="2.757" transform="translate(178.176 5.288)"/>
      <path id="Path_219" data-name="Path 219" class="cls-5" d="M660.636,264.232H593.689a4.254,4.254,0,0,1,0-8.452h66.946a4.254,4.254,0,0,1,0,8.452Z" transform="translate(-330.161 -187.673)"/>
      <path id="Path_220" data-name="Path 220" class="cls-5" d="M805.781,264.232H738.835a4.254,4.254,0,0,1,0-8.452h66.946a4.254,4.254,0,0,1,0,8.452Z" transform="translate(-392.119 -187.673)"/>
      <path id="Path_221" data-name="Path 221" class="cls-5" d="M768.9,289.114H652.438a4.254,4.254,0,0,1,0-8.452H768.9a4.254,4.254,0,0,1,0,8.452Z" transform="translate(-355.239 -196.541)"/>
      <path id="Path_222" data-name="Path 222" class="cls-5" d="M660.636,239H593.689a4.254,4.254,0,0,1,0-8.452h66.946a4.254,4.254,0,0,1,0,8.452Z" transform="translate(-330.161 -178.682)"/>
      <path id="Path_223" data-name="Path 223" class="cls-5" d="M760.614,239.35H741.6a4.254,4.254,0,0,1,0-8.452h19.015a4.254,4.254,0,0,1,0,8.452Z" transform="translate(-393.299 -178.805)"/>
      <path id="Path_224" data-name="Path 224" class="cls-5" d="M612.7,289.114H593.689a4.254,4.254,0,0,1,0-8.452H612.7a4.254,4.254,0,0,1,0,8.452Z" transform="translate(-330.161 -196.541)"/>
      <path id="Path_225" data-name="Path 225" class="cls-5" d="M660.636,497.232H593.689a4.254,4.254,0,0,1,0-8.452h66.946a4.254,4.254,0,0,1,0,8.452Z" transform="translate(-330.161 -270.716)"/>
      <path id="Path_226" data-name="Path 226" class="cls-5" d="M805.781,497.232H738.835a4.254,4.254,0,0,1,0-8.452h66.946a4.254,4.254,0,0,1,0,8.452Z" transform="translate(-392.119 -270.716)"/>
      <path id="Path_227" data-name="Path 227" class="cls-5" d="M768.9,522.114H652.438a4.254,4.254,0,0,1,0-8.452H768.9a4.254,4.254,0,0,1,0,8.452Z" transform="translate(-355.239 -279.584)"/>
      <path id="Path_228" data-name="Path 228" class="cls-5" d="M660.636,472H593.689a4.254,4.254,0,0,1,0-8.452h66.946a4.254,4.254,0,0,1,0,8.452Z" transform="translate(-330.161 -261.724)"/>
      <path id="Path_229" data-name="Path 229" class="cls-5" d="M760.614,472.35H741.6a4.254,4.254,0,0,1,0-8.452h19.015a4.254,4.254,0,0,1,0,8.452Z" transform="translate(-393.299 -261.848)"/>
      <path id="Path_230" data-name="Path 230" class="cls-5" d="M612.7,522.114H593.689a4.254,4.254,0,0,1,0-8.452H612.7a4.254,4.254,0,0,1,0,8.452Z" transform="translate(-330.161 -279.584)"/>
      <path id="Path_231" data-name="Path 231" class="cls-4" d="M660.061,393.975a5.1,5.1,0,0,1-3.8-1.744L631.1,364.325a6.41,6.41,0,0,1,0-8.382l25.064-27.793a5.138,5.138,0,0,1,7.82.028h0a6.791,6.791,0,0,1,0,8.809L645.358,357.9a3.794,3.794,0,0,0,0,4.921l18.524,20.8a6.615,6.615,0,0,1,1.173,6.611,5.43,5.43,0,0,1-4.994,3.74Z" transform="translate(-347.071 -212.828)"/>
      <path id="Path_232" data-name="Path 232" class="cls-4" d="M748.628,393.976a5.43,5.43,0,0,1-4.994-3.741,6.615,6.615,0,0,1,1.173-6.611l18.523-20.8a3.794,3.794,0,0,0,0-4.921l-18.625-20.915a6.782,6.782,0,0,1,0-8.809h0a5.138,5.138,0,0,1,7.82-.028l25.064,27.793a6.41,6.41,0,0,1,0,8.382l-25.166,27.906A5.1,5.1,0,0,1,748.628,393.976Z" transform="translate(-395.538 -212.828)"/>
    </g>
  </g>
</svg>
