<svg xmlns="http://www.w3.org/2000/svg" xmlns:xlink="http://www.w3.org/1999/xlink" width="159.421" height="159.422" viewBox="0 0 159.421 159.422"><defs><style>.a{fill:#fff;}.b{fill:#0e538c;}.c{filter:url(#a);}</style><filter id="a" x="0" y="0" width="159.421" height="159.422" filterUnits="userSpaceOnUse"><feOffset dx="5" dy="5" input="SourceAlpha"/><feGaussianBlur stdDeviation="3" result="b"/><feFlood flood-opacity="0.161"/><feComposite operator="in" in2="b"/><feComposite in="SourceGraphic"/></filter></defs><g transform="translate(-1741.289 -9522.289)"><g class="c" transform="matrix(1, 0, 0, 1, 1741.29, 9522.29)"><circle class="a" cx="50" cy="50" r="50" transform="translate(145.42 74.71) rotate(135)"/></g><g transform="translate(1791 9572.668)"><path class="b" d="M6.064-.668A5.707,5.707,0,0,0,0,5.161a5.668,5.668,0,0,0,5.923,5.828h.07a5.707,5.707,0,0,0,6.064-5.828A5.687,5.687,0,0,0,6.064-.668Zm0,0"/><path class="b" d="M8.109,198.313H18.828v33.736H8.109Zm0,0" transform="translate(-7.476 -182.717)"/><path class="b" d="M241.593,188.625c-5.782,0-9.659,5.684-9.659,5.684v-4.893H221.215v33.736h10.718v-18.84a8.015,8.015,0,0,1,.353-2.737,5.9,5.9,0,0,1,5.5-4.1c3.878,0,5.43,3.094,5.43,7.629v18.048h10.717V203.809c0-10.362-5.288-15.184-12.339-15.184Zm0,0" transform="translate(-203.933 -173.821)"/></g></g></svg>