<svg xmlns="http://www.w3.org/2000/svg" width="745.38" height="754.9" viewBox="0 0 745.38 754.9">
  <defs>
    <style>
      .cls-1, .cls-16 {
        fill: #cce9ff;
      }

      .cls-1 {
        opacity: 0.37;
      }

      .cls-2 {
        fill: #ffbe55;
      }

      .cls-3 {
        fill: #2a94f4;
      }

      .cls-4 {
        fill: #fff;
      }

      .cls-5 {
        fill: #0e538c;
      }

      .cls-6 {
        fill: #f7f7f7;
      }

      .cls-7 {
        fill: #0b4870;
      }

      .cls-8 {
        fill: #f2f2f2;
      }

      .cls-9 {
        fill: #d3d3d3;
      }

      .cls-10 {
        fill: #ffb750;
      }

      .cls-11 {
        fill: #ffe3ca;
      }

      .cls-12 {
        fill: #eb4747;
      }

      .cls-13 {
        fill: #fcd2b1;
      }

      .cls-14 {
        fill: #f2f0f0;
      }

      .cls-15 {
        fill: #fcbaa2;
      }

      .cls-17 {
        fill: #ff957e;
      }

      .cls-18 {
        fill: #e9d6b8;
      }
    </style>
  </defs>
  <g id="support-team" transform="translate(-145.2 -39.289)">
    <g id="Group_119" data-name="Group 119" transform="translate(145.2 39.289)">
      <path id="Path_1" data-name="Path 1" class="cls-1" d="M209.977,658.612c1.626,3.991,3.423,7.983,5.391,11.8,29.265,56.984,88.651,92.907,151.973,99.361,50.658,5.1,99.946-11.295,142.3-38.046,42.272-26.666,76.158-64.2,123.136-83.735,66.231-27.431,140.078-49.086,192.02-107.174C883.842,474.836,906.6,374.8,878.794,290.38,851.753,208,761.99,181.338,692.251,145.075c-125.36-65.307-298.982-108.7-429.477-32.016-156.337,91.8-127.928,300.207-78.382,444.833C195.686,590.842,197.056,626.341,209.977,658.612Z" transform="translate(-145.2 -44.261)"/>
      <path id="Path_2" data-name="Path 2" class="cls-2" d="M298.778,300.533l-.257-1.614H296.9c-31.661,0-41.929-10.106-42.015-10.191l-1.369-1.529-1.369,1.529c-.086.085-10.268,10.191-42.015,10.191H208.5l-.257,1.614c-.086.51-6.76,51.124,44.411,77.111l.856.425.856-.425C305.709,351.657,298.778,301.043,298.778,300.533Zm-7.7,31.337c-6.332,18.174-19,32.271-37.651,41.953-18.654-9.681-31.319-23.779-37.651-41.953a74.6,74.6,0,0,1-4.022-29.129c26.356-.34,38.079-7.3,41.673-10.191,3.594,2.8,15.317,9.851,41.673,10.191A74.453,74.453,0,0,1,291.077,331.87Z" transform="translate(-154.25 -76.664)"/>
      <g id="Group_1" data-name="Group 1" transform="translate(166.263 98.861)">
        <path id="Path_3" data-name="Path 3" class="cls-2" d="M367.995,215.656l-1.8-4.671a22.3,22.3,0,0,1-4.706-1.1l-3.68,3.4L347.2,205.72l2.054-4.586a20.42,20.42,0,0,1-2.567-4.076l-5.049-.17L339.5,184.065l4.706-1.783a21.861,21.861,0,0,1,1.112-4.671l-3.423-3.652,7.616-10.616,4.621,2.038a20.625,20.625,0,0,1,4.107-2.548l.171-5.011,12.921-2.123,1.8,4.671a22.305,22.305,0,0,1,4.706,1.1l3.68-3.4,10.611,7.558-2.054,4.586a20.418,20.418,0,0,1,2.567,4.076l5.049.17,2.139,12.824-4.706,1.783a28.575,28.575,0,0,1-1.112,4.671l3.423,3.652-7.616,10.616-4.621-2.038a20.623,20.623,0,0,1-4.107,2.548l-.171,5.011Zm-7.359-9.851,1.027.425a20.478,20.478,0,0,0,5.99,1.359l1.112.085,1.54,3.991,7.1-1.189.171-4.246,1.027-.425a25.393,25.393,0,0,0,5.22-3.227l.856-.679,3.936,1.783,4.193-5.775-2.995-3.142.428-1.019a20.065,20.065,0,0,0,1.369-5.945l.086-1.1,4.022-1.529-1.2-7.049-4.279-.17-.428-1.019a25.142,25.142,0,0,0-3.252-5.18l-.685-.849,1.8-3.907-5.819-4.161-3.166,2.887-1.027-.425a20.478,20.478,0,0,0-5.99-1.359l-1.112-.085-1.54-3.991-7.1,1.189-.171,4.246-1.027.425a25.394,25.394,0,0,0-5.22,3.227l-.856.679-3.936-1.783-4.193,5.775,2.995,3.142-.428,1.019a20.065,20.065,0,0,0-1.369,5.945l-.086,1.1-4.022,1.529,1.2,7.049,4.279.17.428,1.019a25.143,25.143,0,0,0,3.252,5.18l.685.849-1.8,3.906,5.819,4.161Zm8.9-5.945a14.314,14.314,0,0,1-8.215-2.633,14.063,14.063,0,0,1-3.337-19.7,14.234,14.234,0,0,1,23.275,16.39,14.5,14.5,0,0,1-9.242,5.775C371.075,199.776,370.305,199.861,369.535,199.861Zm0-24.713a10.541,10.541,0,0,0-8.643,4.416,10.532,10.532,0,0,0,2.482,14.692h0a10.716,10.716,0,0,0,14.8-2.463A10.532,10.532,0,0,0,375.7,177.1,11.018,11.018,0,0,0,369.535,175.148Z" transform="translate(-339.5 -155.7)"/>
      </g>
      <g id="Group_2" data-name="Group 2" transform="translate(539.948 163.148)">
        <path id="Path_4" data-name="Path 4" class="cls-2" d="M841.233,365.5l-4.022-10.446a57.544,57.544,0,0,1-12.579-2.887l-8.215,7.643L794.17,344.094l4.621-10.191a56.979,56.979,0,0,1-6.846-10.87l-11.21-.34L776.2,295.942l10.525-3.991a56.384,56.384,0,0,1,2.909-12.484l-7.7-8.153,15.83-22.08,10.268,4.586a57.548,57.548,0,0,1,10.953-6.794l.342-11.125,26.955-4.5,4.022,10.446a57.543,57.543,0,0,1,12.579,2.887l8.215-7.643L893.346,252.8l-4.621,10.191a56.984,56.984,0,0,1,6.846,10.87l11.21.34,4.535,26.751-10.525,3.991a56.381,56.381,0,0,1-2.909,12.484l7.7,8.153-15.831,22.08-10.268-4.586a57.551,57.551,0,0,1-10.953,6.794l-.342,11.125Zm-17.8-18.768,1.369.51a53.909,53.909,0,0,0,14.2,3.227l1.54.17,3.68,9.512,19.168-3.227.342-10.191,1.369-.594a52.2,52.2,0,0,0,12.408-7.728l1.112-.934,9.413,4.161,11.3-15.711-7.017-7.473.513-1.359a52.821,52.821,0,0,0,3.252-14.1l.086-1.529,9.584-3.652L902.5,278.788l-10.268-.34-.6-1.359a51.693,51.693,0,0,0-7.787-12.314l-.941-1.1,4.193-9.342-15.831-11.21-7.53,6.964-1.369-.51a53.909,53.909,0,0,0-14.2-3.227l-1.54-.085-3.68-9.512-19.168,3.227-.342,10.191-1.369.594a52.2,52.2,0,0,0-12.408,7.728l-1.112.934-9.413-4.161-11.124,15.711,7.017,7.473-.513,1.359a52.825,52.825,0,0,0-3.252,14.1l-.086,1.529-9.584,3.652,3.252,19.023,10.268.34.6,1.359A51.692,51.692,0,0,0,803.5,332.12l.941,1.1-4.193,9.342,15.83,11.21Zm20.195-17.494a31.275,31.275,0,0,1-17.97-5.69,30.7,30.7,0,0,1-7.273-42.972,31.232,31.232,0,0,1,43.3-7.219,30.7,30.7,0,0,1,7.273,42.972A31.234,31.234,0,0,1,843.629,329.233Zm.086-56.814a26.167,26.167,0,0,0-21.393,10.955,25.863,25.863,0,0,0,6.161,36.348,26.242,26.242,0,0,0,41.159-25.562,26.012,26.012,0,0,0-10.7-16.9A26.314,26.314,0,0,0,843.715,272.418Z" transform="translate(-776.2 -231.4)"/>
      </g>
      <path id="Path_5" data-name="Path 5" class="cls-2" d="M345.948,584.207c-4.107-11.465-8.814-24.373-3.594-37.621,7.017-17.834-7.872-27.006-20.965-35.244-11.3-6.964-21.906-13.588-18.312-24.543,3.936-11.889,3.68-21.061-.77-27.091-3.765-5.1-10.44-7.813-19.339-7.728-7.1.085-13.435-8.577-20.195-17.664-7.958-10.7-16.087-21.741-26.356-19.278a6.049,6.049,0,0,0-4.107,3.057c-3.594,6.709,2.054,22.675,8.129,39.66,6.5,18.344,13.948,39.065,9.07,47.9-5.305,9.681,4.279,18.513,14.461,27.94,10.782,9.936,23.018,21.231,19.767,35.413-3.081,13.248-3.765,18.174-1.883,21.061,1.455,2.293,4.45,2.8,8.985,3.652a94.385,94.385,0,0,1,11.809,2.8c20.622,6.369,26.612,19.617,26.7,19.787l.257.594.6-.085c9.926-1.529,15.745-4.331,18.483-8.832.171-.255.257-.51.428-.764C352.023,601.192,349.2,593.294,345.948,584.207Z" transform="translate(-157.608 -95.884)"/>
      <path id="Path_6" data-name="Path 6" class="cls-3" d="M285.092,573.737c3.423,5.265,5.9,9.851,5.648,16.305-.171,6.03-1.112,11.974-1.626,17.919-.086,1.274-.171,2.463-.257,3.652-1.711-1.444-3.337-2.887-5.049-4.331a21.8,21.8,0,0,0-2.4-.085c2.4,1.953,4.878,4.076,7.273,6.2-.257,4.161-.342,8.323-.342,12.484,0,2.463-.086,5.1.086,7.558-2.225-1.359-4.535-2.718-6.674-4.076-6.674-4.076-12.921-7.9-17.713-9.936-3.68-1.529-7.787-2.887-11.723-4.161-10.268-3.312-20.794-6.709-24.3-13.928-1.8-3.737-1.626-8.238.513-13.673,5.391-14.013.342-16.39-8.129-20.467-6.161-2.972-14.547-6.964-22.933-17.07-3.68-4.416-6.931-8.238-9.841-11.55-8.643-10.106-13.435-15.626-12.836-18.853a3.689,3.689,0,0,1,1.455-2.123,8.963,8.963,0,0,1,1.626-1.019c3.252-1.783,6.5-.425,10.183,1.1,4.963,2.038,11.039,4.671,19.51.34,6.674-3.4,14.119-6.539,18.569-3.991,3.081,1.7,4.878,6.115,5.477,13.333.171,2.293.941,3.906,2.225,4.841,1.883,1.359,4.792,1.189,8.129.51h0c2.31,3.142,5.305,4.671,8.9,5.945,5.049,1.783,8.814,3.4,12.493,7.473C271.229,554.969,278.845,563.971,285.092,573.737Z" transform="translate(-149.463 -110.721)"/>
      <path id="Path_7" data-name="Path 7" class="cls-4" d="M261.584,590.914c-5.134-3.4-9.584-11.635-13.862-19.617-5.819-10.87-11.894-22.08-20.195-21.826-13.349.34-25.243-15.286-25.414-15.371l-1.112.849c.513.679,12.493,16.305,26.527,15.966,7.445-.17,13.349,10.615,18.911,21.146,4.364,8.068,8.9,16.475,14.29,20.127,3.252,2.123,9.242,6.454,16.344,11.974v-1.783A167.22,167.22,0,0,0,261.584,590.914Z" transform="translate(-153.252 -113.886)"/>
      <path id="Path_8" data-name="Path 8" class="cls-2" d="M795.4,674.11s7.7-19.023-6.332-46.029c-14.119-27.006-25.5-22.845,8.471-43.651s.171-86.2,29.094-94.521,53.995-114.223,75.986-100.72-7.359,65.392,8.386,81.018c15.659,15.626,17.8,35.413-14.633,51.464s23.018,77.366-20.965,96.049S844.092,709.693,795.4,674.11Z" transform="translate(-236.115 -91.86)"/>
      <g id="Group_3" data-name="Group 3" transform="translate(571.955 357.965)">
        <path id="Path_9" data-name="Path 9" class="cls-4" d="M814.371,705.212c-.086-.255-4.792-24.543,10.183-55.965,15.232-32.016,22.505-67.005,19.51-93.671-1.626-14.437,7.7-20.042,16.686-25.477,8.9-5.35,18.055-10.955,17.542-25.138-.428-12.824,5.049-42.887,5.22-44.161l1.968.34c-.086.34-5.648,31.167-5.22,43.736.513,15.371-9.156,21.231-18.483,26.836-8.9,5.35-17.2,10.446-15.745,23.609,3.081,26.921-4.279,62.334-19.681,94.691-14.633,30.827-10.1,54.521-10.012,54.776Z" transform="translate(-813.604 -460.8)"/>
      </g>
      <path id="Path_10" data-name="Path 10" class="cls-5" d="M938.15,562.28c12.237-5.775,25.243-3.142,18.483,9s-16.857,13.078-14.975,22.675,6.846,20.042-9.07,26.157c-15.916,6.03-23.361,5.011-33.03,22.76-9.755,17.749-13.092,30.912-29.778,26.666-16.686-4.331-2.824-26.157,5.819-35.328a37.273,37.273,0,0,0,11.552-27.6c-.171-17.749-7.53-29.639,15.574-28.45C925.828,579.18,929.85,566.186,938.15,562.28Z" transform="translate(-248.625 -117.692)"/>
      <g id="Group_4" data-name="Group 4" transform="translate(618.502 456.052)">
        <path id="Path_11" data-name="Path 11" class="cls-4" d="M868,684.493c.685-2.293,16.772-57.239,29.95-63.184,13.435-6.115,20.708-22.08,23.874-31,4.107-11.635,21.649-13.928,22.334-14.013l.257,1.953c-.171,0-17.029,2.208-20.708,12.654-3.936,11.295-11.466,26.072-24.9,32.186-12.322,5.6-28.666,61.4-28.837,61.995Z" transform="translate(-868 -576.3)"/>
      </g>
      <path id="Path_12" data-name="Path 12" class="cls-4" d="M354.966,621.162c-26.356-6.539-26.7-20.637-27.04-34.224-.257-11.125-.513-21.656-14.8-28.11-18.911-8.577-19.339-24.458-19.767-38.471-.342-10.446-.6-20.3-8.471-25.647-18.911-12.824-34.913-43.906-35.084-44.246l1.455-.764c.171.34,15.916,31,34.57,43.651,8.557,5.775,8.9,16.051,9.156,26.921.428,14.182.856,28.959,18.825,37.027,15.146,6.879,15.488,18.429,15.745,29.554.342,13.588.685,26.5,25.842,32.7Z" transform="translate(-160.293 -101.162)"/>
      <g id="Group_62" data-name="Group 62" transform="translate(111.926 189.22)">
        <g id="Group_5" data-name="Group 5" transform="translate(47.235)">
          <path id="Path_13" data-name="Path 13" class="cls-6" d="M331.2,580.311H764.1V270.168a8.1,8.1,0,0,0-8.129-8.068H339.329a8.1,8.1,0,0,0-8.129,8.068Z" transform="translate(-331.2 -262.1)"/>
        </g>
        <g id="Group_6" data-name="Group 6" transform="translate(62.525 15.552)">
          <rect id="Rectangle_2" data-name="Rectangle 2" class="cls-7" width="401.496" height="244.836" transform="translate(401.496 244.836) rotate(180)"/>
        </g>
        <path id="Path_14" data-name="Path 14" class="cls-8" d="M756.135,582.7H323.406L276,758.408H803.455Z" transform="translate(-276 -310.433)"/>
        <path id="Path_15" data-name="Path 15" class="cls-7" d="M349.7,619h26.612c1.112,0,1.968.849,1.711,1.783l-2.567,11.465a1.7,1.7,0,0,1-1.711,1.189H346.7a1.577,1.577,0,0,1-1.711-1.868l2.995-11.465A1.74,1.74,0,0,1,349.7,619Z" transform="translate(-285.949 -315.906)"/>
        <path id="Path_16" data-name="Path 16" class="cls-7" d="M395.281,619H415.39l-2.653,14.522H392.2Z" transform="translate(-292.767 -315.906)"/>
        <path id="Path_17" data-name="Path 17" class="cls-7" d="M430.582,619h20.109l-2.054,14.522H428.1Z" transform="translate(-297.948 -315.906)"/>
        <path id="Path_18" data-name="Path 18" class="cls-7" d="M465.968,619h20.109l-1.54,14.522H464Z" transform="translate(-303.128 -315.906)"/>
        <path id="Path_19" data-name="Path 19" class="cls-7" d="M501.269,619h20.109l-.941,14.522H499.9Z" transform="translate(-308.308 -315.906)"/>
        <path id="Path_20" data-name="Path 20" class="cls-7" d="M536.57,619h20.109l-.342,14.522H535.8Z" transform="translate(-313.489 -315.906)"/>
        <path id="Path_21" data-name="Path 21" class="cls-7" d="M813.606,619H783.4l3.252,14.522h30.72Z" transform="translate(-349.217 -315.906)"/>
        <path id="Path_22" data-name="Path 22" class="cls-7" d="M768.309,619H748.2l2.653,14.522H771.39Z" transform="translate(-344.137 -315.906)"/>
        <path id="Path_23" data-name="Path 23" class="cls-7" d="M733.109,619H713l2.054,14.522h20.537Z" transform="translate(-339.058 -315.906)"/>
        <path id="Path_24" data-name="Path 24" class="cls-7" d="M697.809,619H677.7l1.54,14.522h20.537Z" transform="translate(-333.964 -315.906)"/>
        <path id="Path_25" data-name="Path 25" class="cls-7" d="M662.609,619H642.5l.941,14.522h20.537Z" transform="translate(-328.885 -315.906)"/>
        <path id="Path_26" data-name="Path 26" class="cls-7" d="M627.409,619H607.3l.342,14.522h20.537Z" transform="translate(-323.806 -315.906)"/>
        <path id="Path_27" data-name="Path 27" class="cls-7" d="M572,619h20.109l.257,14.522H572Z" transform="translate(-318.712 -315.906)"/>
        <path id="Path_28" data-name="Path 28" class="cls-7" d="M339.652,648.8h41.929l-2.4,14.947H336.4Z" transform="translate(-284.716 -320.398)"/>
        <path id="Path_29" data-name="Path 29" class="cls-7" d="M817.556,648.8H765.7l2.909,14.947h52.968Z" transform="translate(-346.663 -320.398)"/>
        <path id="Path_30" data-name="Path 30" class="cls-7" d="M750.008,648.8H729.3l2.31,14.947h21.221Z" transform="translate(-341.41 -320.398)"/>
        <path id="Path_31" data-name="Path 31" class="cls-7" d="M713.608,648.8H692.9l1.711,14.947h21.221Z" transform="translate(-336.158 -320.398)"/>
        <path id="Path_32" data-name="Path 32" class="cls-7" d="M677.208,648.8H656.5l1.2,14.947h21.136Z" transform="translate(-330.905 -320.398)"/>
        <path id="Path_33" data-name="Path 33" class="cls-7" d="M640.808,648.8H620.1l.6,14.947h21.136Z" transform="translate(-325.653 -320.398)"/>
        <path id="Path_34" data-name="Path 34" class="cls-7" d="M332.136,680.1h42.956l-3.166,14.862H328.2Z" transform="translate(-283.532 -325.117)"/>
        <path id="Path_35" data-name="Path 35" class="cls-7" d="M395.009,680.1h21.478l-2.482,14.862H392.1Z" transform="translate(-292.753 -325.117)"/>
        <path id="Path_36" data-name="Path 36" class="cls-7" d="M432.8,680.1H593.754l.6,14.862H430.4Z" transform="translate(-298.28 -325.117)"/>
        <path id="Path_37" data-name="Path 37" class="cls-7" d="M633.9,680.1h21.478l1.2,14.862H634.67Z" transform="translate(-327.644 -325.117)"/>
        <path id="Path_38" data-name="Path 38" class="cls-7" d="M671.5,680.1h21.478l1.8,14.862H672.869Z" transform="translate(-333.07 -325.117)"/>
        <path id="Path_39" data-name="Path 39" class="cls-7" d="M709.2,680.1h21.478l2.31,14.862h-21.82Z" transform="translate(-338.51 -325.117)"/>
        <path id="Path_40" data-name="Path 40" class="cls-7" d="M746.8,680.1h21.478l2.909,14.862h-21.82Z" transform="translate(-343.935 -325.117)"/>
        <path id="Path_41" data-name="Path 41" class="cls-7" d="M784.4,680.1h42.956l3.936,14.862H787.566Z" transform="translate(-349.361 -325.117)"/>
        <path id="Path_42" data-name="Path 42" class="cls-7" d="M604.522,648.8H583.9v14.947h20.965Z" transform="translate(-320.429 -320.398)"/>
        <path id="Path_43" data-name="Path 43" class="cls-7" d="M567.993,648.8H547.2l-.6,14.947h21.221Z" transform="translate(-315.047 -320.398)"/>
        <path id="Path_44" data-name="Path 44" class="cls-7" d="M531.492,648.8H510.7l-1.2,14.947h21.221Z" transform="translate(-309.693 -320.398)"/>
        <path id="Path_45" data-name="Path 45" class="cls-7" d="M494.991,648.8H474.2l-1.8,14.947h21.221Z" transform="translate(-304.34 -320.398)"/>
        <path id="Path_46" data-name="Path 46" class="cls-7" d="M458.49,648.8H437.7l-2.4,14.947h21.221Z" transform="translate(-298.987 -320.398)"/>
        <path id="Path_47" data-name="Path 47" class="cls-7" d="M422,648.8H401.209L398.3,663.747h21.136Z" transform="translate(-293.648 -320.398)"/>
        <path id="Path_48" data-name="Path 48" class="cls-7" d="M351.6,606.008l3.423-12.909h9.755l-3.166,12.909Z" transform="translate(-286.909 -312.001)"/>
        <path id="Path_49" data-name="Path 49" class="cls-7" d="M377.881,593.1h19.51l-2.653,12.909H374.8Z" transform="translate(-290.257 -312.001)"/>
        <path id="Path_50" data-name="Path 50" class="cls-7" d="M412.267,593.1h19.51l-2.225,12.909H409.7Z" transform="translate(-295.293 -312.001)"/>
        <path id="Path_51" data-name="Path 51" class="cls-7" d="M446.554,593.1h19.51l-1.711,12.909H444.5Z" transform="translate(-300.314 -312.001)"/>
        <path id="Path_52" data-name="Path 52" class="cls-7" d="M480.84,593.1h19.51l-1.2,12.909H479.3Z" transform="translate(-305.336 -312.001)"/>
        <path id="Path_53" data-name="Path 53" class="cls-7" d="M515.127,593.1h19.51l-.685,12.909H514.1Z" transform="translate(-310.357 -312.001)"/>
        <path id="Path_54" data-name="Path 54" class="cls-7" d="M549.413,593.1h19.51l-.171,12.909H548.9Z" transform="translate(-315.379 -312.001)"/>
        <path id="Path_55" data-name="Path 55" class="cls-7" d="M583.7,593.1h19.51l.342,12.909H583.7Z" transform="translate(-320.4 -312.001)"/>
        <path id="Path_56" data-name="Path 56" class="cls-7" d="M617.9,593.1h19.51l.856,12.909H618.413Z" transform="translate(-325.335 -312.001)"/>
        <path id="Path_57" data-name="Path 57" class="cls-7" d="M652.1,593.1h19.6l1.284,12.909H653.127Z" transform="translate(-330.27 -312.001)"/>
        <path id="Path_58" data-name="Path 58" class="cls-7" d="M686.4,593.1h19.51l1.883,12.909H687.94Z" transform="translate(-335.22 -312.001)"/>
        <path id="Path_59" data-name="Path 59" class="cls-7" d="M720.6,593.1h19.51l2.4,12.909H722.654Z" transform="translate(-340.155 -312.001)"/>
        <path id="Path_60" data-name="Path 60" class="cls-7" d="M754.8,593.1h19.51l2.909,12.909H757.367Z" transform="translate(-345.09 -312.001)"/>
        <path id="Path_61" data-name="Path 61" class="cls-7" d="M789,593.1h19.51l3.423,12.909H792.081Z" transform="translate(-350.025 -312.001)"/>
        <path id="Path_62" data-name="Path 62" class="cls-9" d="M789.678,803.273h-499.9A13.716,13.716,0,0,1,276,789.6H803.455A13.716,13.716,0,0,1,789.678,803.273Z" transform="translate(-276 -341.625)"/>
        <path id="Path_63" data-name="Path 63" class="cls-9" d="M634.052,721.75a6.487,6.487,0,0,0-6.332-5.35H517.762a6.419,6.419,0,0,0-6.332,5.35l-6.846,41.188a6.42,6.42,0,0,0,6.332,7.473H634.479a6.376,6.376,0,0,0,6.332-7.473Z" transform="translate(-308.97 -330.589)"/>
        <g id="Group_61" data-name="Group 61" transform="translate(89.592 36.348)">
          <g id="Group_7" data-name="Group 7">
            <rect id="Rectangle_3" data-name="Rectangle 3" class="cls-6" width="44.753" height="4.586"/>
          </g>
          <g id="Group_8" data-name="Group 8" transform="translate(57.332 34.224)">
            <rect id="Rectangle_4" data-name="Rectangle 4" class="cls-6" width="32.26" height="4.586"/>
          </g>
          <g id="Group_9" data-name="Group 9" transform="translate(94.641 34.224)">
            <rect id="Rectangle_5" data-name="Rectangle 5" class="cls-6" width="21.393" height="4.586"/>
          </g>
          <g id="Group_10" data-name="Group 10" transform="translate(0.513 120.338)">
            <rect id="Rectangle_6" data-name="Rectangle 6" class="cls-6" width="21.393" height="4.586"/>
          </g>
          <g id="Group_11" data-name="Group 11" transform="translate(120.312 34.224)">
            <rect id="Rectangle_7" data-name="Rectangle 7" class="cls-6" width="51.77" height="4.586"/>
          </g>
          <g id="Group_12" data-name="Group 12" transform="translate(0.513 103.098)">
            <rect id="Rectangle_8" data-name="Rectangle 8" class="cls-6" width="33.287" height="4.586"/>
          </g>
          <g id="Group_13" data-name="Group 13" transform="translate(46.892 137.407)">
            <rect id="Rectangle_9" data-name="Rectangle 9" class="cls-6" width="20.28" height="4.586"/>
          </g>
          <g id="Group_14" data-name="Group 14" transform="translate(0.513 137.407)">
            <rect id="Rectangle_10" data-name="Rectangle 10" class="cls-6" width="40.218" height="4.586"/>
          </g>
          <g id="Group_15" data-name="Group 15" transform="translate(0.513 154.562)">
            <rect id="Rectangle_11" data-name="Rectangle 11" class="cls-6" width="22.163" height="4.586"/>
          </g>
          <g id="Group_16" data-name="Group 16" transform="translate(53.481)">
            <rect id="Rectangle_12" data-name="Rectangle 12" class="cls-6" width="31.747" height="4.586"/>
          </g>
          <g id="Group_17" data-name="Group 17" transform="translate(53.481 51.379)">
            <rect id="Rectangle_13" data-name="Rectangle 13" class="cls-6" width="31.747" height="4.586"/>
          </g>
          <g id="Group_18" data-name="Group 18" transform="translate(37.565 68.449)">
            <rect id="Rectangle_14" data-name="Rectangle 14" class="cls-6" width="13.606" height="4.586"/>
          </g>
          <g id="Group_19" data-name="Group 19" transform="translate(24.045 85.858)">
            <rect id="Rectangle_15" data-name="Rectangle 15" class="cls-6" width="30.463" height="4.586"/>
          </g>
          <g id="Group_20" data-name="Group 20" transform="translate(59.129 85.858)">
            <rect id="Rectangle_16" data-name="Rectangle 16" class="cls-6" width="42.101" height="4.586"/>
          </g>
          <g id="Group_21" data-name="Group 21" transform="translate(0.513 68.619)">
            <rect id="Rectangle_17" data-name="Rectangle 17" class="cls-6" width="31.747" height="4.586"/>
          </g>
          <g id="Group_22" data-name="Group 22" transform="translate(0.513 85.858)">
            <rect id="Rectangle_18" data-name="Rectangle 18" class="cls-6" width="18.825" height="4.586"/>
          </g>
          <g id="Group_23" data-name="Group 23" transform="translate(57.589 68.619)">
            <rect id="Rectangle_19" data-name="Rectangle 19" class="cls-6" width="17.799" height="4.586"/>
          </g>
          <g id="Group_24" data-name="Group 24" transform="translate(1.112 171.632)">
            <rect id="Rectangle_20" data-name="Rectangle 20" class="cls-6" width="17.799" height="4.586"/>
          </g>
          <g id="Group_25" data-name="Group 25" transform="translate(0.428 34.224)">
            <rect id="Rectangle_21" data-name="Rectangle 21" class="cls-6" width="31.747" height="4.586"/>
          </g>
          <g id="Group_26" data-name="Group 26" transform="translate(28.495 120.338)">
            <rect id="Rectangle_22" data-name="Rectangle 22" class="cls-6" width="31.747" height="4.586"/>
          </g>
          <g id="Group_27" data-name="Group 27" transform="translate(28.923 154.562)">
            <rect id="Rectangle_23" data-name="Rectangle 23" class="cls-6" width="31.747" height="4.586"/>
          </g>
          <g id="Group_28" data-name="Group 28" transform="translate(85.314 154.562)">
            <rect id="Rectangle_24" data-name="Rectangle 24" class="cls-6" width="31.747" height="4.586"/>
          </g>
          <g id="Group_29" data-name="Group 29" transform="translate(0.428 51.379)">
            <rect id="Rectangle_25" data-name="Rectangle 25" class="cls-6" width="45.267" height="4.586"/>
          </g>
          <g id="Group_30" data-name="Group 30" transform="translate(212.556)">
            <rect id="Rectangle_26" data-name="Rectangle 26" class="cls-6" width="31.747" height="4.586"/>
          </g>
          <g id="Group_31" data-name="Group 31" transform="translate(99.433 171.632)">
            <rect id="Rectangle_27" data-name="Rectangle 27" class="cls-6" width="31.747" height="4.586"/>
          </g>
          <g id="Group_32" data-name="Group 32" transform="translate(254.144)">
            <rect id="Rectangle_28" data-name="Rectangle 28" class="cls-6" width="21.221" height="4.586"/>
          </g>
          <g id="Group_33" data-name="Group 33" transform="translate(326.108 17.155)">
            <rect id="Rectangle_29" data-name="Rectangle 29" class="cls-6" width="21.221" height="4.586"/>
          </g>
          <g id="Group_34" data-name="Group 34" transform="translate(93.785)">
            <rect id="Rectangle_30" data-name="Rectangle 30" class="cls-6" width="40.475" height="4.586"/>
          </g>
          <g id="Group_35" data-name="Group 35" transform="translate(251.405 17.155)">
            <rect id="Rectangle_31" data-name="Rectangle 31" class="cls-6" width="40.475" height="4.586"/>
          </g>
          <g id="Group_36" data-name="Group 36" transform="translate(201.775 34.224)">
            <rect id="Rectangle_32" data-name="Rectangle 32" class="cls-6" width="40.475" height="4.586"/>
          </g>
          <g id="Group_37" data-name="Group 37" transform="translate(149.149 51.379)">
            <rect id="Rectangle_33" data-name="Rectangle 33" class="cls-6" width="40.475" height="4.586"/>
          </g>
          <g id="Group_38" data-name="Group 38" transform="translate(247.298 34.224)">
            <rect id="Rectangle_34" data-name="Rectangle 34" class="cls-6" width="28.752" height="4.586"/>
          </g>
          <g id="Group_39" data-name="Group 39" transform="translate(164.124)">
            <rect id="Rectangle_35" data-name="Rectangle 35" class="cls-6" width="40.475" height="4.586"/>
          </g>
          <g id="Group_40" data-name="Group 40" transform="translate(118.001 51.379)">
            <rect id="Rectangle_36" data-name="Rectangle 36" class="cls-6" width="23.703" height="4.586"/>
          </g>
          <g id="Group_41" data-name="Group 41" transform="translate(99.433 120.592)">
            <rect id="Rectangle_37" data-name="Rectangle 37" class="cls-6" width="23.703" height="4.586"/>
          </g>
          <g id="Group_42" data-name="Group 42" transform="translate(141.704)">
            <rect id="Rectangle_38" data-name="Rectangle 38" class="cls-6" width="14.804" height="4.586"/>
          </g>
          <g id="Group_43" data-name="Group 43" transform="translate(93.785 51.379)">
            <rect id="Rectangle_39" data-name="Rectangle 39" class="cls-6" width="14.804" height="4.586"/>
          </g>
          <g id="Group_44" data-name="Group 44" transform="translate(301.635 17.155)">
            <rect id="Rectangle_40" data-name="Rectangle 40" class="cls-6" width="14.804" height="4.586"/>
          </g>
          <g id="Group_45" data-name="Group 45" transform="translate(0 17.155)">
            <rect id="Rectangle_41" data-name="Rectangle 41" class="cls-6" width="23.19" height="4.586"/>
          </g>
          <g id="Group_46" data-name="Group 46" transform="translate(61.867 103.183)">
            <rect id="Rectangle_42" data-name="Rectangle 42" class="cls-6" width="18.312" height="4.586"/>
          </g>
          <g id="Group_47" data-name="Group 47" transform="translate(28.923 17.155)">
            <rect id="Rectangle_43" data-name="Rectangle 43" class="cls-6" width="7.445" height="4.586"/>
          </g>
          <g id="Group_48" data-name="Group 48" transform="translate(182.436 17.155)">
            <rect id="Rectangle_44" data-name="Rectangle 44" class="cls-6" width="61.867" height="4.586"/>
          </g>
          <g id="Group_49" data-name="Group 49" transform="translate(123.136 154.562)">
            <rect id="Rectangle_45" data-name="Rectangle 45" class="cls-6" width="61.867" height="4.586"/>
          </g>
          <g id="Group_50" data-name="Group 50" transform="translate(41.844 17.155)">
            <rect id="Rectangle_46" data-name="Rectangle 46" class="cls-6" width="7.616" height="4.586"/>
          </g>
          <g id="Group_51" data-name="Group 51" transform="translate(156.508 17.155)">
            <rect id="Rectangle_47" data-name="Rectangle 47" class="cls-6" width="20.195" height="4.586"/>
          </g>
          <g id="Group_52" data-name="Group 52" transform="translate(176.788 34.224)">
            <rect id="Rectangle_48" data-name="Rectangle 48" class="cls-6" width="20.195" height="4.586"/>
          </g>
          <g id="Group_53" data-name="Group 53" transform="translate(72.735 171.632)">
            <rect id="Rectangle_49" data-name="Rectangle 49" class="cls-6" width="20.195" height="4.586"/>
          </g>
          <g id="Group_54" data-name="Group 54" transform="translate(108.161 17.155)">
            <rect id="Rectangle_50" data-name="Rectangle 50" class="cls-6" width="43.042" height="4.586"/>
          </g>
          <g id="Group_55" data-name="Group 55" transform="translate(68.028 120.592)">
            <rect id="Rectangle_51" data-name="Rectangle 51" class="cls-6" width="25.158" height="4.586"/>
          </g>
          <g id="Group_56" data-name="Group 56" transform="translate(66.488 154.562)">
            <rect id="Rectangle_52" data-name="Rectangle 52" class="cls-6" width="12.579" height="4.586"/>
          </g>
          <g id="Group_57" data-name="Group 57" transform="translate(87.196 17.155)">
            <rect id="Rectangle_53" data-name="Rectangle 53" class="cls-6" width="14.804" height="4.586"/>
          </g>
          <g id="Group_58" data-name="Group 58" transform="translate(37.394 34.224)">
            <rect id="Rectangle_54" data-name="Rectangle 54" class="cls-6" width="14.804" height="4.586"/>
          </g>
          <g id="Group_59" data-name="Group 59" transform="translate(40.304 103.183)">
            <rect id="Rectangle_55" data-name="Rectangle 55" class="cls-6" width="14.804" height="4.586"/>
          </g>
          <g id="Group_60" data-name="Group 60" transform="translate(55.792 17.155)">
            <rect id="Rectangle_56" data-name="Rectangle 56" class="cls-6" width="25.842" height="4.586"/>
          </g>
        </g>
      </g>
      <g id="Group_65" data-name="Group 65" transform="translate(461.549 270.905)">
        <g id="Group_64" data-name="Group 64">
          <g id="Group_63" data-name="Group 63">
            <path id="Path_64" data-name="Path 64" class="cls-10" d="M697,364.5s7.53,12.654,10.7,14.692c4.279,2.8,1.626,5.605-.428,5.69-2.054,0-12.493.764-14.8-1.868s-3.423-10.361-5.562-12.4-4.364-10.106,1.027-12.059C692.641,356.769,697,364.5,697,364.5Z" transform="translate(-684.58 -358.285)"/>
          </g>
        </g>
      </g>
      <g id="Group_68" data-name="Group 68" transform="translate(464.446 271.257)">
        <g id="Group_67" data-name="Group 67">
          <g id="Group_66" data-name="Group 66">
            <path id="Path_65" data-name="Path 65" class="cls-11" d="M694.156,359.04s8.643,14.862,10.1,16.985c1.455,2.208-2.824,2.208-5.477,1.189s-9.327-11.635-10.268-13.588a7.106,7.106,0,0,1-.171-4.926Z" transform="translate(-687.965 -358.7)"/>
          </g>
        </g>
      </g>
      <g id="Group_71" data-name="Group 71" transform="translate(461.908 279.495)">
        <g id="Group_70" data-name="Group 70">
          <g id="Group_69" data-name="Group 69">
            <path id="Path_66" data-name="Path 66" class="cls-10" d="M685,368.4l2.054,15.2,1.027.085-.342-10.955Z" transform="translate(-685 -368.4)"/>
          </g>
        </g>
      </g>
      <g id="Group_74" data-name="Group 74" transform="translate(386.811 270.966)">
        <g id="Group_73" data-name="Group 73">
          <g id="Group_72" data-name="Group 72">
            <path id="Path_67" data-name="Path 67" class="cls-10" d="M609.7,364.508s7.53,12.654,10.7,14.692c4.279,2.8,1.626,5.605-.428,5.69-2.054,0-12.493.764-14.8-1.868s-3.423-10.361-5.562-12.4-4.45-10.361,1.027-12.059C605.42,357.035,609.7,364.508,609.7,364.508Z" transform="translate(-597.239 -358.357)"/>
          </g>
        </g>
      </g>
      <g id="Group_77" data-name="Group 77" transform="translate(389.828 271.257)">
        <g id="Group_76" data-name="Group 76">
          <g id="Group_75" data-name="Group 75">
            <path id="Path_68" data-name="Path 68" class="cls-11" d="M607.384,359.04s8.129,14.777,9.669,16.985c1.455,2.208-2.824,2.208-5.477,1.189s-9.327-11.635-10.268-13.588a7.106,7.106,0,0,1-.171-4.926Z" transform="translate(-600.765 -358.7)"/>
          </g>
        </g>
      </g>
      <g id="Group_80" data-name="Group 80" transform="translate(387.291 279.495)">
        <g id="Group_79" data-name="Group 79">
          <g id="Group_78" data-name="Group 78">
            <path id="Path_69" data-name="Path 69" class="cls-10" d="M597.8,368.4l1.968,15.2,1.112.085-.342-10.955Z" transform="translate(-597.8 -368.4)"/>
          </g>
        </g>
      </g>
      <g id="Group_83" data-name="Group 83" transform="translate(365.898 151.392)">
        <g id="Group_82" data-name="Group 82">
          <g id="Group_81" data-name="Group 81">
            <path id="Path_70" data-name="Path 70" class="cls-11" d="M572.8,228.039l68.114,30.827a13.073,13.073,0,0,1,8.471,10.87c2.653,26.157,22.334,67.6,22.334,67.6,6.332,3.057,5.819.425,5.819.425-4.022-12.739-8.814-65.052-10.611-86.028-.342-4.416-.6-7.473-.685-8.492,0-.679-.77-1.529-2.054-2.548-9.327-7.558-47.834-23.1-47.834-23.1C587.689,216.829,572.8,228.039,572.8,228.039Z" transform="translate(-572.8 -217.556)"/>
          </g>
        </g>
      </g>
      <g id="Group_86" data-name="Group 86" transform="translate(352.782 146.588)">
        <g id="Group_85" data-name="Group 85">
          <g id="Group_84" data-name="Group 84">
            <path id="Path_71" data-name="Path 71" class="cls-11" d="M557.753,240.435c2.139,18.259,28.409,16.221,28.409,16.221h31.832s-8.386,18.513-11.638,34.055c-3.423,16.56-11.552,45.774-11.552,45.774s.513,1.019,6.332.425c0,0,24.987-49.426,34.57-61.91,2.054-2.633,7.958-17.24,8.985-25.9.342-2.887.171-5.18-.941-6.115s-3.68-2.633-7.017-4.756c-10.012-6.284-27.3-15.881-36.966-18C586.847,217.335,566.4,211.9,566.4,211.9S555.613,222.176,557.753,240.435Z" transform="translate(-557.472 -211.9)"/>
          </g>
        </g>
      </g>
      <g id="Group_87" data-name="Group 87" transform="translate(371.601)">
        <path id="Path_72" data-name="Path 72" class="cls-5" d="M582.575,73.608s-4.792-9-2.482-18.513c2.31-9.6,11.3-19.108,24.388-14.692s23.7,14.437,15.831,26.157c-7.872,11.635,7.1,16.985,3.252,22.5s-2.4,11.38-.77,12.654,6.846,5.86,6.247,11.38c-.6,5.435-25.414-15.881-25.414-15.881S590.191,70.126,582.575,73.608Z" transform="translate(-579.464 -39.289)"/>
      </g>
      <g id="Group_88" data-name="Group 88" transform="translate(361.791 144.778)">
        <path id="Path_73" data-name="Path 73" class="cls-12" d="M620.882,214.126s-1.968,9.512-52.882-2.463C568,211.664,585.029,206.059,620.882,214.126Z" transform="translate(-568 -209.768)"/>
      </g>
      <g id="Group_90" data-name="Group 90" transform="translate(350.838 58.396)">
        <g id="Group_89" data-name="Group 89">
          <path id="Path_74" data-name="Path 74" class="cls-4" d="M565.554,198.962c-.77,1.529-1.54,2.972-2.4,4.5,18.569.51,37.223,1.1,55.792,1.614-2.909-9.766-1.968-23.014-1.455-33.036.6-12.314,7.445-20.806,6.76-33.205,3.68.594,4.279.679,7.958,1.274-5.648-15.966-7.53-23.864-25.072-29.978-5.733-2.038-9.413-2.378-15.574-1.868-20.28,1.7-26.356,1.868-36.367,20.127,15.574,2.463,13.007,7.983,17.713,23.439,2.31,7.473,4.706,15.881,3.508,23.779C575.223,183.336,565.554,191.913,565.554,198.962Z" transform="translate(-555.2 -108.052)"/>
        </g>
      </g>
      <g id="Group_92" data-name="Group 92" transform="translate(386.87 42.42)">
        <g id="Group_91" data-name="Group 91">
          <path id="Path_75" data-name="Path 75" class="cls-11" d="M603.976,111.116c-8.3-1.529-6.5-6.115-6.5-6.115s.342-2.548.513-5.86c0-.849.086-1.7.086-2.633a32.589,32.589,0,0,0-.257-4.076c-.685-5.52,15.06-2.208,15.06-2.208s-.941,11.21,1.284,14.522C616.3,108.144,612.276,112.73,603.976,111.116Z" transform="translate(-597.308 -89.24)"/>
        </g>
      </g>
      <g id="Group_94" data-name="Group 94" transform="translate(377.707 56.662)">
        <g id="Group_93" data-name="Group 93">
          <path id="Path_76" data-name="Path 76" class="cls-11" d="M586.6,107.53s16.772,19.193,22.933,23.609c0,0,7.1-6.369,2.738-23.184C612.271,107.955,604.227,103.878,586.6,107.53Z" transform="translate(-586.6 -106.01)"/>
        </g>
      </g>
      <g id="Group_95" data-name="Group 95" transform="translate(374.316 8.899)">
        <path id="Path_77" data-name="Path 77" class="cls-11" d="M586.542,52.852s-8.728,16.645-.086,32.356,25.586-6.879,26.612-9.512c1.112-2.633,6.931-17.664-4.621-22.165C596.9,48.946,589.023,48.351,586.542,52.852Z" transform="translate(-582.637 -49.768)"/>
      </g>
      <g id="Group_96" data-name="Group 96" transform="translate(387.548 46.038)">
        <path id="Path_78" data-name="Path 78" class="cls-13" d="M605.545,93.5S604,96.812,598.1,99.784c0-.849.086-1.7.086-2.633A13.742,13.742,0,0,0,605.545,93.5Z" transform="translate(-598.1 -93.5)"/>
      </g>
      <g id="Group_97" data-name="Group 97" transform="translate(289.911 133.765)">
        <path id="Path_79" data-name="Path 79" class="cls-11" d="M501.2,197.395s-4.107,1.783-6.076,1.019a17.821,17.821,0,0,0-5.9-1.019c-1.284,0-5.305-1.444-5.22.17.086,1.529,6.5,2.633,7.787,3.142s-3.936,3.312-4.45,4.586,5.477,9.6,8.814,7.219,5.134-7.134,5.819-7.473,2.482-1.614,2.482-1.614Z" transform="translate(-483.998 -196.8)"/>
      </g>
      <g id="Group_98" data-name="Group 98" transform="translate(284.061 141.493)">
        <path id="Path_80" data-name="Path 80" class="cls-11" d="M487.035,205.9s-9.669,7.983-9.841,9.087.342,1.614,1.284.849c.941-.679,9.584-7.473,9.584-7.473s-9.669,11.38-10.012,12.229c-.171.51.77,1.529,1.284,1.189s10.867-11.04,10.867-11.04-9.07,10.616-9.07,11.465a1.05,1.05,0,0,0,1.8.679c.77-.764,9.755-10.106,9.755-10.106s-6.076,8.153-5.648,8.917c.257.425,1.027,1.359,2.482-.764s5.562-6.879,5.562-6.879Z" transform="translate(-477.162 -205.9)"/>
      </g>
      <g id="Group_100" data-name="Group 100" transform="translate(352.782 146.588)">
        <g id="Group_99" data-name="Group 99">
          <path id="Path_81" data-name="Path 81" class="cls-5" d="M614.657,256.57H586.162s-26.27,2.123-28.409-16.221c-2.139-18.259,8.643-28.45,8.643-28.45s13.862,3.652,26.013,6.539a92.654,92.654,0,0,1,21.906-1.868s51.342,16.815,49.8,25.732C664.116,242.388,642.638,231.008,614.657,256.57Z" transform="translate(-557.472 -211.9)"/>
        </g>
      </g>
      <g id="Group_101" data-name="Group 101" transform="translate(391.398 158.817)">
        <path id="Path_82" data-name="Path 82" class="cls-8" d="M602.6,227.149l54.423-.849-27.468,13.843Z" transform="translate(-602.6 -226.3)"/>
      </g>
      <g id="Group_102" data-name="Group 102" transform="translate(380.445 147.607)">
        <path id="Path_83" data-name="Path 83" class="cls-4" d="M617.7,218.2a46.987,46.987,0,0,1-27.211.425l-.685-5.52,30.891,1.7Z" transform="translate(-589.8 -213.1)"/>
      </g>
      <g id="Group_103" data-name="Group 103" transform="translate(391.398 159.667)">
        <path id="Path_84" data-name="Path 84" class="cls-9" d="M629.555,240.293,602.6,229.933V227.3l29.094,10.361Z" transform="translate(-602.6 -227.3)"/>
      </g>
      <g id="Group_106" data-name="Group 106" transform="translate(302.385 56.993)">
        <g id="Group_104" data-name="Group 104" transform="translate(100.994 1.698)">
          <path id="Path_85" data-name="Path 85" class="cls-2" d="M621.306,205.044a2.7,2.7,0,0,0,3.765,2.633l3.166-1.359a2.227,2.227,0,0,0,1.369-2.378c-1.284-8.153-4.107-39.914,0-45.434a19.23,19.23,0,0,0,2.995-5.35c2.738,6.964,6.075,15.966,7.445,20.806l25.671,33.97,8.643,2.208c-10.782-25.732-19.424-39.32-19.424-39.32-1.711-4.5-6.5-18.089-10.782-30.148-2.738-7.643-5.134-14.692-6.5-18.429a8.351,8.351,0,0,0-3.765-4.586c-4.022-2.378-10.611-6.115-16.6-9H617.2a4.193,4.193,0,0,0-.6-.255h0c11.466,17.07,7.017,65.561,4.706,96.644Z" transform="translate(-616.6 -108.4)"/>
        </g>
        <g id="Group_105" data-name="Group 105">
          <path id="Path_86" data-name="Path 86" class="cls-2" d="M561.833,109.457c-3.68.594-12.75,9.342-17.542,18.174-5.477,10.106-11.124,21.571-15.317,25.307-7.7,6.964-29.351,31.507-30.377,30.912-.428-.255,5.9,7.3,6.76,7.643.428.17,35.512-30.063,38.935-34.649,3.166-4.331,11.723-22.675,14.29-22.25h0a135.212,135.212,0,0,1,6.247,16.9c.086.17.086.34.171.51,2.054,6.794,1.883,14.267.77,22.59-.856,6.284-5.562,16.56-8.386,21.571a3.529,3.529,0,0,0,.086,2.633h0a2.056,2.056,0,0,0,.941,1.1l10.354,3.822,2.4.849a5.16,5.16,0,0,0,4.963-.679,5.025,5.025,0,0,0,2.139-3.567c2.31-17.494,5.22-35.413,7.53-42.122,10.183-29.554-3.936-51.8-3.936-51.8S565.085,108.268,561.833,109.457Z" transform="translate(-498.576 -106.4)"/>
        </g>
      </g>
      <g id="Group_107" data-name="Group 107" transform="translate(418.353 128.839)">
        <path id="Path_87" data-name="Path 87" class="cls-2" d="M634.1,234.821,650.273,191l52.112.849-15.4,40.424Z" transform="translate(-634.1 -191)"/>
      </g>
      <g id="Group_108" data-name="Group 108" transform="translate(450.26 144.128)">
        <path id="Path_88" data-name="Path 88" class="cls-14" d="M672.339,213.077c-1.626,3.142-1.112,6.624,1.112,7.643,2.225,1.1,5.22-.594,6.846-3.737s1.112-6.624-1.112-7.643C676.96,208.236,673.88,209.935,672.339,213.077Z" transform="translate(-671.388 -209.003)"/>
      </g>
      <path id="Path_89" data-name="Path 89" class="cls-5" d="M627.8,105.658c-3.851-5.775-6.589-10.361-6.931-18.6-.257-5.435-1.455-12.824-5.22-16.475,3.936-10.191-.685-13.248-2.567-16.56-2.31-4.161-19.424-14.182-26.184-3.652a30.664,30.664,0,0,0-4.364,21.4c.685-5.775,6.674-13.588,6.674-13.588.941,6.03,13.52,15.881,19,19.872a.642.642,0,0,0-.171.34c-3.081,4.416.77,8.832,1.455,13.5s-12.921,17.24,2.225,23.524C626.856,121.794,631.648,111.348,627.8,105.658Z" transform="translate(-208.246 -40.257)"/>
      <g id="Group_110" data-name="Group 110" transform="translate(69.911 489.751)">
        <g id="Group_109" data-name="Group 109" transform="translate(0 65.793)">
          <path id="Path_90" data-name="Path 90" class="cls-5" d="M303.773,697.994s-.342,3.567-17.114,3.567S245.5,697.23,245.5,697.23l38.934-3.737S299.409,692.729,303.773,697.994Z" transform="translate(-229.584 -693.454)"/>
          <path id="Path_91" data-name="Path 91" class="cls-5" d="M258.39,699.74c-9.5,0-13.52,4.841-17.285,6.369s-7.53,3.822-7.53,3.737c2.139-4.161,5.134-4.246,6.674-5.6s1.112-.679-2.225-.934c-1.883-.17-5.305,3.312-7.7,5.265a8.4,8.4,0,0,1-3.423,1.783,45.2,45.2,0,0,1,5.562-6.284,50.967,50.967,0,0,1,9.584-6.709c2.054-.849,8.386-1.019,12.836-.425C260.016,697.617,265.235,699.74,258.39,699.74Z" transform="translate(-226.9 -693.926)"/>
          <path id="Path_92" data-name="Path 92" class="cls-5" d="M243.078,697.7s-7.273,1.868-8.557,2.887c-.856.679-4.621,4.671-4.621,4.671a8.958,8.958,0,0,0,4.279-1.953C235.8,701.691,243.078,697.7,243.078,697.7Z" transform="translate(-227.333 -694.094)"/>
        </g>
        <path id="Path_93" data-name="Path 93" class="cls-5" d="M294.037,690.2s18.312,1.189,17.029,12.4c-.685,6.369-4.878,8.577-10.44,8.068-10.268-.849-21.906-2.378-21.906-2.378l-5.22-17.409Z" transform="translate(-233.624 -627.17)"/>
        <path id="Path_94" data-name="Path 94" class="cls-5" d="M301.26,680.54l17.97-57.494s2.653-8.407,7.017-6.879c6.247,2.293,3.166,9.172,2.653,13.248-1.112,8.323-.342,11.974-6.161,32.016-3.594,12.4-6.674,26.666-9.755,34.819-2.139,5.6-5.819-2.463-11.381-4.671C291.163,687.418,301.26,680.54,301.26,680.54Z" transform="translate(-236.997 -615.981)"/>
      </g>
      <path id="Path_95" data-name="Path 95" class="cls-5" d="M303.417,582.89A18.87,18.87,0,0,0,327.8,594.44a19.656,19.656,0,0,0,11.723-24.8,18.87,18.87,0,0,0-24.388-11.55A19.656,19.656,0,0,0,303.417,582.89Z" transform="translate(-167.874 -117.327)"/>
      <path id="Path_96" data-name="Path 96" class="cls-5" d="M278.649,580.908a17.3,17.3,0,0,0,24.388,4.586l-1.112-9.6a18.362,18.362,0,0,0,4.45-25.053l-3.765-5.52a17.3,17.3,0,0,0-24.388-4.586l-3.594,2.548a18.362,18.362,0,0,0-4.45,25.053Z" transform="translate(-162.787 -114.41)"/>
      <path id="Path_97" data-name="Path 97" class="cls-11" d="M272.093,557.1a33.368,33.368,0,0,0,3.166,3.906c7.872,8.492,18.4,11.72,25.072,8.238a54.966,54.966,0,0,0,9.755,10.021c3.68,2.972,13.092,4.161,13.092,4.161,5.476,5.945-15.06,40.679-16.515,40.509-2.995-.255-6.846-19.448-4.022-26.411,1.284-3.142,3.337-6.879,2.738-8.577-2.139-5.86-5.134-4.841-5.134-4.841s-3.936,4.586-7.017,4.416c-3.166-.255-8.643-5.18-8.9-5.265a13.6,13.6,0,0,1-2.567-2.8l-8.215-12.229A13.18,13.18,0,0,1,272.093,557.1Z" transform="translate(-163.419 -117.353)"/>
      <path id="Path_98" data-name="Path 98" class="cls-14" d="M339.433,710.785s-6.674,7.983-8.728,8.832c-2.738,1.189-11.124-1.359-11.124-1.359s-2.225-36.6-4.792-50.87-6.332-18-6.5-22.5c-.257-7.219-6.332-10.106-5.305-15.711s2.824-25.647,3.423-23.014c5.22,22.76,11.638,3.822,13.092.849C320.266,605.394,339.433,710.785,339.433,710.785Z" transform="translate(-167.95 -124.714)"/>
      <path id="Path_99" data-name="Path 99" class="cls-5" d="M308.612,598.175s-8.129,8.832-7.53,12.314c.513,3.482-3.508,14.352.513,29.469,4.535,17.24,6.931,28.959,7.787,40.254s-2.995,21.656-1.455,35.5c1.2,10.87,3.68,11.465,3.68,11.465a8.551,8.551,0,0,0,8.3-3.057c3.423-4.161-1.711-41.188-3.423-50.36-1.711-9.257-7.188-30.827-8.643-37.2a71.317,71.317,0,0,1-1.369-18.089,74.382,74.382,0,0,1,2.31-16.136C308.869,601.911,309.3,597.156,308.612,598.175Z" transform="translate(-167.507 -123.524)"/>
      <path id="Path_100" data-name="Path 100" class="cls-5" d="M326.467,604.539a23.919,23.919,0,0,0,30.976,14.607,24.942,24.942,0,0,0,14.889-31.507,23.919,23.919,0,0,0-30.976-14.607A24.908,24.908,0,0,0,326.467,604.539Z" transform="translate(-171.157 -119.528)"/>
      <path id="Path_101" data-name="Path 101" class="cls-15" d="M271.413,868.2l4.535,35.923-19.681,9.257L245.4,915.758,264.739,900.9l-6.332-32.441Z" transform="translate(-159.659 -164.254)"/>
      <path id="Path_102" data-name="Path 102" class="cls-5" d="M276.375,915.373l-4.279,1.1-2.909-2.633-15.745,7.813-13.948,3.312a2.778,2.778,0,0,1,.257-1.7c1.711-2.293,11.552-7.3,11.552-7.3s.171,3.312,1.54,3.4,13.435-6.2,16.258-7.9c4.792-2.972,5.733-4.926,6.075-4.671C276.2,907.306,276.375,915.373,276.375,915.373Z" transform="translate(-158.801 -170.07)"/>
      <path id="Path_103" data-name="Path 103" class="cls-15" d="M212.2,808.737l-15.659,30.573-21.564-1.019L164.2,835.148l23.874-3.991L201.081,805Z" transform="translate(-147.942 -154.726)"/>
      <path id="Path_104" data-name="Path 104" class="cls-5" d="M194.324,849.795l-4.279-1.019-1.369-3.737-19.424-.255L157.7,842.067a11.3,11.3,0,0,1,2.225-1.953c2.567-1.1,11.723-1.614,11.723-1.614s-.941,2.633.257,3.312c1.2.764,14.547,1.189,17.8.934,5.648-.425,7.273-1.614,7.445-1.274C197.747,842.661,194.324,849.795,194.324,849.795Z" transform="translate(-147.004 -159.777)"/>
      <path id="Path_105" data-name="Path 105" class="cls-10" d="M332.083,701.7l-11.638,5.18.086,15.881-80.179-12.993s-7.616-2.463-12.493,10.021C220.927,737.453,203.3,792.4,203.3,792.4l11.124,11.974,35-62.08s71.708,34.564,95.325,27.091c9.07-2.887,16-19.363,14.718-36.008a215.961,215.961,0,0,0-3.594-25.053Z" transform="translate(-153.584 -139.153)"/>
      <path id="Path_106" data-name="Path 106" class="cls-10" d="M328.091,775.138l-57.418-4.246,4.963,91.039-16.943.594L246.2,755.86s3.337-15.881,14.29-13.5C271.529,744.82,298.056,765.711,328.091,775.138Z" transform="translate(-159.774 -145.246)"/>
      <path id="Path_107" data-name="Path 107" class="cls-3" d="M377.654,774.474s-30.121-33.545-37.908-52.483c-9.327-22.675-8.557-51.124-10.268-60.551-3.166-17.325-7.017-50.955-7.7-55.116-.77-4.161,1.883-8.832,1.883-8.832s-1.968-12.569,3.68-11.21c8.129,1.953,16.173,6.369,19,7.728,5.305,2.378,16.173,65.731,16.772,68.789,2.225,11.04,10.354,21.061,16.173,31.337,13.691,24.373,17.2,53.163,17.2,53.163S394.768,768.359,377.654,774.474Z" transform="translate(-170.659 -121.737)"/>
      <g id="Group_111" data-name="Group 111" transform="translate(93.956 558.725)">
        <path id="Path_108" data-name="Path 108" class="cls-11" d="M339.559,703.484s-.257,4.076-19.424,3.142c-19.168-1.019-47.235-7.388-47.235-7.388l44.411-2.038S334.339,697.285,339.559,703.484Z" transform="translate(-257.583 -697.2)"/>
        <path id="Path_109" data-name="Path 109" class="cls-11" d="M285.377,701.636c-9.156-.17-13.092,4.5-16.686,5.945a66.738,66.738,0,0,0-7.273,3.567c2.054-3.991,4.963-4.076,6.5-5.35,1.455-1.274,1.112-.594-2.139-.934-1.883-.17-5.134,3.142-7.445,5.011a6.96,6.96,0,0,1-3.337,1.7,42.669,42.669,0,0,1,5.391-6.115,46.514,46.514,0,0,1,9.242-6.369c1.968-.764,8.044-.849,12.408-.17C286.918,699.6,291.966,701.806,285.377,701.636Z" transform="translate(-255 -697.39)"/>
        <path id="Path_110" data-name="Path 110" class="cls-11" d="M270.464,699.3s-7.017,1.7-8.215,2.633c-.856.679-4.45,4.5-4.45,4.5a9.083,9.083,0,0,0,4.107-1.868C263.448,703.207,270.464,699.3,270.464,699.3Z" transform="translate(-255.404 -697.517)"/>
      </g>
      <path id="Path_111" data-name="Path 111" class="cls-5" d="M332.9,696.662,361.309,681.8s.086,18,.257,24.883,3.081,16.56-2.4,18-8.3.679-2.653,3.991c5.648,3.227,4.364,6.624,2.225,9.427s7.188,31.337,4.963,32.951c-8.814-11.04-18.312-24.713-22.419-34.649C336.066,723.5,334.012,708.721,332.9,696.662Z" transform="translate(-172.285 -136.153)"/>
      <path id="Path_112" data-name="Path 112" class="cls-3" d="M339.473,676.1l-1.112-57.409s.086-17.919.428-23.184c.342-5.435,9.669.934,9.669.934s13.092,17.579,13.349,59.957c.171,28.365-1.369,43.141-14.547,41.953-12.237-1.1-26.185-2.972-26.185-2.972L315,679.67Z" transform="translate(-169.702 -122.813)"/>
      <g id="Group_112" data-name="Group 112" transform="translate(47.406 514.52)">
        <path id="Path_113" data-name="Path 113" class="cls-9" d="M323.707,723.982,225.9,711.838l.257-2.038,97.807,12.144Z" transform="translate(-204.251 -654.894)"/>
        <path id="Path_114" data-name="Path 114" class="cls-9" d="M277.185,706.762a2.732,2.732,0,0,1-2.824,2.633l-50.144-6.2c-1.369-.17-3.081-1.444-4.279-5.69L200.6,647.825c.257-2.038,1.883-3.057,3.252-2.548l51.257,7.983c1.369.51,2.31,1.7,2.824,3.906Z" transform="translate(-200.6 -645.147)"/>
        <path id="Path_115" data-name="Path 115" class="cls-9" d="M274.417,718.23l.513.085,48.946,6.115a17.5,17.5,0,0,1-8.215.594l-40.988-5.1-.513-.085-40.988-5.1A19.827,19.827,0,0,1,225.3,712.2Z" transform="translate(-204.164 -655.256)"/>
      </g>
      <path id="Path_116" data-name="Path 116" class="cls-5" d="M339.632,678.981l-1.112-57.409a54.654,54.654,0,0,1,2.567-9.172c.428,6.284,3.337,51.549,3.68,57.494.428,6.454,5.733,7.134,6.846,9.257,1.2,2.038.171,2.463-3.765,1.7-3.851-.849-2.482-.17-1.626,1.868.856,2.123-1.284,1.529-8.814-1.189-5.477-1.953-16,0-21.307,1.189Z" transform="translate(-169.86 -125.69)"/>
      <path id="Path_117" data-name="Path 117" class="cls-16" d="M731.634,524.17c-9.413,2.463-26.784,11.125-30.463,25.987-5.477,22.335,5.477,55.031-11.809,87.132-5.562,10.191,95.582,23.949,95.582,23.949l19.51-112.779S780.067,524,775.1,522.3C764.75,518.905,750.46,519.245,731.634,524.17Z" transform="translate(-223.689 -111.769)"/>
      <path id="Path_118" data-name="Path 118" class="cls-3" d="M820.436,553.558c3.508,9,12.408,62.589,2.482,75.243-1.112,1.444,5.134,3.737,4.022,10.361-.171,1.1-2.054,6.454-2.054,6.454l-8.044,2.123L799.3,627.612s7.1-10.955,16.43-52.483C818.468,562.9,819.666,551.52,820.436,553.558Z" transform="translate(-239.585 -116.783)"/>
      <path id="Path_119" data-name="Path 119" class="cls-13" d="M741.187,627.51s8.471,22.165,28.923,28.11c3.508,1.019,5.733,4.926,4.022,6.2-2.225,1.614-5.134,1.953-10.268,1.953-10.7,0-25.243-3.4-35.255-13.418-14.889-14.777-19.6-21.571-18.055-28.959C711.922,613.837,741.187,627.51,741.187,627.51Z" transform="translate(-226.739 -126.703)"/>
      <path id="Path_120" data-name="Path 120" class="cls-3" d="M705.46,545.366c-4.364,7.3-6.846,19.023-6.76,35.838,0,12.993,10.953,34.309,12.579,40.849.257,1.1.941,5.775.941,5.775l12.065,12.229,24.216-16.9-7.359-11.635-2.225.255s-1.369-6.454-1.027-8.917-6.674-36.008-10.183-57.494C725.74,532.882,709.738,538.147,705.46,545.366Z" transform="translate(-225.068 -114.451)"/>
      <path id="Path_121" data-name="Path 121" class="cls-5" d="M730.716,623.772l7.1-2.208,2.909-.764a5.422,5.422,0,0,0,1.883,3.4l-5.562.679-6.418,2.038-7.53,5.35Z" transform="translate(-228.59 -126.957)"/>
      <path id="Path_122" data-name="Path 122" class="cls-13" d="M778.163,661.382l12.322-3.482s3.508,4.841,2.824,6.03,0,8.323,0,8.323l-5.99,5.265-4.878-1.7s-.342-2.208,1.284-2.378c1.711-.255-1.112-1.444-1.968-1.953C780.9,670.893,773.8,667.157,778.163,661.382Z" transform="translate(-236.332 -132.55)"/>
      <path id="Path_123" data-name="Path 123" class="cls-17" d="M756.128,519.406a7.775,7.775,0,0,0,4.621,9.851l7.017,2.548a7.476,7.476,0,0,0,9.584-4.756l6.247-18.344a7.9,7.9,0,0,0-4.621-9.936l-7.017-2.548a7.476,7.476,0,0,0-9.584,4.756Z" transform="translate(-233.294 -108.109)"/>
      <path id="Path_124" data-name="Path 124" class="cls-13" d="M786.821,534.682a4.849,4.849,0,0,1-5.99,3.482l-21.136-6.03a5.12,5.12,0,0,1-3.423-6.2l8.643-32.186a4.849,4.849,0,0,1,5.99-3.482l21.136,5.945a5.12,5.12,0,0,1,3.423,6.2Z" transform="translate(-233.353 -107.249)"/>
      <path id="Path_125" data-name="Path 125" class="cls-2" d="M798.22,497.935h0c.171-.17-1.968-2.548-.856-7.219,1.455-6.284-3.252-8.832-6.76-8.917-2.054-.085-8.985,3.227-12.664,4.331s-3.337-.34-10.012-1.529c-4.45-.849-5.477,1.614-7.017,5.01-1.54,3.482-1.711,16.73-1.711,16.73.6.849,1.54,1.529,2.139.849s2.995-11.295,4.963-14.437c1.883-3.142,9.584,1.868,13.777,4.331,4.107,2.463,7.787,2.887,14.376,1.529a5.5,5.5,0,0,1,1.455,2.208c0,.849-1.883,6.879-1.883,6.879s3.68-2.293,4.706-4.076C799.247,503.031,799.418,500.143,798.22,497.935Z" transform="translate(-233.799 -106.001)"/>
      <path id="Path_126" data-name="Path 126" class="cls-13" d="M762.8,522.279a1.639,1.639,0,0,1-1.968,1.189l-4.535-1.274a1.661,1.661,0,0,1-1.112-2.038l2.31-8.577a1.64,1.64,0,0,1,1.968-1.189L764,511.663a1.661,1.661,0,0,1,1.112,2.038Z" transform="translate(-233.21 -110.302)"/>
      <path id="Path_127" data-name="Path 127" class="cls-2" d="M759.965,514.8s-3.423,12.654-4.535,16.9c-1.027,3.822-1.8,12.654,19.168,18.6,12.408,3.482,14.461-6.03,15.317-9.087.6-2.378-.086-10.106-1.027-11.8,0-.085-1.369,5.265-1.369,5.265a10.342,10.342,0,0,0-7.1-7.473c-9.5-2.718-13.263,2.463-17.371,1.1C759.794,527.2,758.853,521.084,759.965,514.8Z" transform="translate(-233.195 -110.976)"/>
      <path id="Path_128" data-name="Path 128" class="cls-13" d="M777.292,537.172l6.5,1.868a1.542,1.542,0,0,0,1.968-1.189l.257-.934-9.669-2.718-.257.934A1.745,1.745,0,0,0,777.292,537.172Z" transform="translate(-236.232 -113.901)"/>
      <path id="Path_129" data-name="Path 129" class="cls-7" d="M865.374,681.484c-2.995,8.577-55.706,40.084-73.419,38.216l-53.31,2.633c-45.267-5.69-66.745-78.045-66.745-78.045,1.8-18.174,46.465,8.153,62.381,16.305,25.158,12.908,41.159,13.588,41.159,13.588,16.857,1.783,36.367-11.635,57.674-12.059C856.475,661.527,870.166,667.981,865.374,681.484Z" transform="translate(-221.201 -129.553)"/>
      <g id="Group_115" data-name="Group 115" transform="translate(528.311 490.361)">
        <path id="Path_130" data-name="Path 130" class="cls-9" d="M762.6,678.276h0V675.9l91.646-1.7v2.378l-.257.425c-1.112,2.038-3.252,2.378-5.648,2.463l-79.752,1.529c-2.4.085-4.535-.255-5.733-2.208Z" transform="translate(-762.6 -625.368)"/>
        <path id="Path_131" data-name="Path 131" class="cls-9" d="M784.793,678.568h0l-.257.425a3.421,3.421,0,0,1-1.284,1.189l-13.948.255c-2.31.085-4.364-.17-5.562-1.783l-.257-.34-.086-.085v-1.1l21.221-.425Z" transform="translate(-762.715 -625.745)"/>
        <g id="Group_113" data-name="Group 113" transform="translate(34.399 49.511)">
          <path id="Path_132" data-name="Path 132" class="cls-9" d="M802.886,677.463l45.78-.849V675l-45.866.934Z" transform="translate(-802.8 -675)"/>
        </g>
        <g id="Group_114" data-name="Group 114" transform="translate(22.591)">
          <path id="Path_133" data-name="Path 133" class="cls-9" d="M789,666.72l11.039-46.538a3.1,3.1,0,0,1,2.653-2.293L867.04,616.7a1.661,1.661,0,0,1,1.626,2.208l-11.039,46.538Z" transform="translate(-789 -616.7)"/>
        </g>
      </g>
      <path id="Path_134" data-name="Path 134" class="cls-13" d="M739.172,746.3c6.332,1.1,11.21-6.454,11.21-6.454l16.43-13.248-3.508-9-32,14.777S732.755,745.2,739.172,746.3Z" transform="translate(-229.773 -141.55)"/>
      <path id="Path_135" data-name="Path 135" class="cls-10" d="M744.083,741.247a19.142,19.142,0,0,1-1.2,4.246c-1.2,3.482-2.738,4.671-4.278,5.18-6.161,1.868-10.525.934-25.243,3.822s-19.168.679-23.446-6.284.171-12.484,7.359-12.993c10.354-.764,16.173.425,21.564-.425,5.648-.849,5.99-2.208,9.327-4.331,3.08-1.953,5.99,9.766,3.08,12.484C728.6,745.323,741.944,745.663,744.083,741.247Z" transform="translate(-223.56 -143.456)"/>
      <path id="Path_136" data-name="Path 136" class="cls-4" d="M741,749.185c-6.075,1.868-10.525.934-25.243,3.822s-19.168.679-23.446-6.284c-1.968-3.227-2.054-6.115-.941-8.323-3.252,2.293-4.364,6.284-1.455,11.04,4.279,6.964,8.728,9.172,23.446,6.284s19.168-1.953,25.243-3.822a5.639,5.639,0,0,0,3.423-3.142A5.254,5.254,0,0,1,741,749.185Z" transform="translate(-223.559 -144.686)"/>
      <path id="Path_137" data-name="Path 137" class="cls-18" d="M753.471,743.47v-.17c0,.085-.086.17-.171.255A.266.266,0,0,1,753.471,743.47Z" transform="translate(-232.947 -145.425)"/>
      <g id="Group_116" data-name="Group 116" transform="translate(485.728 590.232)">
        <path id="Path_138" data-name="Path 138" class="cls-4" d="M715.886,747.4c-.428.17-.856-.764-1.027-2.038a36.553,36.553,0,0,0-1.711-7.813c-.428-1.274-.428-2.378.086-2.548s1.369.764,1.711,2.038a35.575,35.575,0,0,1,1.626,7.728C716.742,746.037,716.314,747.226,715.886,747.4Z" transform="translate(-712.837 -734.402)"/>
        <path id="Path_139" data-name="Path 139" class="cls-4" d="M721.173,746.549c-.513.085-.941-.764-1.112-1.953a31.239,31.239,0,0,0-1.711-7.3c-.428-1.189-.428-2.208.171-2.293.513-.085,1.369.849,1.8,2.038a36.526,36.526,0,0,1,1.626,7.219C722.029,745.445,721.686,746.464,721.173,746.549Z" transform="translate(-713.589 -734.405)"/>
        <path id="Path_140" data-name="Path 140" class="cls-4" d="M726.714,746.274c-.513.085-1.027-.849-1.2-2.123a41.011,41.011,0,0,0-1.968-7.558c-.428-1.274-.428-2.293.086-2.293.6,0,1.455.934,1.883,2.208a34.2,34.2,0,0,1,1.883,7.473C727.569,745.17,727.227,746.189,726.714,746.274Z" transform="translate(-714.337 -734.3)"/>
      </g>
      <path id="Path_141" data-name="Path 141" class="cls-5" d="M741.8,717.427S854.5,669.785,860.914,669.7c21.735-.17,16.772,22.42,5.733,33.12C853.64,715.389,754.721,738.4,754.721,738.4Z" transform="translate(-231.288 -134.329)"/>
      <path id="Path_142" data-name="Path 142" class="cls-13" d="M788.805,728,758,697.933,771.178,684.6l33.544,36.348Z" transform="translate(-233.625 -136.575)"/>
      <path id="Path_143" data-name="Path 143" class="cls-5" d="M782.536,694.118s-78.3-73.8-83.517-76.007c-17.884-7.473-28.923,12.824-28.324,19.872.856,9.087,80.35,82.971,80.35,82.971Z" transform="translate(-221.024 -126.306)"/>
      <g id="Group_118" data-name="Group 118" transform="translate(549.568 578.331)">
        <path id="Path_144" data-name="Path 144" class="cls-10" d="M845.765,735.669c1.8,1.7,2.139,6.879,2.139,6.879s-26.1,10.191-35.255,10.361c-2.4.085-6.674-.934-10.782-2.123-.685-.17-2.31-2.038-2.995-2.208-1.284-.34-1.54.849-2.567.51a32.7,32.7,0,0,1-4.878-1.868c-5.562-12.059-3.68-18-3.68-18s11.98,3.567,9.926.764c-4.364-5.945,8.215-11.974,10.953-8.832C819.923,733.8,840.46,730.659,845.765,735.669Z" transform="translate(-787.441 -720.286)"/>
        <path id="Path_145" data-name="Path 145" class="cls-4" d="M847.517,741.4c-8.044,3.312-24.9,10.021-28.238,10.276-13.777,1.019-23.361-3.991-29.778-6.964.6,1.7,1.284,3.652,2.225,5.69a28.634,28.634,0,0,0,4.878,1.868c1.112.34,1.369-.934,2.567-.51.685.17,2.225,2.038,2.995,2.208,4.107,1.189,8.386,2.123,10.782,2.123,9.156-.17,35.255-10.361,35.255-10.361A15.259,15.259,0,0,0,847.517,741.4Z" transform="translate(-787.739 -723.469)"/>
        <g id="Group_117" data-name="Group 117" transform="translate(16.8 5.685)">
          <path id="Path_146" data-name="Path 146" class="cls-4" d="M833.445,732.1c.257.51-.77,1.019-2.225,1.359a47.9,47.9,0,0,0-8.814,2.718c-1.455.594-2.738.764-2.909.255s.77-1.444,2.225-2.038a46.764,46.764,0,0,1,8.728-2.633C831.819,731.337,833.188,731.592,833.445,732.1Z" transform="translate(-808.864 -727.668)"/>
          <path id="Path_147" data-name="Path 147" class="cls-4" d="M826.6,729.618c.257.51-.77,1.189-2.225,1.614a48.914,48.914,0,0,0-8.557,3.482c-1.369.679-2.653.934-2.824.425s.77-1.614,2.139-2.293a44.885,44.885,0,0,1,8.471-3.312C825.062,728.939,826.431,729.108,826.6,729.618Z" transform="translate(-807.926 -727.308)"/>
          <path id="Path_148" data-name="Path 148" class="cls-4" d="M820.1,727.422c.171.51-.77,1.274-2.139,1.783a52.742,52.742,0,0,0-8.215,4.076c-1.284.849-2.482,1.1-2.653.51-.171-.51.685-1.7,2.054-2.548a47.943,47.943,0,0,1,8.129-3.991C818.648,726.827,819.932,726.912,820.1,727.422Z" transform="translate(-807.075 -726.98)"/>
        </g>
      </g>
    </g>
  </g>
</svg>
