<svg xmlns="http://www.w3.org/2000/svg" xmlns:xlink="http://www.w3.org/1999/xlink" width="159.421" height="159.422" viewBox="0 0 159.421 159.422"><defs><style>.a{fill:#fff;}.b{fill:#0e538c;}.c{filter:url(#a);}</style><filter id="a" x="0" y="0" width="159.421" height="159.422" filterUnits="userSpaceOnUse"><feOffset dx="5" dy="5" input="SourceAlpha"/><feGaussianBlur stdDeviation="3" result="b"/><feFlood flood-opacity="0.161"/><feComposite operator="in" in2="b"/><feComposite in="SourceGraphic"/></filter></defs><g transform="translate(-1611.289 -9522.289)"><g class="c" transform="matrix(1, 0, 0, 1, 1611.29, 9522.29)"><circle class="a" cx="50" cy="50" r="50" transform="translate(145.42 74.71) rotate(135)"/></g><path class="b" d="M15.806,46.176c18.869,0,29.187-19.235,29.187-35.914q0-.819-.029-1.631a24.167,24.167,0,0,0,5.117-6.536,17.58,17.58,0,0,1-5.891,1.988A12.551,12.551,0,0,0,48.7-2.9,18.436,18.436,0,0,1,42.188.164,9.475,9.475,0,0,0,34.7-3.824C29.035-3.824,24.44,1.829,24.44,8.8a15.4,15.4,0,0,0,.266,2.878C16.181,11.147,8.62,6.124,3.561-1.513A14.876,14.876,0,0,0,2.172,4.831,13.577,13.577,0,0,0,6.737,15.338a8.781,8.781,0,0,1-4.646-1.578c0,.053,0,.1,0,.161,0,6.113,3.536,11.217,8.23,12.374a8.5,8.5,0,0,1-2.705.444,8.354,8.354,0,0,1-1.928-.228c1.306,5.015,5.093,8.665,9.583,8.767a18.3,18.3,0,0,1-12.741,5.4,17.019,17.019,0,0,1-2.447-.175,25.263,25.263,0,0,0,15.725,5.67" transform="translate(1659.918 9575.824)"/></g></svg>